Quicksand-Bold.ufo
<glyph name="exclam" format="2">
  <advance width="267"/>
  <unicode hex="0021"/>
  <note>
exclam
</note>
  <outline>
    <contour>
      <point x="134" y="221" type="curve" smooth="yes"/>
      <point x="156" y="221"/>
      <point x="168" y="234"/>
      <point x="170" y="259" type="curve" smooth="yes"/>
      <point x="198" y="627" type="line" smooth="yes"/>
      <point x="202" y="668"/>
      <point x="173" y="700"/>
      <point x="133" y="700" type="curve" smooth="yes"/>
      <point x="93" y="700"/>
      <point x="65" y="668"/>
      <point x="68" y="627" type="curve" smooth="yes"/>
      <point x="97" y="259" type="line" smooth="yes"/>
      <point x="99" y="234"/>
      <point x="112" y="221"/>
    </contour>
    <contour>
      <point x="127" y="0" type="curve" smooth="yes"/>
      <point x="140" y="0" type="line" smooth="yes"/>
      <point x="179" y="0"/>
      <point x="200" y="21"/>
      <point x="200" y="60" type="curve" smooth="yes"/>
      <point x="200" y="77" type="line" smooth="yes"/>
      <point x="200" y="116"/>
      <point x="179" y="137"/>
      <point x="140" y="137" type="curve" smooth="yes"/>
      <point x="127" y="137" type="line" smooth="yes"/>
      <point x="88" y="137"/>
      <point x="67" y="116"/>
      <point x="67" y="77" type="curve" smooth="yes"/>
      <point x="67" y="60" type="line" smooth="yes"/>
      <point x="67" y="21"/>
      <point x="88" y="0"/>
    </contour>
  </outline>
</glyph>
<glyph name="quotedbl" format="2">
  <advance width="430"/>
  <unicode hex="0022"/>
  <note>
quotedbl
</note>
  <outline>
    <contour>
      <point x="50" y="652" type="curve" smooth="yes"/>
      <point x="34" y="442" type="line" smooth="yes"/>
      <point x="32" y="416"/>
      <point x="42" y="401"/>
      <point x="63" y="401" type="curve" smooth="yes"/>
      <point x="84" y="401"/>
      <point x="97" y="412"/>
      <point x="105" y="434" type="curve" smooth="yes"/>
      <point x="173" y="643" type="line" smooth="yes"/>
      <point x="184" y="678"/>
      <point x="168" y="700"/>
      <point x="131" y="700" type="curve" smooth="yes"/>
      <point x="102" y="700" type="line" smooth="yes"/>
      <point x="70" y="700"/>
      <point x="53" y="684"/>
    </contour>
    <contour>
      <point x="270" y="652" type="curve" smooth="yes"/>
      <point x="253" y="443" type="line" smooth="yes"/>
      <point x="251" y="416"/>
      <point x="261" y="401"/>
      <point x="282" y="401" type="curve" smooth="yes"/>
      <point x="303" y="401"/>
      <point x="316" y="412"/>
      <point x="324" y="434" type="curve" smooth="yes"/>
      <point x="392" y="643" type="line" smooth="yes"/>
      <point x="404" y="678"/>
      <point x="388" y="700"/>
      <point x="351" y="700" type="curve" smooth="yes"/>
      <point x="322" y="700" type="line" smooth="yes"/>
      <point x="290" y="700"/>
      <point x="273" y="684"/>
    </contour>
  </outline>
</glyph>
<glyph name="numbersign" format="2">
  <advance width="693"/>
  <unicode hex="0023"/>
  <note>
numbersign
</note>
  <outline>
    <contour>
      <point x="161" y="0" type="curve" smooth="yes"/>
      <point x="188" y="0"/>
      <point x="208" y="17"/>
      <point x="212" y="43" type="curve" smooth="yes"/>
      <point x="313" y="633" type="line" smooth="yes"/>
      <point x="320" y="670"/>
      <point x="297" y="700"/>
      <point x="261" y="700" type="curve" smooth="yes"/>
      <point x="235" y="700"/>
      <point x="215" y="683"/>
      <point x="211" y="657" type="curve" smooth="yes"/>
      <point x="110" y="67" type="line" smooth="yes"/>
      <point x="104" y="30"/>
      <point x="126" y="0"/>
    </contour>
    <contour>
      <point x="127" y="439" type="curve" smooth="yes"/>
      <point x="603" y="439" type="line" smooth="yes"/>
      <point x="634" y="439"/>
      <point x="657" y="460"/>
      <point x="657" y="489" type="curve" smooth="yes"/>
      <point x="657" y="520"/>
      <point x="634" y="543"/>
      <point x="603" y="543" type="curve" smooth="yes"/>
      <point x="127" y="543" type="line" smooth="yes"/>
      <point x="96" y="543"/>
      <point x="73" y="522"/>
      <point x="73" y="493" type="curve" smooth="yes"/>
      <point x="73" y="462"/>
      <point x="96" y="439"/>
    </contour>
    <contour>
      <point x="432" y="0" type="curve" smooth="yes"/>
      <point x="458" y="0"/>
      <point x="478" y="17"/>
      <point x="482" y="43" type="curve" smooth="yes"/>
      <point x="583" y="633" type="line" smooth="yes"/>
      <point x="589" y="670"/>
      <point x="567" y="700"/>
      <point x="532" y="700" type="curve" smooth="yes"/>
      <point x="505" y="700"/>
      <point x="485" y="683"/>
      <point x="481" y="657" type="curve" smooth="yes"/>
      <point x="380" y="67" type="line" smooth="yes"/>
      <point x="373" y="30"/>
      <point x="396" y="0"/>
    </contour>
    <contour>
      <point x="90" y="161" type="curve" smooth="yes"/>
      <point x="567" y="161" type="line" smooth="yes"/>
      <point x="598" y="161"/>
      <point x="621" y="182"/>
      <point x="621" y="211" type="curve" smooth="yes"/>
      <point x="621" y="242"/>
      <point x="598" y="265"/>
      <point x="567" y="265" type="curve" smooth="yes"/>
      <point x="90" y="265" type="line" smooth="yes"/>
      <point x="59" y="265"/>
      <point x="36" y="244"/>
      <point x="36" y="215" type="curve" smooth="yes"/>
      <point x="36" y="184"/>
      <point x="59" y="161"/>
    </contour>
  </outline>
</glyph>
<glyph name="ampersand" format="2">
  <advance width="709"/>
  <unicode hex="0026"/>
  <note>
ampersand
</note>
  <outline>
    <contour>
      <point x="279" y="-10" type="curve" smooth="yes"/>
      <point x="492" y="-10"/>
      <point x="601" y="153"/>
      <point x="625" y="313" type="curve" smooth="yes"/>
      <point x="630" y="350"/>
      <point x="607" y="383"/>
      <point x="573" y="383" type="curve" smooth="yes"/>
      <point x="540" y="383"/>
      <point x="528" y="370"/>
      <point x="525" y="349" type="curve" smooth="yes"/>
      <point x="508" y="230"/>
      <point x="432" y="103"/>
      <point x="307" y="103" type="curve" smooth="yes"/>
      <point x="192" y="103"/>
      <point x="152" y="167"/>
      <point x="152" y="227" type="curve" smooth="yes"/>
      <point x="152" y="285"/>
      <point x="176" y="327"/>
      <point x="269" y="347" type="curve"/>
      <point x="191" y="428" type="line"/>
      <point x="81" y="384"/>
      <point x="30" y="309"/>
      <point x="30" y="209" type="curve" smooth="yes"/>
      <point x="30" y="95"/>
      <point x="136" y="-10"/>
    </contour>
    <contour>
      <point x="635" y="-2" type="curve" smooth="yes"/>
      <point x="670" y="-2"/>
      <point x="684" y="32"/>
      <point x="684" y="49" type="curve" smooth="yes"/>
      <point x="684" y="72"/>
      <point x="675" y="86"/>
      <point x="658" y="102" type="curve" smooth="yes"/>
      <point x="602" y="155"/>
      <point x="467" y="273"/>
      <point x="384" y="362" type="curve" smooth="yes"/>
      <point x="345" y="404"/>
      <point x="264" y="467"/>
      <point x="264" y="529" type="curve" smooth="yes"/>
      <point x="264" y="573"/>
      <point x="296" y="610"/>
      <point x="356" y="610" type="curve" smooth="yes"/>
      <point x="406" y="610"/>
      <point x="444" y="597"/>
      <point x="473" y="558" type="curve" smooth="yes"/>
      <point x="479" y="550"/>
      <point x="490" y="540"/>
      <point x="512" y="540" type="curve" smooth="yes"/>
      <point x="544" y="540"/>
      <point x="564" y="561"/>
      <point x="564" y="587" type="curve" smooth="yes"/>
      <point x="564" y="607"/>
      <point x="556" y="624"/>
      <point x="555" y="626" type="curve" smooth="yes"/>
      <point x="530" y="676"/>
      <point x="448" y="710"/>
      <point x="356" y="710" type="curve" smooth="yes"/>
      <point x="221" y="710"/>
      <point x="138" y="621"/>
      <point x="138" y="523" type="curve" smooth="yes"/>
      <point x="138" y="449"/>
      <point x="196" y="401"/>
      <point x="266" y="321" type="curve" smooth="yes"/>
      <point x="353" y="221"/>
      <point x="457" y="132"/>
      <point x="601" y="8" type="curve" smooth="yes"/>
      <point x="608" y="2"/>
      <point x="619" y="-2"/>
    </contour>
  </outline>
</glyph>
<glyph name="quotesingle" format="2">
  <advance width="212"/>
  <unicode hex="0027"/>
  <note>
quotesingle
</note>
  <outline>
    <contour>
      <point x="50" y="652" type="curve" smooth="yes"/>
      <point x="34" y="442" type="line" smooth="yes"/>
      <point x="32" y="416"/>
      <point x="42" y="401"/>
      <point x="63" y="401" type="curve" smooth="yes"/>
      <point x="85" y="401"/>
      <point x="98" y="412"/>
      <point x="106" y="434" type="curve" smooth="yes"/>
      <point x="174" y="643" type="line" smooth="yes"/>
      <point x="186" y="678"/>
      <point x="170" y="700"/>
      <point x="133" y="700" type="curve" smooth="yes"/>
      <point x="102" y="700" type="line" smooth="yes"/>
      <point x="70" y="700"/>
      <point x="53" y="684"/>
    </contour>
  </outline>
</glyph>
<glyph name="parenleft" format="2">
  <advance width="357"/>
  <unicode hex="0028"/>
  <note>
parenleft
</note>
  <outline>
    <contour>
      <point x="292" y="-182" type="curve" smooth="yes"/>
      <point x="320" y="-182"/>
      <point x="342" y="-154"/>
      <point x="342" y="-130" type="curve" smooth="yes"/>
      <point x="342" y="-115"/>
      <point x="335" y="-100"/>
      <point x="321" y="-90" type="curve" smooth="yes"/>
      <point x="202" y="-5"/>
      <point x="151" y="125"/>
      <point x="151" y="259" type="curve" smooth="yes"/>
      <point x="151" y="393"/>
      <point x="206" y="518"/>
      <point x="321" y="608" type="curve" smooth="yes"/>
      <point x="335" y="619"/>
      <point x="342" y="633"/>
      <point x="342" y="648" type="curve" smooth="yes"/>
      <point x="342" y="669"/>
      <point x="324" y="700"/>
      <point x="292" y="700" type="curve" smooth="yes"/>
      <point x="283" y="700"/>
      <point x="274" y="698"/>
      <point x="265" y="692" type="curve" smooth="yes"/>
      <point x="112" y="590"/>
      <point x="30" y="433"/>
      <point x="30" y="259" type="curve" smooth="yes"/>
      <point x="30" y="85"/>
      <point x="112" y="-72"/>
      <point x="265" y="-174" type="curve" smooth="yes"/>
      <point x="274" y="-180"/>
      <point x="283" y="-182"/>
    </contour>
  </outline>
</glyph>
<glyph name="parenright" format="2">
  <advance width="357"/>
  <unicode hex="0029"/>
  <note>
parenright
</note>
  <outline>
    <contour>
      <point x="65" y="-182" type="curve" smooth="yes"/>
      <point x="74" y="-182"/>
      <point x="83" y="-180"/>
      <point x="92" y="-174" type="curve" smooth="yes"/>
      <point x="245" y="-72"/>
      <point x="327" y="85"/>
      <point x="327" y="259" type="curve" smooth="yes"/>
      <point x="327" y="433"/>
      <point x="245" y="590"/>
      <point x="92" y="692" type="curve" smooth="yes"/>
      <point x="83" y="698"/>
      <point x="74" y="700"/>
      <point x="65" y="700" type="curve" smooth="yes"/>
      <point x="37" y="700"/>
      <point x="15" y="672"/>
      <point x="15" y="648" type="curve" smooth="yes"/>
      <point x="15" y="633"/>
      <point x="22" y="618"/>
      <point x="36" y="608" type="curve" smooth="yes"/>
      <point x="155" y="523"/>
      <point x="206" y="393"/>
      <point x="206" y="259" type="curve" smooth="yes"/>
      <point x="206" y="125"/>
      <point x="151" y="0"/>
      <point x="36" y="-90" type="curve" smooth="yes"/>
      <point x="22" y="-101"/>
      <point x="15" y="-115"/>
      <point x="15" y="-130" type="curve" smooth="yes"/>
      <point x="15" y="-151"/>
      <point x="33" y="-182"/>
    </contour>
  </outline>
</glyph>
<glyph name="asterisk" format="2">
  <advance width="363"/>
  <unicode hex="002A"/>
  <note>
asterisk
</note>
  <outline>
    <contour>
      <point x="181" y="382" type="curve" smooth="yes"/>
      <point x="201" y="382"/>
      <point x="215" y="397"/>
      <point x="213" y="417" type="curve" smooth="yes"/>
      <point x="204" y="496" type="line"/>
      <point x="203" y="500"/>
      <point x="206" y="502"/>
      <point x="210" y="499" type="curve" smooth="yes"/>
      <point x="275" y="451" type="line" smooth="yes"/>
      <point x="291" y="440"/>
      <point x="311" y="444"/>
      <point x="321" y="461" type="curve" smooth="yes"/>
      <point x="331" y="478"/>
      <point x="325" y="498"/>
      <point x="306" y="506" type="curve" smooth="yes"/>
      <point x="233" y="539" type="line"/>
      <point x="229" y="540"/>
      <point x="229" y="544"/>
      <point x="233" y="545" type="curve"/>
      <point x="306" y="578" type="line" smooth="yes"/>
      <point x="323" y="585"/>
      <point x="333" y="602"/>
      <point x="321" y="623" type="curve" smooth="yes"/>
      <point x="311" y="640"/>
      <point x="291" y="644"/>
      <point x="275" y="632" type="curve" smooth="yes"/>
      <point x="210" y="585" type="line" smooth="yes"/>
      <point x="206" y="582"/>
      <point x="203" y="584"/>
      <point x="204" y="588" type="curve"/>
      <point x="213" y="667" type="line" smooth="yes"/>
      <point x="215" y="687"/>
      <point x="202" y="702"/>
      <point x="183" y="702" type="curve" smooth="yes"/>
      <point x="163" y="702"/>
      <point x="149" y="687"/>
      <point x="151" y="667" type="curve" smooth="yes"/>
      <point x="160" y="588" type="line"/>
      <point x="161" y="584"/>
      <point x="158" y="582"/>
      <point x="154" y="585" type="curve" smooth="yes"/>
      <point x="89" y="633" type="line" smooth="yes"/>
      <point x="73" y="644"/>
      <point x="53" y="640"/>
      <point x="43" y="623" type="curve" smooth="yes"/>
      <point x="33" y="606"/>
      <point x="39" y="586"/>
      <point x="58" y="578" type="curve" smooth="yes"/>
      <point x="131" y="545" type="line"/>
      <point x="135" y="544"/>
      <point x="135" y="540"/>
      <point x="131" y="539" type="curve"/>
      <point x="58" y="506" type="line" smooth="yes"/>
      <point x="41" y="499"/>
      <point x="31" y="482"/>
      <point x="43" y="461" type="curve" smooth="yes"/>
      <point x="53" y="444"/>
      <point x="73" y="440"/>
      <point x="89" y="452" type="curve" smooth="yes"/>
      <point x="154" y="499" type="line" smooth="yes"/>
      <point x="158" y="502"/>
      <point x="161" y="500"/>
      <point x="160" y="496" type="curve"/>
      <point x="151" y="417" type="line" smooth="yes"/>
      <point x="149" y="397"/>
      <point x="162" y="382"/>
    </contour>
  </outline>
</glyph>
<glyph name="plus" format="2">
  <advance width="578"/>
  <unicode hex="002B"/>
  <note>
plus
</note>
  <outline>
    <contour>
      <point x="96" y="240" type="curve"/>
      <point x="503" y="240" type="line"/>
      <point x="535" y="240"/>
      <point x="559" y="263"/>
      <point x="559" y="295" type="curve"/>
      <point x="559" y="327"/>
      <point x="535" y="350"/>
      <point x="503" y="350" type="curve"/>
      <point x="96" y="350" type="line"/>
      <point x="64" y="350"/>
      <point x="40" y="328"/>
      <point x="40" y="296" type="curve"/>
      <point x="40" y="264"/>
      <point x="64" y="240"/>
    </contour>
    <contour>
      <point x="298" y="45" type="curve"/>
      <point x="336" y="45"/>
      <point x="363" y="72"/>
      <point x="363" y="109" type="curve"/>
      <point x="363" y="499" type="line"/>
      <point x="363" y="536"/>
      <point x="337" y="563"/>
      <point x="299" y="563" type="curve"/>
      <point x="261" y="563"/>
      <point x="233" y="536"/>
      <point x="233" y="499" type="curve"/>
      <point x="233" y="109" type="line"/>
      <point x="233" y="72"/>
      <point x="260" y="45"/>
    </contour>
  </outline>
</glyph>
<glyph name="comma" format="2">
  <advance width="275"/>
  <unicode hex="002C"/>
  <note>
comma
</note>
  <outline>
    <contour>
      <point x="217" y="8" type="curve" smooth="yes"/>
      <point x="217" y="77"/>
      <point x="180" y="114"/>
      <point x="123" y="114" type="curve"/>
      <point x="82" y="114"/>
      <point x="28" y="81"/>
      <point x="28" y="38" type="curve" smooth="yes"/>
      <point x="28" y="15"/>
      <point x="39" y="7"/>
      <point x="53" y="1" type="curve"/>
      <point x="61" y="6"/>
      <point x="73" y="8"/>
      <point x="81" y="8" type="curve" smooth="yes"/>
      <point x="104" y="8"/>
      <point x="119" y="-6"/>
      <point x="119" y="-20" type="curve" smooth="yes"/>
      <point x="119" y="-39"/>
      <point x="108" y="-51"/>
      <point x="91" y="-60" type="curve" smooth="yes"/>
      <point x="78" y="-66"/>
      <point x="52" y="-67"/>
      <point x="52" y="-97" type="curve"/>
      <point x="52" y="-126"/>
      <point x="73" y="-137"/>
      <point x="100" y="-137" type="curve"/>
      <point x="162" y="-137"/>
      <point x="217" y="-36"/>
    </contour>
  </outline>
</glyph>
<glyph name="hyphen" format="2">
  <advance width="396"/>
  <unicode hex="002D"/>
  <note>
hyphen
</note>
  <outline>
    <contour>
      <point x="111" y="247" type="curve" smooth="yes"/>
      <point x="285" y="247" type="line" smooth="yes"/>
      <point x="320" y="247"/>
      <point x="346" y="271"/>
      <point x="346" y="305" type="curve" smooth="yes"/>
      <point x="346" y="340"/>
      <point x="320" y="366"/>
      <point x="285" y="366" type="curve" smooth="yes"/>
      <point x="111" y="366" type="line" smooth="yes"/>
      <point x="76" y="366"/>
      <point x="50" y="341"/>
      <point x="50" y="307" type="curve" smooth="yes"/>
      <point x="50" y="272"/>
      <point x="76" y="247"/>
    </contour>
  </outline>
</glyph>
<glyph name="period" format="2">
  <advance width="249"/>
  <unicode hex="002E"/>
  <note>
period
</note>
  <outline>
    <contour>
      <point x="118" y="1" type="curve" smooth="yes"/>
      <point x="131" y="1" type="line" smooth="yes"/>
      <point x="170" y="1"/>
      <point x="191" y="22"/>
      <point x="191" y="61" type="curve" smooth="yes"/>
      <point x="191" y="78" type="line" smooth="yes"/>
      <point x="191" y="117"/>
      <point x="170" y="138"/>
      <point x="131" y="138" type="curve" smooth="yes"/>
      <point x="118" y="138" type="line" smooth="yes"/>
      <point x="79" y="138"/>
      <point x="58" y="117"/>
      <point x="58" y="78" type="curve" smooth="yes"/>
      <point x="58" y="61" type="line" smooth="yes"/>
      <point x="58" y="22"/>
      <point x="79" y="1"/>
    </contour>
  </outline>
</glyph>
<glyph name="slash" format="2">
  <advance width="568"/>
  <unicode hex="002F"/>
  <note>
slash
</note>
  <outline>
    <contour>
      <point x="84" y="-134" type="curve" smooth="yes"/>
      <point x="102" y="-134"/>
      <point x="119" y="-123"/>
      <point x="128" y="-104" type="curve" smooth="yes"/>
      <point x="533" y="727" type="line" smooth="yes"/>
      <point x="537" y="735"/>
      <point x="539" y="743"/>
      <point x="539" y="751" type="curve" smooth="yes"/>
      <point x="539" y="781"/>
      <point x="510" y="801"/>
      <point x="487" y="801" type="curve" smooth="yes"/>
      <point x="469" y="801"/>
      <point x="452" y="790"/>
      <point x="443" y="771" type="curve" smooth="yes"/>
      <point x="37" y="-60" type="line" smooth="yes"/>
      <point x="33" y="-68"/>
      <point x="31" y="-76"/>
      <point x="31" y="-84" type="curve" smooth="yes"/>
      <point x="31" y="-113"/>
      <point x="61" y="-134"/>
    </contour>
  </outline>
</glyph>
<glyph name="zero" format="2">
  <advance width="614"/>
  <unicode hex="0030"/>
  <note>
zero
</note>
  <anchor x="310" y="351" name="center"/>
  <outline>
    <contour>
      <point x="307" y="-10" type="curve"/>
      <point x="479" y="-10"/>
      <point x="574" y="137"/>
      <point x="574" y="350" type="curve"/>
      <point x="574" y="563"/>
      <point x="479" y="710"/>
      <point x="307" y="710" type="curve"/>
      <point x="135" y="710"/>
      <point x="40" y="563"/>
      <point x="40" y="350" type="curve"/>
      <point x="40" y="137"/>
      <point x="135" y="-10"/>
    </contour>
    <contour>
      <point x="307" y="110" type="curve"/>
      <point x="224" y="110"/>
      <point x="170" y="189"/>
      <point x="170" y="350" type="curve"/>
      <point x="170" y="511"/>
      <point x="224" y="590"/>
      <point x="307" y="590" type="curve"/>
      <point x="390" y="590"/>
      <point x="444" y="511"/>
      <point x="444" y="350" type="curve"/>
      <point x="444" y="189"/>
      <point x="390" y="110"/>
    </contour>
  </outline>
</glyph>
<glyph name="one" format="2">
  <advance width="364"/>
  <unicode hex="0031"/>
  <note>
one
</note>
  <outline>
    <contour>
      <point x="223" y="0" type="curve"/>
      <point x="261" y="0"/>
      <point x="289" y="26"/>
      <point x="289" y="61" type="curve"/>
      <point x="289" y="639" type="line"/>
      <point x="289" y="674"/>
      <point x="264" y="700"/>
      <point x="230" y="700" type="curve"/>
      <point x="213" y="700"/>
      <point x="198" y="697"/>
      <point x="187" y="691" type="curve"/>
      <point x="36" y="601" type="line"/>
      <point x="17" y="590"/>
      <point x="5" y="570"/>
      <point x="5" y="549" type="curve" smooth="yes"/>
      <point x="5" y="519"/>
      <point x="30" y="488"/>
      <point x="65" y="488" type="curve" smooth="yes"/>
      <point x="76" y="488"/>
      <point x="87" y="491"/>
      <point x="97" y="497" type="curve"/>
      <point x="173" y="543" type="line"/>
      <point x="159" y="565" type="line"/>
      <point x="159" y="61" type="line"/>
      <point x="159" y="26"/>
      <point x="186" y="0"/>
    </contour>
  </outline>
</glyph>
<glyph name="two" format="2">
  <advance width="536"/>
  <unicode hex="0032"/>
  <note>
two
</note>
  <outline>
    <contour>
      <point x="450" y="110" type="curve"/>
      <point x="225" y="110" type="line"/>
      <point x="236" y="101" type="line"/>
      <point x="371" y="245" type="line"/>
      <point x="441" y="320"/>
      <point x="491" y="409"/>
      <point x="491" y="494" type="curve"/>
      <point x="491" y="618"/>
      <point x="406" y="710"/>
      <point x="271" y="710" type="curve"/>
      <point x="209" y="710"/>
      <point x="137" y="676"/>
      <point x="87" y="626" type="curve" smooth="yes"/>
      <point x="64" y="603"/>
      <point x="47" y="582"/>
      <point x="47" y="560" type="curve"/>
      <point x="47" y="531"/>
      <point x="77" y="505"/>
      <point x="106" y="505" type="curve"/>
      <point x="119" y="505"/>
      <point x="136" y="508"/>
      <point x="152" y="529" type="curve" smooth="yes"/>
      <point x="183" y="571"/>
      <point x="225" y="600"/>
      <point x="264" y="600" type="curve"/>
      <point x="320" y="600"/>
      <point x="370" y="550"/>
      <point x="370" y="489" type="curve"/>
      <point x="370" y="442"/>
      <point x="338" y="386"/>
      <point x="290" y="334" type="curve"/>
      <point x="72" y="101" type="line"/>
      <point x="60" y="88"/>
      <point x="54" y="72"/>
      <point x="54" y="57" type="curve"/>
      <point x="54" y="24"/>
      <point x="75" y="0"/>
      <point x="110" y="0" type="curve"/>
      <point x="450" y="0" type="line"/>
      <point x="482" y="0"/>
      <point x="506" y="23"/>
      <point x="506" y="54" type="curve"/>
      <point x="506" y="86"/>
      <point x="482" y="110"/>
    </contour>
  </outline>
</glyph>
<glyph name="three" format="2">
  <advance width="522"/>
  <unicode hex="0033"/>
  <note>
three
</note>
  <outline>
    <contour>
      <point x="102" y="141" type="curve"/>
      <point x="68" y="141"/>
      <point x="44" y="107"/>
      <point x="44" y="77" type="curve"/>
      <point x="44" y="59"/>
      <point x="52" y="39"/>
      <point x="81" y="23" type="curve"/>
      <point x="116" y="3"/>
      <point x="167" y="-10"/>
      <point x="216" y="-10" type="curve"/>
      <point x="376" y="-10"/>
      <point x="482" y="82"/>
      <point x="482" y="230" type="curve"/>
      <point x="482" y="341"/>
      <point x="407" y="444"/>
      <point x="289" y="444" type="curve"/>
      <point x="271" y="444"/>
      <point x="240" y="437"/>
      <point x="226" y="431" type="curve"/>
      <point x="253" y="397" type="line"/>
      <point x="430" y="592" type="line"/>
      <point x="444" y="606"/>
      <point x="454" y="623"/>
      <point x="454" y="640" type="curve"/>
      <point x="454" y="674"/>
      <point x="433" y="700"/>
      <point x="392" y="700" type="curve"/>
      <point x="86" y="700" type="line"/>
      <point x="54" y="700"/>
      <point x="30" y="677"/>
      <point x="30" y="646" type="curve"/>
      <point x="30" y="614"/>
      <point x="54" y="590"/>
      <point x="86" y="590" type="curve"/>
      <point x="332" y="590" type="line"/>
      <point x="305" y="613" type="line"/>
      <point x="129" y="421" type="line"/>
      <point x="114" y="404"/>
      <point x="107" y="391"/>
      <point x="107" y="372" type="curve"/>
      <point x="107" y="343"/>
      <point x="124" y="318"/>
      <point x="155" y="318" type="curve"/>
      <point x="191" y="318"/>
      <point x="207" y="335"/>
      <point x="251" y="335" type="curve"/>
      <point x="309" y="335"/>
      <point x="362" y="296"/>
      <point x="362" y="221" type="curve"/>
      <point x="362" y="141"/>
      <point x="301" y="93"/>
      <point x="240" y="93" type="curve"/>
      <point x="199" y="93"/>
      <point x="167" y="109"/>
      <point x="145" y="126" type="curve"/>
      <point x="127" y="138"/>
      <point x="114" y="141"/>
    </contour>
  </outline>
</glyph>
<glyph name="four" format="2">
  <advance width="708"/>
  <unicode hex="0034"/>
  <note>
four
</note>
  <outline>
    <contour>
      <point x="469" y="0" type="curve"/>
      <point x="504" y="0"/>
      <point x="530" y="26"/>
      <point x="530" y="61" type="curve"/>
      <point x="530" y="639" type="line"/>
      <point x="530" y="674"/>
      <point x="505" y="700"/>
      <point x="471" y="700" type="curve"/>
      <point x="449" y="700"/>
      <point x="432" y="690"/>
      <point x="421" y="676" type="curve"/>
      <point x="105" y="289" type="line"/>
      <point x="95" y="277"/>
      <point x="90" y="263"/>
      <point x="90" y="249" type="curve"/>
      <point x="90" y="216"/>
      <point x="122" y="190"/>
      <point x="150" y="190" type="curve"/>
      <point x="572" y="190" type="line"/>
      <point x="604" y="190"/>
      <point x="628" y="213"/>
      <point x="628" y="244" type="curve"/>
      <point x="628" y="276"/>
      <point x="604" y="300"/>
      <point x="572" y="300" type="curve"/>
      <point x="233" y="300" type="line"/>
      <point x="238" y="287" type="line"/>
      <point x="431" y="526" type="line"/>
      <point x="410" y="531" type="line"/>
      <point x="410" y="61" type="line"/>
      <point x="410" y="26"/>
      <point x="435" y="0"/>
    </contour>
  </outline>
</glyph>
<glyph name="five" format="2">
  <advance width="579"/>
  <unicode hex="0035"/>
  <note>
five
</note>
  <outline>
    <contour>
      <point x="234" y="-10" type="curve"/>
      <point x="381" y="-10"/>
      <point x="509" y="100"/>
      <point x="509" y="238" type="curve"/>
      <point x="509" y="370"/>
      <point x="409" y="470"/>
      <point x="275" y="470" type="curve"/>
      <point x="225" y="470"/>
      <point x="164" y="448"/>
      <point x="152" y="429" type="curve"/>
      <point x="165" y="391" type="line"/>
      <point x="192" y="599" type="line"/>
      <point x="181" y="590" type="line"/>
      <point x="439" y="590" type="line"/>
      <point x="471" y="590"/>
      <point x="495" y="613"/>
      <point x="495" y="644" type="curve"/>
      <point x="495" y="676"/>
      <point x="471" y="700"/>
      <point x="439" y="700" type="curve"/>
      <point x="150" y="700" type="line"/>
      <point x="119" y="700"/>
      <point x="95" y="680"/>
      <point x="90" y="652" type="curve"/>
      <point x="59" y="404" type="line"/>
      <point x="54" y="372"/>
      <point x="64" y="319"/>
      <point x="130" y="319" type="curve"/>
      <point x="168" y="319"/>
      <point x="201" y="360"/>
      <point x="264" y="360" type="curve"/>
      <point x="330" y="360"/>
      <point x="389" y="313"/>
      <point x="389" y="238" type="curve"/>
      <point x="389" y="163"/>
      <point x="316" y="99"/>
      <point x="233" y="99" type="curve"/>
      <point x="206" y="99"/>
      <point x="180" y="112"/>
      <point x="159" y="125" type="curve"/>
      <point x="142" y="137"/>
      <point x="126" y="144"/>
      <point x="114" y="144" type="curve"/>
      <point x="78" y="144"/>
      <point x="58" y="119"/>
      <point x="58" y="97" type="curve"/>
      <point x="58" y="76"/>
      <point x="69" y="49"/>
      <point x="86" y="35" type="curve" smooth="yes"/>
      <point x="122" y="6"/>
      <point x="184" y="-10"/>
    </contour>
  </outline>
</glyph>
<glyph name="six" format="2">
  <advance width="548"/>
  <unicode hex="0036"/>
  <note>
six
</note>
  <outline>
    <contour>
      <point x="275" y="-10" type="curve"/>
      <point x="404" y="-10"/>
      <point x="508" y="93"/>
      <point x="508" y="222" type="curve"/>
      <point x="508" y="351"/>
      <point x="396" y="454"/>
      <point x="291" y="454" type="curve"/>
      <point x="210" y="454"/>
      <point x="164" y="402"/>
      <point x="137" y="369" type="curve"/>
      <point x="164" y="368" type="line"/>
      <point x="187" y="478"/>
      <point x="280" y="558"/>
      <point x="372" y="585" type="curve"/>
      <point x="404" y="594"/>
      <point x="425" y="617"/>
      <point x="425" y="647" type="curve"/>
      <point x="425" y="689"/>
      <point x="396" y="703"/>
      <point x="365" y="703" type="curve"/>
      <point x="358" y="703"/>
      <point x="350" y="702"/>
      <point x="342" y="700" type="curve"/>
      <point x="90" y="629"/>
      <point x="40" y="378"/>
      <point x="40" y="263" type="curve"/>
      <point x="40" y="123"/>
      <point x="131" y="-10"/>
    </contour>
    <contour>
      <point x="275" y="100" type="curve"/>
      <point x="211" y="100"/>
      <point x="162" y="153"/>
      <point x="162" y="222" type="curve"/>
      <point x="162" y="291"/>
      <point x="211" y="344"/>
      <point x="275" y="344" type="curve"/>
      <point x="338" y="344"/>
      <point x="388" y="291"/>
      <point x="388" y="222" type="curve"/>
      <point x="388" y="153"/>
      <point x="338" y="100"/>
    </contour>
  </outline>
</glyph>
<glyph name="seven" format="2">
  <advance width="569"/>
  <unicode hex="0037"/>
  <note>
seven
</note>
  <outline>
    <contour>
      <point x="205" y="-5" type="curve"/>
      <point x="228" y="-5"/>
      <point x="250" y="9"/>
      <point x="260" y="33" type="curve"/>
      <point x="523" y="614" type="line"/>
      <point x="527" y="623"/>
      <point x="529" y="632"/>
      <point x="529" y="641" type="curve"/>
      <point x="529" y="676"/>
      <point x="498" y="700"/>
      <point x="464" y="700" type="curve"/>
      <point x="116" y="700" type="line"/>
      <point x="84" y="700"/>
      <point x="60" y="677"/>
      <point x="60" y="646" type="curve"/>
      <point x="60" y="614"/>
      <point x="84" y="590"/>
      <point x="116" y="590" type="curve"/>
      <point x="405" y="590" type="line"/>
      <point x="394" y="617" type="line"/>
      <point x="149" y="80" type="line"/>
      <point x="145" y="71"/>
      <point x="143" y="62"/>
      <point x="143" y="53" type="curve"/>
      <point x="143" y="20"/>
      <point x="172" y="-5"/>
    </contour>
  </outline>
</glyph>
<glyph name="eight" format="2">
  <advance width="588"/>
  <unicode hex="0038"/>
  <note>
eight
</note>
  <outline>
    <contour>
      <point x="406" y="355" type="line"/>
      <point x="449" y="372"/>
      <point x="510" y="412"/>
      <point x="510" y="499" type="curve"/>
      <point x="510" y="611"/>
      <point x="415" y="700"/>
      <point x="294" y="700" type="curve"/>
      <point x="173" y="700"/>
      <point x="77" y="611"/>
      <point x="77" y="499" type="curve"/>
      <point x="77" y="421"/>
      <point x="129" y="374"/>
      <point x="179" y="355" type="curve"/>
      <point x="187" y="383" type="line"/>
      <point x="129" y="353"/>
      <point x="60" y="301"/>
      <point x="60" y="209" type="curve"/>
      <point x="60" y="94"/>
      <point x="164" y="0"/>
      <point x="294" y="0" type="curve"/>
      <point x="424" y="0"/>
      <point x="528" y="94"/>
      <point x="528" y="209" type="curve"/>
      <point x="528" y="277"/>
      <point x="480" y="343"/>
      <point x="404" y="378" type="curve"/>
    </contour>
    <contour>
      <point x="197" y="497" type="curve"/>
      <point x="197" y="550"/>
      <point x="238" y="590"/>
      <point x="294" y="590" type="curve"/>
      <point x="349" y="590"/>
      <point x="390" y="550"/>
      <point x="390" y="497" type="curve"/>
      <point x="390" y="443"/>
      <point x="349" y="403"/>
      <point x="294" y="403" type="curve"/>
      <point x="238" y="403"/>
      <point x="197" y="443"/>
    </contour>
    <contour>
      <point x="294" y="110" type="curve"/>
      <point x="230" y="110"/>
      <point x="180" y="155"/>
      <point x="180" y="211" type="curve"/>
      <point x="180" y="268"/>
      <point x="230" y="313"/>
      <point x="294" y="313" type="curve"/>
      <point x="358" y="313"/>
      <point x="408" y="268"/>
      <point x="408" y="211" type="curve"/>
      <point x="408" y="155"/>
      <point x="358" y="110"/>
    </contour>
  </outline>
</glyph>
<glyph name="nine" format="2">
  <advance width="548"/>
  <unicode hex="0039"/>
  <note>
nine
</note>
  <outline>
    <contour>
      <point x="273" y="713" type="curve"/>
      <point x="144" y="713"/>
      <point x="40" y="610"/>
      <point x="40" y="481" type="curve"/>
      <point x="40" y="352"/>
      <point x="152" y="249"/>
      <point x="257" y="249" type="curve"/>
      <point x="338" y="249"/>
      <point x="384" y="301"/>
      <point x="411" y="334" type="curve"/>
      <point x="384" y="335" type="line"/>
      <point x="361" y="225"/>
      <point x="268" y="145"/>
      <point x="176" y="118" type="curve"/>
      <point x="144" y="109"/>
      <point x="123" y="86"/>
      <point x="123" y="56" type="curve"/>
      <point x="123" y="14"/>
      <point x="152" y="0"/>
      <point x="183" y="0" type="curve"/>
      <point x="190" y="0"/>
      <point x="198" y="1"/>
      <point x="206" y="3" type="curve"/>
      <point x="458" y="74"/>
      <point x="508" y="325"/>
      <point x="508" y="440" type="curve"/>
      <point x="508" y="580"/>
      <point x="417" y="713"/>
    </contour>
    <contour>
      <point x="273" y="603" type="curve"/>
      <point x="337" y="603"/>
      <point x="386" y="550"/>
      <point x="386" y="481" type="curve"/>
      <point x="386" y="412"/>
      <point x="337" y="359"/>
      <point x="273" y="359" type="curve"/>
      <point x="210" y="359"/>
      <point x="160" y="412"/>
      <point x="160" y="481" type="curve"/>
      <point x="160" y="550"/>
      <point x="210" y="603"/>
    </contour>
  </outline>
</glyph>
<glyph name="colon" format="2">
  <advance width="273"/>
  <unicode hex="003A"/>
  <note>
colon
</note>
  <outline>
    <contour>
      <point x="130" y="391" type="curve" smooth="yes"/>
      <point x="143" y="391" type="line" smooth="yes"/>
      <point x="182" y="391"/>
      <point x="203" y="412"/>
      <point x="203" y="451" type="curve" smooth="yes"/>
      <point x="203" y="468" type="line" smooth="yes"/>
      <point x="203" y="507"/>
      <point x="182" y="528"/>
      <point x="143" y="528" type="curve" smooth="yes"/>
      <point x="130" y="528" type="line" smooth="yes"/>
      <point x="91" y="528"/>
      <point x="70" y="507"/>
      <point x="70" y="468" type="curve" smooth="yes"/>
      <point x="70" y="451" type="line" smooth="yes"/>
      <point x="70" y="412"/>
      <point x="91" y="391"/>
    </contour>
    <contour>
      <point x="130" y="0" type="curve" smooth="yes"/>
      <point x="143" y="0" type="line" smooth="yes"/>
      <point x="182" y="0"/>
      <point x="203" y="21"/>
      <point x="203" y="60" type="curve" smooth="yes"/>
      <point x="203" y="77" type="line" smooth="yes"/>
      <point x="203" y="116"/>
      <point x="182" y="137"/>
      <point x="143" y="137" type="curve" smooth="yes"/>
      <point x="130" y="137" type="line" smooth="yes"/>
      <point x="91" y="137"/>
      <point x="70" y="116"/>
      <point x="70" y="77" type="curve" smooth="yes"/>
      <point x="70" y="60" type="line" smooth="yes"/>
      <point x="70" y="21"/>
      <point x="91" y="0"/>
    </contour>
  </outline>
</glyph>
<glyph name="semicolon" format="2">
  <advance width="294"/>
  <unicode hex="003B"/>
  <note>
semicolon
</note>
  <outline>
    <contour>
      <point x="156" y="391" type="curve" smooth="yes"/>
      <point x="169" y="391" type="line" smooth="yes"/>
      <point x="208" y="391"/>
      <point x="229" y="412"/>
      <point x="229" y="451" type="curve" smooth="yes"/>
      <point x="229" y="468" type="line" smooth="yes"/>
      <point x="229" y="507"/>
      <point x="208" y="528"/>
      <point x="169" y="528" type="curve" smooth="yes"/>
      <point x="156" y="528" type="line" smooth="yes"/>
      <point x="117" y="528"/>
      <point x="96" y="507"/>
      <point x="96" y="468" type="curve" smooth="yes"/>
      <point x="96" y="451" type="line" smooth="yes"/>
      <point x="96" y="412"/>
      <point x="117" y="391"/>
    </contour>
    <component base="comma" xOffset="32"/>
  </outline>
</glyph>
<glyph name="less" format="2">
  <advance width="525"/>
  <unicode hex="003C"/>
  <note>
less
</note>
  <outline>
    <contour>
      <point x="424" y="0" type="curve" smooth="yes"/>
      <point x="446" y="0"/>
      <point x="474" y="29"/>
      <point x="474" y="61" type="curve" smooth="yes"/>
      <point x="474" y="76"/>
      <point x="468" y="91"/>
      <point x="452" y="100" type="curve" smooth="yes"/>
      <point x="99" y="311" type="line"/>
      <point x="106" y="211" type="line"/>
      <point x="453" y="412" type="line" smooth="yes"/>
      <point x="468" y="421"/>
      <point x="475" y="434"/>
      <point x="475" y="448" type="curve" smooth="yes"/>
      <point x="475" y="476"/>
      <point x="447" y="508"/>
      <point x="420" y="508" type="curve" smooth="yes"/>
      <point x="406" y="508"/>
      <point x="391" y="501"/>
      <point x="374" y="491" type="curve" smooth="yes"/>
      <point x="49" y="304" type="line" smooth="yes"/>
      <point x="33" y="295"/>
      <point x="25" y="277"/>
      <point x="25" y="258" type="curve" smooth="yes"/>
      <point x="25" y="240"/>
      <point x="33" y="222"/>
      <point x="49" y="212" type="curve" smooth="yes"/>
      <point x="374" y="21" type="line" smooth="yes"/>
      <point x="393" y="10"/>
      <point x="409" y="0"/>
    </contour>
  </outline>
</glyph>
<glyph name="equal" format="2">
  <advance width="619"/>
  <unicode hex="003D"/>
  <note>
equal
</note>
  <outline>
    <contour>
      <point x="109" y="345" type="curve"/>
      <point x="510" y="345" type="line"/>
      <point x="544" y="345"/>
      <point x="569" y="370"/>
      <point x="569" y="401" type="curve"/>
      <point x="569" y="431"/>
      <point x="544" y="455"/>
      <point x="510" y="455" type="curve"/>
      <point x="109" y="455" type="line"/>
      <point x="75" y="455"/>
      <point x="50" y="432"/>
      <point x="50" y="401" type="curve"/>
      <point x="50" y="370"/>
      <point x="75" y="345"/>
    </contour>
    <contour>
      <point x="109" y="151" type="curve"/>
      <point x="510" y="151" type="line"/>
      <point x="544" y="151"/>
      <point x="569" y="176"/>
      <point x="569" y="207" type="curve"/>
      <point x="569" y="237"/>
      <point x="544" y="261"/>
      <point x="510" y="261" type="curve"/>
      <point x="109" y="261" type="line"/>
      <point x="75" y="261"/>
      <point x="50" y="238"/>
      <point x="50" y="207" type="curve"/>
      <point x="50" y="176"/>
      <point x="75" y="151"/>
    </contour>
  </outline>
</glyph>
<glyph name="greater" format="2">
  <advance width="525"/>
  <unicode hex="003E"/>
  <note>
greater
</note>
  <outline>
    <contour>
      <point x="105" y="0" type="curve" smooth="yes"/>
      <point x="119" y="0"/>
      <point x="134" y="7"/>
      <point x="151" y="17" type="curve" smooth="yes"/>
      <point x="476" y="204" type="line" smooth="yes"/>
      <point x="492" y="213"/>
      <point x="500" y="231"/>
      <point x="500" y="250" type="curve" smooth="yes"/>
      <point x="500" y="268"/>
      <point x="492" y="286"/>
      <point x="476" y="296" type="curve" smooth="yes"/>
      <point x="151" y="487" type="line" smooth="yes"/>
      <point x="132" y="498"/>
      <point x="116" y="508"/>
      <point x="101" y="508" type="curve" smooth="yes"/>
      <point x="79" y="508"/>
      <point x="51" y="479"/>
      <point x="51" y="447" type="curve" smooth="yes"/>
      <point x="51" y="432"/>
      <point x="57" y="417"/>
      <point x="73" y="408" type="curve" smooth="yes"/>
      <point x="426" y="197" type="line"/>
      <point x="419" y="297" type="line"/>
      <point x="72" y="96" type="line" smooth="yes"/>
      <point x="57" y="87"/>
      <point x="50" y="74"/>
      <point x="50" y="60" type="curve" smooth="yes"/>
      <point x="50" y="32"/>
      <point x="78" y="0"/>
    </contour>
  </outline>
</glyph>
<glyph name="question" format="2">
  <advance width="527"/>
  <unicode hex="003F"/>
  <note>
question
</note>
  <outline>
    <contour>
      <point x="156" y="316" type="curve" smooth="yes"/>
      <point x="156" y="240" type="line" smooth="yes"/>
      <point x="156" y="205"/>
      <point x="181" y="179"/>
      <point x="216" y="179" type="curve" smooth="yes"/>
      <point x="251" y="179"/>
      <point x="276" y="205"/>
      <point x="276" y="240" type="curve" smooth="yes"/>
      <point x="276" y="277" type="line" smooth="yes"/>
      <point x="276" y="280"/>
      <point x="278" y="281"/>
      <point x="281" y="282" type="curve"/>
      <point x="396" y="300"/>
      <point x="482" y="371"/>
      <point x="482" y="504" type="curve" smooth="yes"/>
      <point x="482" y="637"/>
      <point x="373" y="740"/>
      <point x="236" y="740" type="curve" smooth="yes"/>
      <point x="162" y="740"/>
      <point x="96" y="711"/>
      <point x="48" y="662" type="curve" smooth="yes"/>
      <point x="20" y="634"/>
      <point x="23" y="597"/>
      <point x="55" y="573" type="curve" smooth="yes"/>
      <point x="85" y="550"/>
      <point x="118" y="564"/>
      <point x="139" y="583" type="curve" smooth="yes"/>
      <point x="165" y="606"/>
      <point x="199" y="620"/>
      <point x="236" y="620" type="curve" smooth="yes"/>
      <point x="307" y="620"/>
      <point x="362" y="571"/>
      <point x="362" y="504" type="curve" smooth="yes"/>
      <point x="362" y="412"/>
      <point x="297" y="377"/>
      <point x="216" y="377" type="curve" smooth="yes"/>
      <point x="181" y="377"/>
      <point x="156" y="351"/>
    </contour>
    <contour>
      <point x="211" y="0" type="curve" smooth="yes"/>
      <point x="224" y="0" type="line" smooth="yes"/>
      <point x="263" y="0"/>
      <point x="284" y="21"/>
      <point x="284" y="60" type="curve" smooth="yes"/>
      <point x="284" y="77" type="line" smooth="yes"/>
      <point x="284" y="116"/>
      <point x="263" y="137"/>
      <point x="224" y="137" type="curve" smooth="yes"/>
      <point x="211" y="137" type="line" smooth="yes"/>
      <point x="172" y="137"/>
      <point x="151" y="116"/>
      <point x="151" y="77" type="curve" smooth="yes"/>
      <point x="151" y="60" type="line" smooth="yes"/>
      <point x="151" y="21"/>
      <point x="172" y="0"/>
    </contour>
  </outline>
</glyph>
<glyph name="at" format="2">
  <advance width="964"/>
  <unicode hex="0040"/>
  <note>
at
</note>
  <outline>
    <contour>
      <point x="657" y="55" type="curve"/>
      <point x="825" y="55"/>
      <point x="925" y="233"/>
      <point x="925" y="396" type="curve"/>
      <point x="925" y="568"/>
      <point x="804" y="710"/>
      <point x="576" y="710" type="curve"/>
      <point x="278" y="710"/>
      <point x="40" y="518"/>
      <point x="40" y="206" type="curve"/>
      <point x="40" y="24"/>
      <point x="145" y="-162"/>
      <point x="414" y="-162" type="curve"/>
      <point x="526" y="-162"/>
      <point x="595" y="-127"/>
      <point x="653" y="-98" type="curve"/>
      <point x="685" y="-82"/>
      <point x="696" y="-64"/>
      <point x="688" y="-44" type="curve"/>
      <point x="680" y="-23"/>
      <point x="662" y="-12"/>
      <point x="639" y="-25" type="curve"/>
      <point x="578" y="-60"/>
      <point x="524" y="-84"/>
      <point x="414" y="-84" type="curve"/>
      <point x="204" y="-84"/>
      <point x="120" y="62"/>
      <point x="120" y="206" type="curve"/>
      <point x="120" y="474"/>
      <point x="321" y="632"/>
      <point x="576" y="632" type="curve"/>
      <point x="740" y="632"/>
      <point x="845" y="536"/>
      <point x="845" y="396" type="curve"/>
      <point x="845" y="268"/>
      <point x="780" y="132"/>
      <point x="700" y="132" type="curve"/>
      <point x="675" y="132"/>
      <point x="653" y="151"/>
      <point x="660" y="196" type="curve"/>
      <point x="700" y="448" type="line"/>
      <point x="706" y="485"/>
      <point x="693" y="507"/>
      <point x="647" y="507" type="curve"/>
      <point x="611" y="507"/>
      <point x="595" y="485"/>
      <point x="592" y="467" type="curve"/>
      <point x="571" y="331" type="line"/>
      <point x="598" y="396" type="line"/>
      <point x="593" y="468"/>
      <point x="542" y="510"/>
      <point x="485" y="510" type="curve"/>
      <point x="352" y="510"/>
      <point x="246" y="345"/>
      <point x="246" y="220" type="curve"/>
      <point x="246" y="117"/>
      <point x="320" y="55"/>
      <point x="395" y="55" type="curve"/>
      <point x="460" y="55"/>
      <point x="533" y="81"/>
      <point x="564" y="190" type="curve"/>
      <point x="550" y="222" type="line"/>
      <point x="542" y="177" type="line"/>
      <point x="529" y="106"/>
      <point x="590" y="55"/>
    </contour>
    <contour>
      <point x="426" y="145" type="curve"/>
      <point x="384" y="145"/>
      <point x="358" y="171"/>
      <point x="358" y="222" type="curve"/>
      <point x="358" y="304"/>
      <point x="409" y="420"/>
      <point x="490" y="420" type="curve"/>
      <point x="547" y="420"/>
      <point x="595" y="386"/>
      <point x="553" y="263" type="curve"/>
      <point x="541" y="222"/>
      <point x="495" y="145"/>
    </contour>
  </outline>
</glyph>
<glyph name="A" format="2">
  <advance width="639"/>
  <unicode hex="0041"/>
  <note>
A
</note>
  <anchor x="322" y="0" name="bottom"/>
  <anchor x="579" y="10" name="ogonek"/>
  <anchor x="322" y="700" name="top"/>
  <outline>
    <contour>
      <point x="332" y="543" type="line"/>
      <point x="303" y="537" type="line"/>
      <point x="518" y="36" type="line" smooth="yes"/>
      <point x="529" y="11"/>
      <point x="549" y="-5"/>
      <point x="573" y="-5" type="curve" smooth="yes"/>
      <point x="601" y="-5"/>
      <point x="629" y="18"/>
      <point x="629" y="54" type="curve" smooth="yes"/>
      <point x="629" y="62"/>
      <point x="627" y="70"/>
      <point x="624" y="78" type="curve" smooth="yes"/>
      <point x="378" y="664" type="line" smooth="yes"/>
      <point x="368" y="689"/>
      <point x="346" y="704"/>
      <point x="322" y="704" type="curve"/>
      <point x="296" y="706"/>
      <point x="273" y="691"/>
      <point x="262" y="664" type="curve" smooth="yes"/>
      <point x="13" y="66" type="line"/>
      <point x="11" y="59"/>
      <point x="10" y="53"/>
      <point x="10" y="47" type="curve" smooth="yes"/>
      <point x="10" y="17"/>
      <point x="27" y="-5"/>
      <point x="63" y="-5" type="curve" smooth="yes"/>
      <point x="86" y="-5"/>
      <point x="107" y="10"/>
      <point x="116" y="35" type="curve"/>
    </contour>
    <contour>
      <point x="147" y="157" type="line"/>
      <point x="491" y="157" type="line"/>
      <point x="472" y="272" type="line"/>
      <point x="202" y="272" type="line"/>
    </contour>
  </outline>
</glyph>
<glyph name="B" format="2">
  <advance width="655"/>
  <unicode hex="0042"/>
  <note>
B
</note>
  <anchor x="328" y="0" name="bottom"/>
  <anchor x="328" y="700" name="top"/>
  <outline>
    <contour>
      <point x="388" y="700" type="curve"/>
      <point x="136" y="700" type="line"/>
      <point x="101" y="700"/>
      <point x="75" y="674"/>
      <point x="75" y="639" type="curve"/>
      <point x="75" y="61" type="line"/>
      <point x="75" y="26"/>
      <point x="101" y="0"/>
      <point x="136" y="0" type="curve"/>
      <point x="385" y="0" type="line"/>
      <point x="484" y="0"/>
      <point x="615" y="36"/>
      <point x="615" y="213" type="curve"/>
      <point x="615" y="373"/>
      <point x="462" y="410"/>
      <point x="380" y="410" type="curve"/>
      <point x="376" y="365" type="line"/>
      <point x="508" y="365"/>
      <point x="578" y="428"/>
      <point x="578" y="522" type="curve"/>
      <point x="578" y="639"/>
      <point x="516" y="700"/>
    </contour>
    <contour>
      <point x="370" y="582" type="line"/>
      <point x="417" y="582"/>
      <point x="448" y="557"/>
      <point x="448" y="500" type="curve"/>
      <point x="448" y="452"/>
      <point x="411" y="426"/>
      <point x="373" y="426" type="curve"/>
      <point x="193" y="426" type="line"/>
      <point x="205" y="417" type="line"/>
      <point x="205" y="598" type="line"/>
      <point x="192" y="582" type="line"/>
    </contour>
    <contour>
      <point x="378" y="308" type="line"/>
      <point x="419" y="308"/>
      <point x="485" y="302"/>
      <point x="485" y="213" type="curve"/>
      <point x="485" y="148"/>
      <point x="446" y="115"/>
      <point x="385" y="115" type="curve"/>
      <point x="195" y="115" type="line"/>
      <point x="205" y="105" type="line"/>
      <point x="205" y="316" type="line"/>
      <point x="196" y="308" type="line"/>
    </contour>
  </outline>
</glyph>
<glyph name="C" format="2">
  <advance width="627"/>
  <unicode hex="0043"/>
  <note>
C
</note>
  <anchor x="384" y="0" name="bottom"/>
  <anchor x="364" y="700" name="top"/>
  <outline>
    <contour>
      <point x="565" y="666" type="curve"/>
      <point x="516" y="691"/>
      <point x="459" y="705"/>
      <point x="400" y="705" type="curve"/>
      <point x="191" y="705"/>
      <point x="40" y="556"/>
      <point x="40" y="350" type="curve"/>
      <point x="40" y="112"/>
      <point x="209" y="-10"/>
      <point x="400" y="-10" type="curve"/>
      <point x="457" y="-10"/>
      <point x="514" y="3"/>
      <point x="566" y="29" type="curve"/>
      <point x="599" y="45"/>
      <point x="608" y="85"/>
      <point x="582" y="119" type="curve"/>
      <point x="563" y="143"/>
      <point x="534" y="146"/>
      <point x="506" y="133" type="curve"/>
      <point x="473" y="116"/>
      <point x="436" y="110"/>
      <point x="400" y="110" type="curve"/>
      <point x="269" y="110"/>
      <point x="170" y="187"/>
      <point x="170" y="350" type="curve"/>
      <point x="170" y="489"/>
      <point x="257" y="585"/>
      <point x="400" y="585" type="curve"/>
      <point x="438" y="585"/>
      <point x="474" y="577"/>
      <point x="506" y="562" type="curve"/>
      <point x="534" y="548"/>
      <point x="563" y="550"/>
      <point x="581" y="574" type="curve"/>
      <point x="606" y="605"/>
      <point x="600" y="648"/>
    </contour>
  </outline>
</glyph>
<glyph name="D" format="2">
  <advance width="715"/>
  <unicode hex="0044"/>
  <note>
D
</note>
  <anchor x="318" y="0" name="bottom"/>
  <anchor x="134" y="350" name="center"/>
  <anchor x="308" y="700" name="top"/>
  <outline>
    <contour>
      <point x="375" y="700" type="curve" smooth="yes"/>
      <point x="136" y="700" type="line" smooth="yes"/>
      <point x="101" y="700"/>
      <point x="75" y="674"/>
      <point x="75" y="639" type="curve" smooth="yes"/>
      <point x="75" y="61" type="line" smooth="yes"/>
      <point x="75" y="26"/>
      <point x="101" y="0"/>
      <point x="136" y="0" type="curve" smooth="yes"/>
      <point x="375" y="0" type="line" smooth="yes"/>
      <point x="568" y="0"/>
      <point x="675" y="156"/>
      <point x="675" y="350" type="curve" smooth="yes"/>
      <point x="675" y="543"/>
      <point x="568" y="700"/>
    </contour>
    <contour>
      <point x="365" y="115" type="curve" smooth="yes"/>
      <point x="194" y="115" type="line"/>
      <point x="200" y="104" type="line"/>
      <point x="200" y="594" type="line"/>
      <point x="190" y="585" type="line"/>
      <point x="365" y="585" type="line" smooth="yes"/>
      <point x="491" y="585"/>
      <point x="545" y="476"/>
      <point x="545" y="350" type="curve" smooth="yes"/>
      <point x="545" y="223"/>
      <point x="491" y="115"/>
    </contour>
  </outline>
</glyph>
<glyph name="E" format="2">
  <advance width="572"/>
  <unicode hex="0045"/>
  <note>
E
</note>
  <anchor x="286" y="0" name="bottom"/>
  <anchor x="425" y="10" name="ogonek"/>
  <anchor x="306" y="700" name="top"/>
  <anchor x="20" y="700" name="topleft"/>
  <outline>
    <contour>
      <point x="136" y="700" type="line"/>
      <point x="101" y="700"/>
      <point x="75" y="674"/>
      <point x="75" y="639" type="curve"/>
      <point x="75" y="61" type="line"/>
      <point x="75" y="26"/>
      <point x="101" y="0"/>
      <point x="136" y="0" type="curve"/>
      <point x="471" y="0" type="line"/>
      <point x="506" y="0"/>
      <point x="532" y="23"/>
      <point x="532" y="57" type="curve"/>
      <point x="532" y="87"/>
      <point x="506" y="115"/>
      <point x="471" y="115" type="curve"/>
      <point x="192" y="115" type="line"/>
      <point x="200" y="106" type="line"/>
      <point x="200" y="308" type="line"/>
      <point x="195" y="300" type="line"/>
      <point x="426" y="300" type="line"/>
      <point x="461" y="300"/>
      <point x="487" y="322"/>
      <point x="487" y="356" type="curve"/>
      <point x="487" y="391"/>
      <point x="461" y="415"/>
      <point x="426" y="415" type="curve"/>
      <point x="192" y="415" type="line"/>
      <point x="200" y="407" type="line"/>
      <point x="200" y="602" type="line"/>
      <point x="191" y="585" type="line"/>
      <point x="471" y="585" type="line"/>
      <point x="506" y="585"/>
      <point x="532" y="607"/>
      <point x="532" y="641" type="curve"/>
      <point x="532" y="676"/>
      <point x="506" y="700"/>
      <point x="471" y="700" type="curve"/>
    </contour>
  </outline>
</glyph>
<glyph name="F" format="2">
  <advance width="562"/>
  <unicode hex="0046"/>
  <note>
F
</note>
  <anchor x="281" y="0" name="bottom"/>
  <anchor x="132" y="186" name="center"/>
  <anchor x="281" y="700" name="top"/>
  <outline>
    <contour>
      <point x="138" y="0" type="curve"/>
      <point x="171" y="0"/>
      <point x="200" y="26"/>
      <point x="200" y="61" type="curve"/>
      <point x="200" y="303" type="line"/>
      <point x="191" y="294" type="line"/>
      <point x="416" y="294" type="line"/>
      <point x="451" y="294"/>
      <point x="477" y="321"/>
      <point x="477" y="350" type="curve"/>
      <point x="477" y="385"/>
      <point x="451" y="409"/>
      <point x="416" y="409" type="curve"/>
      <point x="193" y="409" type="line"/>
      <point x="200" y="396" type="line"/>
      <point x="200" y="597" type="line"/>
      <point x="191" y="585" type="line"/>
      <point x="461" y="585" type="line"/>
      <point x="496" y="585"/>
      <point x="522" y="612"/>
      <point x="522" y="641" type="curve"/>
      <point x="522" y="676"/>
      <point x="496" y="700"/>
      <point x="461" y="700" type="curve"/>
      <point x="136" y="700" type="line"/>
      <point x="101" y="700"/>
      <point x="75" y="674"/>
      <point x="75" y="639" type="curve"/>
      <point x="75" y="61" type="line"/>
      <point x="75" y="26"/>
      <point x="100" y="0"/>
    </contour>
  </outline>
</glyph>
<glyph name="G" format="2">
  <advance width="696"/>
  <unicode hex="0047"/>
  <note>
G
</note>
  <anchor x="402" y="0" name="bottom"/>
  <anchor x="388" y="700" name="top"/>
  <outline>
    <contour>
      <point x="405" y="-10" type="curve"/>
      <point x="485" y="-10"/>
      <point x="559" y="13"/>
      <point x="620" y="51" type="curve"/>
      <point x="636" y="61"/>
      <point x="651" y="78"/>
      <point x="651" y="105" type="curve"/>
      <point x="651" y="317" type="line"/>
      <point x="651" y="352"/>
      <point x="626" y="378"/>
      <point x="591" y="378" type="curve"/>
      <point x="427" y="378" type="line"/>
      <point x="392" y="378"/>
      <point x="366" y="353"/>
      <point x="366" y="318" type="curve"/>
      <point x="366" y="283"/>
      <point x="392" y="258"/>
      <point x="427" y="258" type="curve"/>
      <point x="538" y="258" type="line"/>
      <point x="521" y="273" type="line"/>
      <point x="521" y="102" type="line"/>
      <point x="530" y="132" type="line"/>
      <point x="499" y="118"/>
      <point x="445" y="110"/>
      <point x="405" y="110" type="curve"/>
      <point x="275" y="110"/>
      <point x="170" y="219"/>
      <point x="170" y="350" type="curve"/>
      <point x="170" y="482"/>
      <point x="275" y="590"/>
      <point x="405" y="590" type="curve"/>
      <point x="446" y="590"/>
      <point x="484" y="581"/>
      <point x="517" y="567" type="curve"/>
      <point x="528" y="562"/>
      <point x="539" y="559"/>
      <point x="550" y="559" type="curve"/>
      <point x="583" y="559"/>
      <point x="607" y="589"/>
      <point x="607" y="621" type="curve"/>
      <point x="607" y="640"/>
      <point x="597" y="659"/>
      <point x="577" y="670" type="curve"/>
      <point x="528" y="697"/>
      <point x="467" y="710"/>
      <point x="405" y="710" type="curve"/>
      <point x="203" y="710"/>
      <point x="40" y="549"/>
      <point x="40" y="350" type="curve"/>
      <point x="40" y="151"/>
      <point x="203" y="-10"/>
    </contour>
  </outline>
</glyph>
<glyph name="H" format="2">
  <advance width="719"/>
  <unicode hex="0048"/>
  <note>
H
</note>
  <anchor x="360" y="0" name="bottom"/>
  <anchor x="360" y="350" name="center"/>
  <anchor x="360" y="700" name="top"/>
  <anchor x="20" y="700" name="topleft"/>
  <outline>
    <contour>
      <point x="139" y="700" type="curve" smooth="yes"/>
      <point x="101" y="700"/>
      <point x="75" y="674"/>
      <point x="75" y="639" type="curve" smooth="yes"/>
      <point x="75" y="61" type="line" smooth="yes"/>
      <point x="75" y="26"/>
      <point x="100" y="0"/>
      <point x="137" y="0" type="curve" smooth="yes"/>
      <point x="170" y="0"/>
      <point x="200" y="26"/>
      <point x="200" y="61" type="curve" smooth="yes"/>
      <point x="200" y="639" type="line" smooth="yes"/>
      <point x="200" y="674"/>
      <point x="171" y="700"/>
    </contour>
    <contour>
      <point x="582" y="700" type="curve" smooth="yes"/>
      <point x="549" y="700"/>
      <point x="519" y="674"/>
      <point x="519" y="639" type="curve" smooth="yes"/>
      <point x="519" y="61" type="line" smooth="yes"/>
      <point x="519" y="26"/>
      <point x="548" y="0"/>
      <point x="580" y="0" type="curve" smooth="yes"/>
      <point x="618" y="0"/>
      <point x="644" y="26"/>
      <point x="644" y="61" type="curve" smooth="yes"/>
      <point x="644" y="639" type="line" smooth="yes"/>
      <point x="644" y="674"/>
      <point x="619" y="700"/>
    </contour>
    <contour>
      <point x="136" y="409" type="line"/>
      <point x="136" y="294" type="line"/>
      <point x="582" y="294" type="line"/>
      <point x="582" y="409" type="line"/>
    </contour>
  </outline>
</glyph>
<glyph name="I" format="2">
  <advance width="275"/>
  <unicode hex="0049"/>
  <note>
I
</note>
  <anchor x="140" y="0" name="bottom"/>
  <anchor x="252" y="10" name="ogonek"/>
  <anchor x="140" y="700" name="top"/>
  <anchor x="20" y="700" name="topleft"/>
  <outline>
    <contour>
      <point x="200" y="61" type="curve"/>
      <point x="200" y="639" type="line"/>
      <point x="200" y="674"/>
      <point x="171" y="700"/>
      <point x="139" y="700" type="curve"/>
      <point x="101" y="700"/>
      <point x="75" y="674"/>
      <point x="75" y="639" type="curve"/>
      <point x="75" y="61" type="line"/>
      <point x="75" y="26"/>
      <point x="100" y="0"/>
      <point x="137" y="0" type="curve"/>
      <point x="170" y="0"/>
      <point x="200" y="26"/>
    </contour>
  </outline>
</glyph>
<glyph name="J" format="2">
  <advance width="552"/>
  <unicode hex="004A"/>
  <note>
J
</note>
  <anchor x="276" y="0" name="bottom"/>
  <anchor x="415" y="700" name="top"/>
  <outline>
    <contour>
      <point x="238" y="-10" type="curve"/>
      <point x="372" y="-10"/>
      <point x="477" y="97"/>
      <point x="477" y="219" type="curve"/>
      <point x="477" y="639" type="line"/>
      <point x="477" y="674"/>
      <point x="452" y="700"/>
      <point x="415" y="700" type="curve"/>
      <point x="382" y="700"/>
      <point x="352" y="674"/>
      <point x="352" y="639" type="curve"/>
      <point x="352" y="219" type="line"/>
      <point x="352" y="161"/>
      <point x="298" y="110"/>
      <point x="238" y="110" type="curve"/>
      <point x="205" y="110"/>
      <point x="180" y="119"/>
      <point x="154" y="143" type="curve"/>
      <point x="138" y="159"/>
      <point x="118" y="173"/>
      <point x="98" y="173" type="curve" smooth="yes"/>
      <point x="73" y="173"/>
      <point x="40" y="147"/>
      <point x="40" y="114" type="curve" smooth="yes"/>
      <point x="40" y="103"/>
      <point x="44" y="91"/>
      <point x="52" y="79" type="curve"/>
      <point x="93" y="22"/>
      <point x="162" y="-10"/>
    </contour>
  </outline>
</glyph>
<glyph name="K" format="2">
  <advance width="655"/>
  <unicode hex="004B"/>
  <note>
K
</note>
  <anchor x="328" y="0" name="bottom"/>
  <anchor x="328" y="700" name="top"/>
  <outline>
    <contour>
      <point x="557" y="0" type="curve" smooth="yes"/>
      <point x="592" y="0"/>
      <point x="625" y="26"/>
      <point x="625" y="63" type="curve" smooth="yes"/>
      <point x="625" y="76"/>
      <point x="619" y="93"/>
      <point x="611" y="104" type="curve" smooth="yes"/>
      <point x="372" y="420" type="line"/>
      <point x="281" y="327" type="line"/>
      <point x="512" y="23" type="line" smooth="yes"/>
      <point x="523" y="8"/>
      <point x="540" y="0"/>
    </contour>
    <contour>
      <point x="569" y="705" type="curve" smooth="yes"/>
      <point x="552" y="705"/>
      <point x="534" y="696"/>
      <point x="520" y="682" type="curve" smooth="yes"/>
      <point x="182" y="349" type="line"/>
      <point x="187" y="206" type="line"/>
      <point x="606" y="607" type="line" smooth="yes"/>
      <point x="618" y="619"/>
      <point x="624" y="632"/>
      <point x="624" y="646" type="curve" smooth="yes"/>
      <point x="624" y="672"/>
      <point x="601" y="705"/>
    </contour>
    <contour>
      <point x="137" y="0" type="curve"/>
      <point x="175" y="0"/>
      <point x="200" y="26"/>
      <point x="200" y="61" type="curve"/>
      <point x="200" y="639" type="line"/>
      <point x="200" y="674"/>
      <point x="176" y="700"/>
      <point x="139" y="700" type="curve"/>
      <point x="101" y="700"/>
      <point x="75" y="674"/>
      <point x="75" y="639" type="curve"/>
      <point x="75" y="61" type="line"/>
      <point x="75" y="26"/>
      <point x="100" y="0"/>
    </contour>
  </outline>
</glyph>
<glyph name="L" format="2">
  <advance width="562"/>
  <unicode hex="004C"/>
  <note>
L
</note>
  <anchor x="281" y="0" name="bottom"/>
  <anchor x="281" y="350" name="center"/>
  <anchor x="131" y="700" name="top"/>
  <anchor x="542" y="700" name="topright"/>
  <outline>
    <contour>
      <point x="461" y="117" type="curve"/>
      <point x="178" y="117" type="line"/>
      <point x="200" y="100" type="line"/>
      <point x="200" y="639" type="line"/>
      <point x="200" y="674"/>
      <point x="171" y="700"/>
      <point x="139" y="700" type="curve"/>
      <point x="101" y="700"/>
      <point x="75" y="674"/>
      <point x="75" y="639" type="curve"/>
      <point x="75" y="61" type="line"/>
      <point x="75" y="26"/>
      <point x="101" y="0"/>
      <point x="136" y="0" type="curve"/>
      <point x="461" y="0" type="line"/>
      <point x="496" y="0"/>
      <point x="522" y="24"/>
      <point x="522" y="58" type="curve"/>
      <point x="522" y="93"/>
      <point x="496" y="117"/>
    </contour>
  </outline>
</glyph>
<glyph name="M" format="2">
  <advance width="819"/>
  <unicode hex="004D"/>
  <note>
M
</note>
  <anchor x="410" y="0" name="bottom"/>
  <anchor x="410" y="700" name="top"/>
  <outline>
    <contour>
      <point x="138" y="701" type="curve"/>
      <point x="103" y="701"/>
      <point x="75" y="673"/>
      <point x="75" y="640" type="curve"/>
      <point x="75" y="61" type="line"/>
      <point x="75" y="26"/>
      <point x="98" y="0"/>
      <point x="132" y="0" type="curve"/>
      <point x="167" y="0"/>
      <point x="190" y="26"/>
      <point x="190" y="61" type="curve"/>
      <point x="190" y="567" type="line"/>
      <point x="164" y="514" type="line"/>
      <point x="355" y="212" type="line"/>
      <point x="367" y="197"/>
      <point x="386" y="185"/>
      <point x="404" y="186" type="curve"/>
      <point x="423" y="185"/>
      <point x="442" y="197"/>
      <point x="454" y="212" type="curve"/>
      <point x="658" y="523" type="line"/>
      <point x="619" y="532" type="line"/>
      <point x="619" y="61" type="line"/>
      <point x="619" y="26"/>
      <point x="644" y="0"/>
      <point x="682" y="0" type="curve"/>
      <point x="719" y="0"/>
      <point x="744" y="26"/>
      <point x="744" y="61" type="curve"/>
      <point x="744" y="640" type="line"/>
      <point x="744" y="676"/>
      <point x="714" y="701"/>
      <point x="682" y="701" type="curve"/>
      <point x="663" y="701"/>
      <point x="644" y="690"/>
      <point x="633" y="674" type="curve" smooth="yes"/>
      <point x="384" y="302" type="line"/>
      <point x="434" y="300" type="line"/>
      <point x="191" y="674" type="line" smooth="yes"/>
      <point x="180" y="690"/>
      <point x="157" y="701"/>
    </contour>
  </outline>
</glyph>
<glyph name="N" format="2">
  <advance width="735"/>
  <unicode hex="004E"/>
  <note>
N
</note>
  <anchor x="368" y="0" name="bottom"/>
  <anchor x="368" y="700" name="top"/>
  <outline>
    <contour>
      <point x="606" y="700" type="curve"/>
      <point x="573" y="700"/>
      <point x="551" y="676"/>
      <point x="551" y="644" type="curve"/>
      <point x="551" y="180" type="line"/>
      <point x="568" y="192" type="line"/>
      <point x="187" y="678" type="line"/>
      <point x="177" y="692"/>
      <point x="155" y="700"/>
      <point x="136" y="700" type="curve"/>
      <point x="101" y="700"/>
      <point x="75" y="674"/>
      <point x="75" y="639" type="curve"/>
      <point x="75" y="56" type="line"/>
      <point x="75" y="24"/>
      <point x="97" y="0"/>
      <point x="129" y="0" type="curve"/>
      <point x="162" y="0"/>
      <point x="185" y="24"/>
      <point x="185" y="56" type="curve"/>
      <point x="185" y="532" type="line"/>
      <point x="159" y="516" type="line"/>
      <point x="552" y="17" type="line"/>
      <point x="561" y="6"/>
      <point x="582" y="0"/>
      <point x="599" y="0" type="curve"/>
      <point x="634" y="0"/>
      <point x="660" y="26"/>
      <point x="660" y="61" type="curve"/>
      <point x="660" y="644" type="line"/>
      <point x="660" y="676"/>
      <point x="638" y="700"/>
    </contour>
  </outline>
</glyph>
<glyph name="O" format="2">
  <advance width="759"/>
  <unicode hex="004F"/>
  <note>
O
</note>
  <anchor x="380" y="0" name="bottom"/>
  <anchor x="380" y="350" name="center"/>
  <anchor x="683" y="10" name="ogonek"/>
  <anchor x="380" y="700" name="top"/>
  <anchor x="20" y="700" name="topleft"/>
  <anchor x="379" y="710" name="topright"/>
  <outline>
    <contour>
      <point x="719" y="350" type="curve"/>
      <point x="719" y="549"/>
      <point x="577" y="710"/>
      <point x="379" y="710" type="curve"/>
      <point x="181" y="710"/>
      <point x="40" y="549"/>
      <point x="40" y="350" type="curve"/>
      <point x="40" y="151"/>
      <point x="181" y="-10"/>
      <point x="379" y="-10" type="curve"/>
      <point x="577" y="-10"/>
      <point x="719" y="151"/>
    </contour>
    <contour>
      <point x="589" y="350" type="curve"/>
      <point x="589" y="216"/>
      <point x="502" y="110"/>
      <point x="379" y="110" type="curve"/>
      <point x="255" y="110"/>
      <point x="170" y="215"/>
      <point x="170" y="350" type="curve"/>
      <point x="170" y="485"/>
      <point x="255" y="590"/>
      <point x="379" y="590" type="curve"/>
      <point x="502" y="590"/>
      <point x="589" y="484"/>
    </contour>
  </outline>
</glyph>
<glyph name="P" format="2">
  <advance width="603"/>
  <unicode hex="0050"/>
  <note>
P
</note>
  <anchor x="302" y="0" name="bottom"/>
  <anchor x="139" y="157" name="center"/>
  <anchor x="302" y="700" name="top"/>
  <outline>
    <contour>
      <point x="364" y="700" type="curve" smooth="yes"/>
      <point x="136" y="700" type="line" smooth="yes"/>
      <point x="101" y="700"/>
      <point x="75" y="674"/>
      <point x="75" y="639" type="curve" smooth="yes"/>
      <point x="75" y="61" type="line" smooth="yes"/>
      <point x="75" y="26"/>
      <point x="98" y="0"/>
      <point x="132" y="0" type="curve" smooth="yes"/>
      <point x="167" y="0"/>
      <point x="190" y="26"/>
      <point x="190" y="61" type="curve" smooth="yes"/>
      <point x="190" y="268" type="line"/>
      <point x="180" y="250" type="line"/>
      <point x="364" y="250" type="line" smooth="yes"/>
      <point x="468" y="250"/>
      <point x="563" y="351"/>
      <point x="563" y="475" type="curve" smooth="yes"/>
      <point x="563" y="600"/>
      <point x="468" y="700"/>
    </contour>
    <contour>
      <point x="364" y="364" type="curve" smooth="yes"/>
      <point x="179" y="364" type="line"/>
      <point x="190" y="348" type="line"/>
      <point x="190" y="603" type="line"/>
      <point x="178" y="585" type="line"/>
      <point x="364" y="585" type="line" smooth="yes"/>
      <point x="402" y="585"/>
      <point x="443" y="533"/>
      <point x="443" y="475" type="curve" smooth="yes"/>
      <point x="443" y="418"/>
      <point x="402" y="364"/>
    </contour>
  </outline>
</glyph>
<glyph name="Q" format="2">
  <advance width="755"/>
  <unicode hex="0051"/>
  <note>
Q
</note>
  <anchor x="378" y="0" name="bottom"/>
  <anchor x="378" y="700" name="top"/>
  <outline>
    <contour>
      <point x="723" y="-28" type="curve"/>
      <point x="701" y="-28"/>
      <point x="685" y="-45"/>
      <point x="663" y="-62" type="curve" smooth="yes"/>
      <point x="644" y="-77"/>
      <point x="621" y="-91"/>
      <point x="585" y="-91" type="curve"/>
      <point x="498" y="-91"/>
      <point x="458" y="-23"/>
      <point x="365" y="-23" type="curve"/>
      <point x="308" y="-56" type="line"/>
      <point x="502" y="16" type="line"/>
      <point x="412" y="38" type="line"/>
      <point x="205" y="-39" type="line"/>
      <point x="183" y="-47"/>
      <point x="170" y="-64"/>
      <point x="170" y="-91" type="curve"/>
      <point x="170" y="-121"/>
      <point x="196" y="-151"/>
      <point x="229" y="-151" type="curve"/>
      <point x="277" y="-151"/>
      <point x="284" y="-125"/>
      <point x="322" y="-125" type="curve"/>
      <point x="402" y="-125"/>
      <point x="413" y="-200"/>
      <point x="578" y="-200" type="curve"/>
      <point x="653" y="-200"/>
      <point x="780" y="-148"/>
      <point x="780" y="-86" type="curve"/>
      <point x="780" y="-56"/>
      <point x="751" y="-28"/>
    </contour>
    <contour>
      <point x="719" y="350" type="curve"/>
      <point x="719" y="549"/>
      <point x="577" y="710"/>
      <point x="379" y="710" type="curve"/>
      <point x="181" y="710"/>
      <point x="40" y="549"/>
      <point x="40" y="350" type="curve"/>
      <point x="40" y="151"/>
      <point x="181" y="-10"/>
      <point x="379" y="-10" type="curve"/>
      <point x="577" y="-10"/>
      <point x="719" y="151"/>
    </contour>
    <contour>
      <point x="589" y="350" type="curve"/>
      <point x="589" y="216"/>
      <point x="502" y="110"/>
      <point x="379" y="110" type="curve"/>
      <point x="255" y="110"/>
      <point x="170" y="215"/>
      <point x="170" y="350" type="curve"/>
      <point x="170" y="485"/>
      <point x="255" y="590"/>
      <point x="379" y="590" type="curve"/>
      <point x="502" y="590"/>
      <point x="589" y="484"/>
    </contour>
  </outline>
</glyph>
<glyph name="R" format="2">
  <advance width="687"/>
  <unicode hex="0052"/>
  <note>
R
</note>
  <anchor x="344" y="0" name="bottom"/>
  <anchor x="344" y="700" name="top"/>
  <outline>
    <contour>
      <point x="147" y="0" type="curve"/>
      <point x="180" y="0"/>
      <point x="200" y="26"/>
      <point x="200" y="61" type="curve"/>
      <point x="200" y="278" type="line"/>
      <point x="185" y="255" type="line"/>
      <point x="387" y="255" type="line"/>
      <point x="447" y="255"/>
      <point x="478" y="223"/>
      <point x="478" y="177" type="curve"/>
      <point x="478" y="73"/>
      <point x="515" y="30"/>
      <point x="550" y="10" type="curve"/>
      <point x="572" y="-3"/>
      <point x="618" y="-9"/>
      <point x="640" y="17" type="curve"/>
      <point x="662" y="42"/>
      <point x="653" y="81"/>
      <point x="624" y="98" type="curve"/>
      <point x="598" y="112"/>
      <point x="602" y="143"/>
      <point x="595" y="194" type="curve"/>
      <point x="590" y="247"/>
      <point x="563" y="293"/>
      <point x="507" y="324" type="curve"/>
      <point x="506" y="301" type="line"/>
      <point x="572" y="333"/>
      <point x="623" y="409"/>
      <point x="623" y="485" type="curve"/>
      <point x="623" y="610"/>
      <point x="528" y="700"/>
      <point x="424" y="700" type="curve"/>
      <point x="136" y="700" type="line"/>
      <point x="101" y="700"/>
      <point x="75" y="674"/>
      <point x="75" y="639" type="curve"/>
      <point x="75" y="61" type="line"/>
      <point x="75" y="26"/>
      <point x="110" y="0"/>
    </contour>
    <contour>
      <point x="186" y="358" type="line"/>
      <point x="200" y="334" type="line"/>
      <point x="200" y="617" type="line"/>
      <point x="188" y="585" type="line"/>
      <point x="419" y="585" type="line"/>
      <point x="455" y="585"/>
      <point x="493" y="540"/>
      <point x="493" y="482" type="curve"/>
      <point x="493" y="413"/>
      <point x="455" y="358"/>
      <point x="419" y="358" type="curve"/>
    </contour>
  </outline>
</glyph>
<glyph name="S" format="2">
  <advance width="597"/>
  <unicode hex="0053"/>
  <note>
S
</note>
  <anchor x="299" y="0" name="bottom"/>
  <anchor x="299" y="700" name="top"/>
  <outline>
    <contour>
      <point x="300" y="-10" type="curve"/>
      <point x="435" y="-10"/>
      <point x="557" y="69"/>
      <point x="557" y="199" type="curve"/>
      <point x="557" y="335"/>
      <point x="477" y="380"/>
      <point x="316" y="409" type="curve" smooth="yes"/>
      <point x="223" y="426"/>
      <point x="169" y="449"/>
      <point x="169" y="510" type="curve"/>
      <point x="169" y="559"/>
      <point x="214" y="595"/>
      <point x="301" y="595" type="curve"/>
      <point x="352" y="595"/>
      <point x="424" y="566"/>
      <point x="457" y="539" type="curve"/>
      <point x="465" y="533"/>
      <point x="475" y="530"/>
      <point x="484" y="530" type="curve"/>
      <point x="515" y="530"/>
      <point x="541" y="558"/>
      <point x="541" y="588" type="curve"/>
      <point x="541" y="608"/>
      <point x="530" y="627"/>
      <point x="512" y="641" type="curve"/>
      <point x="465" y="681"/>
      <point x="388" y="710"/>
      <point x="301" y="710" type="curve"/>
      <point x="162" y="710"/>
      <point x="51" y="635"/>
      <point x="51" y="505" type="curve"/>
      <point x="51" y="390"/>
      <point x="126" y="322"/>
      <point x="270" y="301" type="curve" smooth="yes"/>
      <point x="384" y="284"/>
      <point x="437" y="252"/>
      <point x="437" y="192" type="curve"/>
      <point x="437" y="142"/>
      <point x="373" y="105"/>
      <point x="300" y="105" type="curve"/>
      <point x="227" y="105"/>
      <point x="183" y="126"/>
      <point x="132" y="168" type="curve"/>
      <point x="122" y="176"/>
      <point x="110" y="180"/>
      <point x="98" y="180" type="curve"/>
      <point x="65" y="180"/>
      <point x="40" y="152"/>
      <point x="40" y="122" type="curve"/>
      <point x="40" y="103"/>
      <point x="50" y="84"/>
      <point x="67" y="69" type="curve"/>
      <point x="135" y="10"/>
      <point x="207" y="-10"/>
    </contour>
  </outline>
</glyph>
<glyph name="T" format="2">
  <advance width="626"/>
  <unicode hex="0054"/>
  <note>
T
</note>
  <anchor x="313" y="0" name="bottom"/>
  <anchor x="313" y="350" name="center"/>
  <anchor x="313" y="700" name="top"/>
  <outline>
    <contour>
      <point x="312" y="0" type="curve" smooth="yes"/>
      <point x="350" y="0"/>
      <point x="378" y="26"/>
      <point x="378" y="61" type="curve" smooth="yes"/>
      <point x="378" y="641" type="line"/>
      <point x="248" y="641" type="line"/>
      <point x="248" y="61" type="line" smooth="yes"/>
      <point x="248" y="26"/>
      <point x="275" y="0"/>
    </contour>
    <contour>
      <point x="91" y="585" type="curve" smooth="yes"/>
      <point x="535" y="585" type="line" smooth="yes"/>
      <point x="570" y="585"/>
      <point x="596" y="607"/>
      <point x="596" y="642" type="curve" smooth="yes"/>
      <point x="596" y="677"/>
      <point x="570" y="700"/>
      <point x="535" y="700" type="curve" smooth="yes"/>
      <point x="91" y="700" type="line" smooth="yes"/>
      <point x="56" y="700"/>
      <point x="30" y="677"/>
      <point x="30" y="643" type="curve" smooth="yes"/>
      <point x="30" y="608"/>
      <point x="56" y="585"/>
    </contour>
  </outline>
</glyph>
<glyph name="U" format="2">
  <advance width="705"/>
  <unicode hex="0055"/>
  <note>
U
</note>
  <anchor x="353" y="0" name="bottom"/>
  <anchor x="634" y="10" name="ogonek"/>
  <anchor x="353" y="700" name="top"/>
  <anchor x="486" y="713" name="topright"/>
  <outline>
    <contour>
      <point x="572" y="701" type="curve"/>
      <point x="537" y="701"/>
      <point x="516" y="675"/>
      <point x="516" y="640" type="curve"/>
      <point x="516" y="278" type="line"/>
      <point x="516" y="178"/>
      <point x="439" y="115"/>
      <point x="353" y="115" type="curve"/>
      <point x="272" y="115"/>
      <point x="199" y="178"/>
      <point x="199" y="278" type="curve"/>
      <point x="199" y="640" type="line"/>
      <point x="199" y="675"/>
      <point x="170" y="701"/>
      <point x="139" y="701" type="curve"/>
      <point x="101" y="701"/>
      <point x="75" y="675"/>
      <point x="75" y="640" type="curve"/>
      <point x="75" y="278" type="line"/>
      <point x="75" y="111"/>
      <point x="189" y="-5"/>
      <point x="353" y="-5" type="curve"/>
      <point x="516" y="-5"/>
      <point x="630" y="111"/>
      <point x="630" y="278" type="curve"/>
      <point x="630" y="640" type="line"/>
      <point x="630" y="675"/>
      <point x="607" y="701"/>
    </contour>
  </outline>
</glyph>
<glyph name="V" format="2">
  <advance width="678"/>
  <unicode hex="0056"/>
  <note>
V
</note>
  <anchor x="339" y="0" name="bottom"/>
  <anchor x="339" y="700" name="top"/>
  <outline>
    <contour>
      <point x="586" y="702" type="curve" smooth="yes"/>
      <point x="563" y="702"/>
      <point x="542" y="688"/>
      <point x="531" y="664" type="curve"/>
      <point x="330" y="148" type="line"/>
      <point x="365" y="149" type="line"/>
      <point x="146" y="664" type="line"/>
      <point x="135" y="689"/>
      <point x="114" y="703"/>
      <point x="91" y="703" type="curve" smooth="yes"/>
      <point x="66" y="703"/>
      <point x="30" y="682"/>
      <point x="30" y="643" type="curve" smooth="yes"/>
      <point x="30" y="635"/>
      <point x="31" y="626"/>
      <point x="35" y="618" type="curve"/>
      <point x="282" y="38" type="line"/>
      <point x="293" y="14"/>
      <point x="314" y="1"/>
      <point x="336" y="0" type="curve"/>
      <point x="359" y="0"/>
      <point x="383" y="12"/>
      <point x="395" y="39" type="curve"/>
      <point x="642" y="617" type="line"/>
      <point x="646" y="626"/>
      <point x="648" y="635"/>
      <point x="648" y="644" type="curve" smooth="yes"/>
      <point x="648" y="677"/>
      <point x="619" y="702"/>
    </contour>
  </outline>
</glyph>
<glyph name="W" format="2">
  <advance width="943"/>
  <unicode hex="0057"/>
  <note>
W
</note>
  <anchor x="472" y="0" name="bottom"/>
  <anchor x="472" y="700" name="top"/>
  <outline>
    <contour>
      <point x="862" y="703" type="curve" smooth="yes"/>
      <point x="836" y="703"/>
      <point x="811" y="689"/>
      <point x="803" y="664" type="curve" smooth="yes"/>
      <point x="646" y="188" type="line"/>
      <point x="662" y="198" type="line"/>
      <point x="532" y="524" type="line" smooth="yes"/>
      <point x="522" y="548"/>
      <point x="501" y="563"/>
      <point x="476" y="562" type="curve"/>
      <point x="450" y="563"/>
      <point x="429" y="548"/>
      <point x="419" y="524" type="curve" smooth="yes"/>
      <point x="277" y="183" type="line"/>
      <point x="299" y="182" type="line"/>
      <point x="140" y="664" type="line" smooth="yes"/>
      <point x="132" y="689"/>
      <point x="107" y="703"/>
      <point x="82" y="703" type="curve" smooth="yes"/>
      <point x="51" y="703"/>
      <point x="16" y="678"/>
      <point x="16" y="638" type="curve" smooth="yes"/>
      <point x="16" y="632"/>
      <point x="17" y="625"/>
      <point x="19" y="618" type="curve" smooth="yes"/>
      <point x="216" y="38" type="line" smooth="yes"/>
      <point x="224" y="14"/>
      <point x="248" y="1"/>
      <point x="270" y="0" type="curve"/>
      <point x="293" y="0"/>
      <point x="317" y="13"/>
      <point x="329" y="39" type="curve" smooth="yes"/>
      <point x="475" y="369" type="line"/>
      <point x="466" y="375" type="line"/>
      <point x="614" y="39" type="line" smooth="yes"/>
      <point x="626" y="13"/>
      <point x="650" y="0"/>
      <point x="673" y="0" type="curve"/>
      <point x="695" y="1"/>
      <point x="719" y="14"/>
      <point x="727" y="38" type="curve" smooth="yes"/>
      <point x="924" y="618" type="line" smooth="yes"/>
      <point x="926" y="625"/>
      <point x="927" y="632"/>
      <point x="927" y="638" type="curve" smooth="yes"/>
      <point x="927" y="678"/>
      <point x="892" y="703"/>
    </contour>
  </outline>
</glyph>
<glyph name="X" format="2">
  <advance width="655"/>
  <unicode hex="0058"/>
  <note>
X
</note>
  <anchor x="328" y="0" name="bottom"/>
  <anchor x="328" y="700" name="top"/>
  <outline>
    <contour>
      <point x="554" y="701" type="curve" smooth="yes"/>
      <point x="536" y="701"/>
      <point x="518" y="690"/>
      <point x="505" y="672" type="curve" smooth="yes"/>
      <point x="328" y="437" type="line"/>
      <point x="396" y="344" type="line"/>
      <point x="597" y="609" type="line" smooth="yes"/>
      <point x="606" y="621"/>
      <point x="610" y="633"/>
      <point x="610" y="645" type="curve" smooth="yes"/>
      <point x="610" y="672"/>
      <point x="584" y="701"/>
    </contour>
    <contour>
      <point x="108" y="703" type="curve" smooth="yes"/>
      <point x="78" y="703"/>
      <point x="47" y="676"/>
      <point x="47" y="642" type="curve" smooth="yes"/>
      <point x="47" y="630"/>
      <point x="51" y="617"/>
      <point x="60" y="606" type="curve" smooth="yes"/>
      <point x="500" y="21" type="line" smooth="yes"/>
      <point x="513" y="4"/>
      <point x="530" y="-5"/>
      <point x="549" y="-5" type="curve" smooth="yes"/>
      <point x="576" y="-5"/>
      <point x="609" y="18"/>
      <point x="609" y="55" type="curve" smooth="yes"/>
      <point x="609" y="68"/>
      <point x="605" y="81"/>
      <point x="597" y="92" type="curve" smooth="yes"/>
      <point x="157" y="677" type="line" smooth="yes"/>
      <point x="144" y="694"/>
      <point x="126" y="703"/>
    </contour>
    <contour>
      <point x="99" y="-5" type="curve" smooth="yes"/>
      <point x="118" y="-5"/>
      <point x="136" y="5"/>
      <point x="149" y="23" type="curve" smooth="yes"/>
      <point x="329" y="267" type="line"/>
      <point x="263" y="364" type="line"/>
      <point x="60" y="89" type="line" smooth="yes"/>
      <point x="50" y="76"/>
      <point x="45" y="62"/>
      <point x="45" y="48" type="curve" smooth="yes"/>
      <point x="45" y="21"/>
      <point x="69" y="-5"/>
    </contour>
  </outline>
</glyph>
<glyph name="Y" format="2">
  <advance width="596"/>
  <unicode hex="0059"/>
  <note>
Y
</note>
  <anchor x="303" y="-1" name="bottom"/>
  <anchor x="298" y="700" name="top"/>
  <anchor x="20" y="700" name="topleft"/>
  <outline>
    <contour>
      <point x="521" y="703" type="curve" smooth="yes"/>
      <point x="503" y="703"/>
      <point x="485" y="693"/>
      <point x="471" y="673" type="curve" smooth="yes"/>
      <point x="294" y="414" type="line"/>
      <point x="322" y="410" type="line"/>
      <point x="130" y="675" type="line" smooth="yes"/>
      <point x="116" y="694"/>
      <point x="99" y="703"/>
      <point x="81" y="703" type="curve" smooth="yes"/>
      <point x="52" y="703"/>
      <point x="17" y="678"/>
      <point x="17" y="642" type="curve" smooth="yes"/>
      <point x="17" y="628"/>
      <point x="22" y="612"/>
      <point x="35" y="595" type="curve" smooth="yes"/>
      <point x="251" y="308" type="line"/>
      <point x="243" y="340" type="line"/>
      <point x="243" y="61" type="line"/>
      <point x="243" y="26"/>
      <point x="270" y="0"/>
      <point x="303" y="0" type="curve"/>
      <point x="334" y="0"/>
      <point x="361" y="26"/>
      <point x="361" y="61" type="curve"/>
      <point x="361" y="348" type="line"/>
      <point x="343" y="279" type="line"/>
      <point x="570" y="604" type="line" smooth="yes"/>
      <point x="578" y="616"/>
      <point x="581" y="629"/>
      <point x="581" y="641" type="curve" smooth="yes"/>
      <point x="581" y="677"/>
      <point x="552" y="703"/>
    </contour>
  </outline>
</glyph>
<glyph name="Z" format="2">
  <advance width="648"/>
  <unicode hex="005A"/>
  <note>
Z
</note>
  <anchor x="324" y="0" name="bottom"/>
  <anchor x="324" y="700" name="top"/>
  <outline>
    <contour>
      <point x="548" y="700" type="curve" smooth="yes"/>
      <point x="139" y="700" type="line" smooth="yes"/>
      <point x="104" y="700"/>
      <point x="78" y="677"/>
      <point x="78" y="643" type="curve" smooth="yes"/>
      <point x="78" y="608"/>
      <point x="104" y="585"/>
      <point x="139" y="585" type="curve" smooth="yes"/>
      <point x="442" y="585" type="line"/>
      <point x="433" y="591" type="line"/>
      <point x="49" y="97" type="line" smooth="yes"/>
      <point x="40" y="85"/>
      <point x="35" y="72"/>
      <point x="35" y="59" type="curve" smooth="yes"/>
      <point x="35" y="29"/>
      <point x="64" y="0"/>
      <point x="99" y="0" type="curve" smooth="yes"/>
      <point x="538" y="0" type="line" smooth="yes"/>
      <point x="573" y="0"/>
      <point x="599" y="24"/>
      <point x="599" y="58" type="curve" smooth="yes"/>
      <point x="599" y="93"/>
      <point x="573" y="115"/>
      <point x="538" y="115" type="curve" smooth="yes"/>
      <point x="204" y="115" type="line"/>
      <point x="216" y="111" type="line"/>
      <point x="599" y="603" type="line" smooth="yes"/>
      <point x="608" y="615"/>
      <point x="613" y="628"/>
      <point x="613" y="641" type="curve" smooth="yes"/>
      <point x="613" y="677"/>
      <point x="577" y="700"/>
    </contour>
  </outline>
</glyph>
<glyph name="bracketleft" format="2">
  <advance width="407"/>
  <unicode hex="005B"/>
  <note>
bracketleft
</note>
  <outline>
    <contour>
      <point x="128" y="-190" type="curve" smooth="yes"/>
      <point x="339" y="-190" type="line" smooth="yes"/>
      <point x="367" y="-190"/>
      <point x="387" y="-170"/>
      <point x="387" y="-143" type="curve" smooth="yes"/>
      <point x="387" y="-115"/>
      <point x="367" y="-95"/>
      <point x="339" y="-95" type="curve" smooth="yes"/>
      <point x="183" y="-95" type="line"/>
      <point x="195" y="-107" type="line"/>
      <point x="195" y="613" type="line"/>
      <point x="190" y="605" type="line"/>
      <point x="339" y="605" type="line" smooth="yes"/>
      <point x="367" y="605"/>
      <point x="387" y="625"/>
      <point x="387" y="652" type="curve" smooth="yes"/>
      <point x="387" y="680"/>
      <point x="367" y="700"/>
      <point x="339" y="700" type="curve" smooth="yes"/>
      <point x="128" y="700" type="line" smooth="yes"/>
      <point x="100" y="700"/>
      <point x="80" y="680"/>
      <point x="80" y="652" type="curve" smooth="yes"/>
      <point x="80" y="-142" type="line" smooth="yes"/>
      <point x="80" y="-170"/>
      <point x="100" y="-190"/>
    </contour>
  </outline>
</glyph>
<glyph name="backslash" format="2">
  <advance width="568"/>
  <unicode hex="005C"/>
  <note>
backslash
</note>
  <outline>
    <contour>
      <point x="484" y="-134" type="curve" smooth="yes"/>
      <point x="504" y="-134"/>
      <point x="537" y="-116"/>
      <point x="537" y="-84" type="curve" smooth="yes"/>
      <point x="537" y="-76"/>
      <point x="535" y="-68"/>
      <point x="531" y="-60" type="curve" smooth="yes"/>
      <point x="125" y="771" type="line" smooth="yes"/>
      <point x="116" y="790"/>
      <point x="99" y="801"/>
      <point x="81" y="801" type="curve" smooth="yes"/>
      <point x="58" y="801"/>
      <point x="29" y="781"/>
      <point x="29" y="751" type="curve" smooth="yes"/>
      <point x="29" y="743"/>
      <point x="31" y="735"/>
      <point x="35" y="727" type="curve" smooth="yes"/>
      <point x="440" y="-104" type="line" smooth="yes"/>
      <point x="449" y="-123"/>
      <point x="466" y="-134"/>
    </contour>
  </outline>
</glyph>
<glyph name="bracketright" format="2">
  <advance width="407"/>
  <unicode hex="005D"/>
  <note>
bracketright
</note>
  <outline>
    <contour>
      <point x="279" y="700" type="curve" smooth="yes"/>
      <point x="68" y="700" type="line" smooth="yes"/>
      <point x="40" y="700"/>
      <point x="20" y="680"/>
      <point x="20" y="653" type="curve" smooth="yes"/>
      <point x="20" y="625"/>
      <point x="40" y="605"/>
      <point x="68" y="605" type="curve" smooth="yes"/>
      <point x="224" y="605" type="line"/>
      <point x="212" y="617" type="line"/>
      <point x="212" y="-103" type="line"/>
      <point x="217" y="-95" type="line"/>
      <point x="68" y="-95" type="line" smooth="yes"/>
      <point x="40" y="-95"/>
      <point x="20" y="-115"/>
      <point x="20" y="-142" type="curve" smooth="yes"/>
      <point x="20" y="-170"/>
      <point x="40" y="-190"/>
      <point x="68" y="-190" type="curve" smooth="yes"/>
      <point x="279" y="-190" type="line" smooth="yes"/>
      <point x="307" y="-190"/>
      <point x="327" y="-170"/>
      <point x="327" y="-142" type="curve" smooth="yes"/>
      <point x="327" y="652" type="line" smooth="yes"/>
      <point x="327" y="680"/>
      <point x="307" y="700"/>
    </contour>
  </outline>
</glyph>
<glyph name="asciicircum" format="2">
  <advance width="618"/>
  <unicode hex="005E"/>
  <note>
asciicircum
</note>
  <outline>
    <contour>
      <point x="113" y="319" type="curve" smooth="yes"/>
      <point x="129" y="319"/>
      <point x="148" y="323"/>
      <point x="158" y="338" type="curve" smooth="yes"/>
      <point x="323" y="603" type="line"/>
      <point x="299" y="599" type="line"/>
      <point x="460" y="338" type="line" smooth="yes"/>
      <point x="469" y="323"/>
      <point x="489" y="319"/>
      <point x="505" y="319" type="curve" smooth="yes"/>
      <point x="539" y="319"/>
      <point x="569" y="348"/>
      <point x="569" y="382" type="curve" smooth="yes"/>
      <point x="569" y="398"/>
      <point x="558" y="412"/>
      <point x="549" y="427" type="curve" smooth="yes"/>
      <point x="391" y="685" type="line" smooth="yes"/>
      <point x="376" y="709"/>
      <point x="350" y="714"/>
      <point x="308" y="714" type="curve"/>
      <point x="272" y="714"/>
      <point x="243" y="711"/>
      <point x="227" y="685" type="curve" smooth="yes"/>
      <point x="70" y="428" type="line" smooth="yes"/>
      <point x="60" y="412"/>
      <point x="50" y="398"/>
      <point x="50" y="382" type="curve" smooth="yes"/>
      <point x="50" y="347"/>
      <point x="80" y="319"/>
    </contour>
  </outline>
</glyph>
<glyph name="underscore" format="2">
  <advance width="704"/>
  <unicode hex="005F"/>
  <note>
underscore
</note>
  <outline>
    <contour>
      <point x="98" y="-160" type="curve" smooth="yes"/>
      <point x="606" y="-160" type="line" smooth="yes"/>
      <point x="634" y="-160"/>
      <point x="654" y="-141"/>
      <point x="654" y="-114" type="curve" smooth="yes"/>
      <point x="654" y="-86"/>
      <point x="634" y="-66"/>
      <point x="606" y="-66" type="curve" smooth="yes"/>
      <point x="98" y="-66" type="line" smooth="yes"/>
      <point x="70" y="-66"/>
      <point x="50" y="-86"/>
      <point x="50" y="-113" type="curve" smooth="yes"/>
      <point x="50" y="-140"/>
      <point x="70" y="-160"/>
    </contour>
  </outline>
</glyph>
<glyph name="grave" format="2">
  <advance width="259"/>
  <unicode hex="0060"/>
  <anchor x="152" y="515" name="_top"/>
  <outline>
    <contour>
      <point x="173" y="600" type="curve" smooth="yes"/>
      <point x="198" y="600"/>
      <point x="215" y="614"/>
      <point x="215" y="636" type="curve" smooth="yes"/>
      <point x="215" y="645"/>
      <point x="211" y="654"/>
      <point x="201" y="663" type="curve" smooth="yes"/>
      <point x="115" y="739" type="line" smooth="yes"/>
      <point x="101" y="751"/>
      <point x="84" y="761"/>
      <point x="66" y="761" type="curve" smooth="yes"/>
      <point x="43" y="761"/>
      <point x="13" y="742"/>
      <point x="13" y="712" type="curve" smooth="yes"/>
      <point x="13" y="692"/>
      <point x="26" y="672"/>
      <point x="50" y="659" type="curve" smooth="yes"/>
      <point x="150" y="606" type="line" smooth="yes"/>
      <point x="158" y="602"/>
      <point x="166" y="600"/>
    </contour>
  </outline>
</glyph>
<glyph name="c" format="2">
  <advance width="515"/>
  <unicode hex="0063"/>
  <note>
c
</note>
  <anchor x="258" y="0" name="bottom"/>
  <anchor x="298" y="515" name="top"/>
  <outline>
    <contour>
      <point x="298" y="545" type="curve"/>
      <point x="144" y="545"/>
      <point x="35" y="431"/>
      <point x="35" y="267" type="curve"/>
      <point x="35" y="110"/>
      <point x="135" y="-10"/>
      <point x="293" y="-10" type="curve"/>
      <point x="398" y="-10"/>
      <point x="493" y="31"/>
      <point x="493" y="81" type="curve" smooth="yes"/>
      <point x="493" y="113"/>
      <point x="474" y="138"/>
      <point x="439" y="138" type="curve"/>
      <point x="409" y="138"/>
      <point x="400" y="122"/>
      <point x="381" y="112" type="curve" smooth="yes"/>
      <point x="365" y="104"/>
      <point x="341" y="100"/>
      <point x="308" y="100" type="curve"/>
      <point x="218" y="100"/>
      <point x="155" y="171"/>
      <point x="155" y="267" type="curve"/>
      <point x="155" y="364"/>
      <point x="213" y="435"/>
      <point x="315" y="435" type="curve" smooth="yes"/>
      <point x="328" y="435"/>
      <point x="362" y="430"/>
      <point x="376" y="422" type="curve" smooth="yes"/>
      <point x="398" y="409"/>
      <point x="407" y="393"/>
      <point x="440" y="393" type="curve"/>
      <point x="470" y="393"/>
      <point x="487" y="421"/>
      <point x="487" y="448" type="curve"/>
      <point x="487" y="507"/>
      <point x="411" y="545"/>
    </contour>
  </outline>
</glyph>
<glyph name="d" format="2">
  <advance width="623"/>
  <unicode hex="0064"/>
  <note>
d
</note>
  <anchor x="312" y="0" name="bottom"/>
  <anchor x="475" y="614" name="center"/>
  <anchor x="312" y="515" name="top"/>
  <anchor x="603" y="515" name="topright"/>
  <outline>
    <contour>
      <point x="498" y="740" type="curve"/>
      <point x="463" y="740"/>
      <point x="438" y="714"/>
      <point x="438" y="679" type="curve"/>
      <point x="438" y="411" type="line"/>
      <point x="474" y="424" type="line"/>
      <point x="474" y="462"/>
      <point x="391" y="545"/>
      <point x="277" y="545" type="curve"/>
      <point x="142" y="545"/>
      <point x="35" y="431"/>
      <point x="35" y="267" type="curve"/>
      <point x="35" y="104"/>
      <point x="142" y="-10"/>
      <point x="281" y="-10" type="curve"/>
      <point x="381" y="-10"/>
      <point x="460" y="67"/>
      <point x="460" y="101" type="curve"/>
      <point x="438" y="110" type="line"/>
      <point x="438" y="61" type="line"/>
      <point x="438" y="26"/>
      <point x="463" y="0"/>
      <point x="498" y="0" type="curve"/>
      <point x="533" y="0"/>
      <point x="558" y="26"/>
      <point x="558" y="61" type="curve"/>
      <point x="558" y="679" type="line"/>
      <point x="558" y="715"/>
      <point x="533" y="740"/>
    </contour>
    <contour>
      <point x="296" y="100" type="curve"/>
      <point x="209" y="100"/>
      <point x="150" y="172"/>
      <point x="150" y="267" type="curve"/>
      <point x="150" y="362"/>
      <point x="209" y="435"/>
      <point x="296" y="435" type="curve"/>
      <point x="384" y="435"/>
      <point x="443" y="362"/>
      <point x="443" y="267" type="curve"/>
      <point x="443" y="172"/>
      <point x="384" y="100"/>
    </contour>
  </outline>
</glyph>
<glyph name="e" format="2">
  <advance width="580"/>
  <unicode hex="0065"/>
  <note>
e
</note>
  <anchor x="290" y="0" name="bottom"/>
  <anchor x="522" y="10" name="ogonek"/>
  <anchor x="288" y="515" name="top"/>
  <outline>
    <contour>
      <point x="312" y="-10" type="curve"/>
      <point x="378" y="-10"/>
      <point x="447" y="16"/>
      <point x="482" y="45" type="curve"/>
      <point x="501" y="60"/>
      <point x="510" y="77"/>
      <point x="510" y="94" type="curve" smooth="yes"/>
      <point x="510" y="120"/>
      <point x="488" y="144"/>
      <point x="459" y="144" type="curve" smooth="yes"/>
      <point x="448" y="144"/>
      <point x="437" y="141"/>
      <point x="425" y="135" type="curve"/>
      <point x="403" y="123"/>
      <point x="379" y="100"/>
      <point x="306" y="100" type="curve"/>
      <point x="226" y="100"/>
      <point x="150" y="159"/>
      <point x="150" y="268" type="curve"/>
      <point x="150" y="398"/>
      <point x="212" y="435"/>
      <point x="292" y="435" type="curve"/>
      <point x="354" y="435"/>
      <point x="412" y="390"/>
      <point x="417" y="333" type="curve"/>
      <point x="417" y="306" type="line"/>
      <point x="439" y="326" type="line"/>
      <point x="72" y="326" type="line"/>
      <point x="102" y="226" type="line"/>
      <point x="484" y="226" type="line"/>
      <point x="516" y="226"/>
      <point x="543" y="248"/>
      <point x="545" y="280" type="curve"/>
      <point x="545" y="424"/>
      <point x="427" y="545"/>
      <point x="292" y="545" type="curve"/>
      <point x="160" y="545"/>
      <point x="35" y="439"/>
      <point x="35" y="260" type="curve"/>
      <point x="35" y="106"/>
      <point x="141" y="-10"/>
    </contour>
  </outline>
</glyph>
<glyph name="f" format="2">
  <advance width="417"/>
  <unicode hex="0066"/>
  <note>
f
</note>
  <anchor x="209" y="0" name="bottom"/>
  <anchor x="209" y="515" name="top"/>
  <outline>
    <contour>
      <point x="340" y="740" type="curve" smooth="yes"/>
      <point x="206" y="740"/>
      <point x="140" y="666"/>
      <point x="140" y="571" type="curve" smooth="yes"/>
      <point x="140" y="61" type="line" smooth="yes"/>
      <point x="140" y="26"/>
      <point x="165" y="0"/>
      <point x="200" y="0" type="curve" smooth="yes"/>
      <point x="235" y="0"/>
      <point x="260" y="26"/>
      <point x="260" y="61" type="curve" smooth="yes"/>
      <point x="260" y="572" type="line" smooth="yes"/>
      <point x="260" y="594"/>
      <point x="271" y="634"/>
      <point x="322" y="634" type="curve" smooth="yes"/>
      <point x="345" y="634"/>
      <point x="372" y="625"/>
      <point x="384" y="625" type="curve" smooth="yes"/>
      <point x="409" y="625"/>
      <point x="432" y="646"/>
      <point x="432" y="679" type="curve" smooth="yes"/>
      <point x="432" y="723"/>
      <point x="384" y="740"/>
    </contour>
    <contour>
      <point x="351" y="525" type="curve" smooth="yes"/>
      <point x="86" y="525" type="line" smooth="yes"/>
      <point x="54" y="525"/>
      <point x="30" y="502"/>
      <point x="30" y="470" type="curve" smooth="yes"/>
      <point x="30" y="438"/>
      <point x="54" y="415"/>
      <point x="86" y="415" type="curve" smooth="yes"/>
      <point x="351" y="415" type="line" smooth="yes"/>
      <point x="383" y="415"/>
      <point x="407" y="438"/>
      <point x="407" y="470" type="curve" smooth="yes"/>
      <point x="407" y="502"/>
      <point x="383" y="525"/>
    </contour>
  </outline>
</glyph>
<glyph name="g" format="2">
  <advance width="633"/>
  <unicode hex="0067"/>
  <note>
g
</note>
  <anchor x="317" y="0" name="bottom"/>
  <anchor x="317" y="515" name="top"/>
  <outline>
    <contour>
      <point x="282" y="545" type="curve"/>
      <point x="144" y="545"/>
      <point x="35" y="431"/>
      <point x="35" y="267" type="curve"/>
      <point x="35" y="104"/>
      <point x="144" y="-10"/>
      <point x="286" y="-10" type="curve"/>
      <point x="383" y="-10"/>
      <point x="460" y="67"/>
      <point x="460" y="101" type="curve"/>
      <point x="448" y="110" type="line"/>
      <point x="448" y="23" type="line"/>
      <point x="448" y="-48"/>
      <point x="401" y="-90"/>
      <point x="301" y="-90" type="curve"/>
      <point x="259" y="-90"/>
      <point x="188" y="-61"/>
      <point x="169" y="-54" type="curve"/>
      <point x="140" y="-44"/>
      <point x="110" y="-57"/>
      <point x="98" y="-96" type="curve"/>
      <point x="89" y="-126"/>
      <point x="104" y="-153"/>
      <point x="144" y="-170" type="curve"/>
      <point x="173" y="-183"/>
      <point x="260" y="-200"/>
      <point x="301" y="-200" type="curve"/>
      <point x="441" y="-200"/>
      <point x="568" y="-135"/>
      <point x="568" y="39" type="curve"/>
      <point x="568" y="484" type="line"/>
      <point x="568" y="520"/>
      <point x="543" y="545"/>
      <point x="508" y="545" type="curve"/>
      <point x="473" y="545"/>
      <point x="448" y="519"/>
      <point x="448" y="484" type="curve"/>
      <point x="448" y="411" type="line"/>
      <point x="474" y="424" type="line"/>
      <point x="474" y="462"/>
      <point x="393" y="545"/>
    </contour>
    <contour>
      <point x="301" y="435" type="curve"/>
      <point x="392" y="435"/>
      <point x="453" y="362"/>
      <point x="453" y="267" type="curve"/>
      <point x="453" y="172"/>
      <point x="392" y="100"/>
      <point x="301" y="100" type="curve"/>
      <point x="211" y="100"/>
      <point x="150" y="172"/>
      <point x="150" y="267" type="curve"/>
      <point x="150" y="362"/>
      <point x="211" y="435"/>
    </contour>
  </outline>
</glyph>
<glyph name="h" format="2">
  <advance width="586"/>
  <unicode hex="0068"/>
  <note>
h
</note>
  <anchor x="293" y="0" name="bottom"/>
  <anchor x="119" y="594" name="center"/>
  <anchor x="125" y="740" name="top"/>
  <outline>
    <contour>
      <point x="346" y="545" type="curve"/>
      <point x="258" y="545"/>
      <point x="194" y="480"/>
      <point x="170" y="434" type="curve"/>
      <point x="185" y="431" type="line"/>
      <point x="185" y="679" type="line"/>
      <point x="185" y="714"/>
      <point x="160" y="740"/>
      <point x="125" y="740" type="curve"/>
      <point x="90" y="740"/>
      <point x="65" y="714"/>
      <point x="65" y="679" type="curve"/>
      <point x="65" y="61" type="line"/>
      <point x="65" y="26"/>
      <point x="90" y="0"/>
      <point x="125" y="0" type="curve"/>
      <point x="160" y="0"/>
      <point x="185" y="26"/>
      <point x="185" y="61" type="curve"/>
      <point x="185" y="317" type="line"/>
      <point x="185" y="382"/>
      <point x="227" y="435"/>
      <point x="304" y="435" type="curve"/>
      <point x="381" y="435"/>
      <point x="401" y="382"/>
      <point x="401" y="317" type="curve"/>
      <point x="401" y="61" type="line"/>
      <point x="401" y="26"/>
      <point x="426" y="0"/>
      <point x="461" y="0" type="curve"/>
      <point x="496" y="0"/>
      <point x="521" y="26"/>
      <point x="521" y="61" type="curve"/>
      <point x="521" y="317" type="line"/>
      <point x="521" y="442"/>
      <point x="489" y="545"/>
    </contour>
  </outline>
</glyph>
<glyph name="k" format="2">
  <advance width="569"/>
  <unicode hex="006B"/>
  <note>
k
</note>
  <anchor x="285" y="0" name="bottom"/>
  <anchor x="285" y="515" name="top"/>
  <outline>
    <contour>
      <point x="135" y="0" type="curve" smooth="yes"/>
      <point x="170" y="0"/>
      <point x="195" y="26"/>
      <point x="195" y="61" type="curve"/>
      <point x="195" y="679" type="line"/>
      <point x="195" y="714"/>
      <point x="170" y="740"/>
      <point x="135" y="740" type="curve" smooth="yes"/>
      <point x="100" y="740"/>
      <point x="75" y="714"/>
      <point x="75" y="679" type="curve" smooth="yes"/>
      <point x="75" y="61" type="line" smooth="yes"/>
      <point x="75" y="26"/>
      <point x="100" y="0"/>
    </contour>
    <contour>
      <point x="453" y="535" type="curve" smooth="yes"/>
      <point x="438" y="535"/>
      <point x="422" y="529"/>
      <point x="409" y="516" type="curve" smooth="yes"/>
      <point x="180" y="295" type="line"/>
      <point x="185" y="157" type="line"/>
      <point x="486" y="434" type="line" smooth="yes"/>
      <point x="502" y="448"/>
      <point x="510" y="464"/>
      <point x="510" y="479" type="curve" smooth="yes"/>
      <point x="510" y="503"/>
      <point x="484" y="535"/>
    </contour>
    <contour>
      <point x="468" y="1" type="curve" smooth="yes"/>
      <point x="495" y="1"/>
      <point x="529" y="25"/>
      <point x="529" y="60" type="curve" smooth="yes"/>
      <point x="529" y="75"/>
      <point x="523" y="91"/>
      <point x="510" y="105" type="curve" smooth="yes"/>
      <point x="330" y="301" type="line"/>
      <point x="239" y="217" type="line"/>
      <point x="424" y="21" type="line" smooth="yes"/>
      <point x="436" y="8"/>
      <point x="452" y="1"/>
    </contour>
  </outline>
</glyph>
<glyph name="l" format="2">
  <advance width="270"/>
  <unicode hex="006C"/>
  <note>
l
</note>
  <anchor x="135" y="0" name="bottom"/>
  <anchor x="135" y="258" name="center"/>
  <anchor x="136" y="740" name="top"/>
  <anchor x="250" y="515" name="topright"/>
  <outline>
    <contour>
      <point x="195" y="61" type="curve" smooth="yes"/>
      <point x="195" y="679" type="line" smooth="yes"/>
      <point x="195" y="714"/>
      <point x="170" y="740"/>
      <point x="136" y="740" type="curve" smooth="yes"/>
      <point x="101" y="740"/>
      <point x="75" y="714"/>
      <point x="75" y="679" type="curve" smooth="yes"/>
      <point x="75" y="61" type="line" smooth="yes"/>
      <point x="75" y="26"/>
      <point x="100" y="0"/>
      <point x="134" y="0" type="curve" smooth="yes"/>
      <point x="169" y="0"/>
      <point x="195" y="26"/>
    </contour>
  </outline>
</glyph>
<glyph name="m" format="2">
  <advance width="922"/>
  <unicode hex="006D"/>
  <note>
m
</note>
  <anchor x="461" y="0" name="bottom"/>
  <anchor x="461" y="515" name="top"/>
  <outline>
    <contour>
      <point x="346" y="545" type="curve"/>
      <point x="258" y="545"/>
      <point x="194" y="480"/>
      <point x="170" y="434" type="curve"/>
      <point x="185" y="431" type="line"/>
      <point x="185" y="474" type="line"/>
      <point x="185" y="509"/>
      <point x="160" y="535"/>
      <point x="125" y="535" type="curve"/>
      <point x="90" y="535"/>
      <point x="65" y="509"/>
      <point x="65" y="474" type="curve"/>
      <point x="65" y="61" type="line"/>
      <point x="65" y="26"/>
      <point x="90" y="0"/>
      <point x="125" y="0" type="curve"/>
      <point x="160" y="0"/>
      <point x="185" y="26"/>
      <point x="185" y="61" type="curve"/>
      <point x="185" y="317" type="line"/>
      <point x="185" y="382"/>
      <point x="227" y="435"/>
      <point x="304" y="435" type="curve"/>
      <point x="381" y="435"/>
      <point x="401" y="382"/>
      <point x="401" y="317" type="curve"/>
      <point x="401" y="61" type="line"/>
      <point x="401" y="26"/>
      <point x="426" y="0"/>
      <point x="461" y="0" type="curve"/>
      <point x="496" y="0"/>
      <point x="521" y="26"/>
      <point x="521" y="61" type="curve"/>
      <point x="521" y="317" type="line"/>
      <point x="521" y="382"/>
      <point x="563" y="435"/>
      <point x="640" y="435" type="curve"/>
      <point x="717" y="435"/>
      <point x="737" y="382"/>
      <point x="737" y="317" type="curve"/>
      <point x="737" y="61" type="line"/>
      <point x="737" y="26"/>
      <point x="762" y="0"/>
      <point x="797" y="0" type="curve"/>
      <point x="832" y="0"/>
      <point x="857" y="26"/>
      <point x="857" y="61" type="curve"/>
      <point x="857" y="317" type="line"/>
      <point x="857" y="442"/>
      <point x="825" y="545"/>
      <point x="682" y="545" type="curve"/>
      <point x="594" y="545"/>
      <point x="529" y="478"/>
      <point x="505" y="432" type="curve"/>
      <point x="497" y="416" type="line"/>
      <point x="514" y="407" type="line"/>
      <point x="498" y="488"/>
      <point x="452" y="545"/>
    </contour>
  </outline>
</glyph>
<glyph name="o" format="2">
  <advance width="614"/>
  <unicode hex="006F"/>
  <note>
o
</note>
  <anchor x="307" y="0" name="bottom"/>
  <anchor x="307" y="258" name="center"/>
  <anchor x="553" y="10" name="ogonek"/>
  <anchor x="307" y="515" name="top"/>
  <anchor x="321" y="545" name="topright"/>
  <outline>
    <contour>
      <point x="579" y="267" type="curve"/>
      <point x="579" y="431"/>
      <point x="458" y="545"/>
      <point x="307" y="545" type="curve"/>
      <point x="155" y="545"/>
      <point x="35" y="431"/>
      <point x="35" y="267" type="curve"/>
      <point x="35" y="103"/>
      <point x="155" y="-10"/>
      <point x="307" y="-10" type="curve"/>
      <point x="458" y="-10"/>
      <point x="579" y="103"/>
    </contour>
    <contour>
      <point x="459" y="267" type="curve"/>
      <point x="459" y="167"/>
      <point x="391" y="100"/>
      <point x="307" y="100" type="curve"/>
      <point x="223" y="100"/>
      <point x="155" y="167"/>
      <point x="155" y="267" type="curve"/>
      <point x="155" y="368"/>
      <point x="223" y="435"/>
      <point x="307" y="435" type="curve"/>
      <point x="391" y="435"/>
      <point x="459" y="368"/>
    </contour>
  </outline>
</glyph>
<glyph name="p" format="2">
  <advance width="623"/>
  <unicode hex="0070"/>
  <note>
p
</note>
  <anchor x="312" y="0" name="bottom"/>
  <anchor x="312" y="515" name="top"/>
  <outline>
    <contour>
      <point x="342" y="545" type="curve"/>
      <point x="248" y="545"/>
      <point x="168" y="468"/>
      <point x="168" y="434" type="curve"/>
      <point x="185" y="425" type="line"/>
      <point x="185" y="474" type="line"/>
      <point x="185" y="509"/>
      <point x="160" y="535"/>
      <point x="125" y="535" type="curve"/>
      <point x="90" y="535"/>
      <point x="65" y="509"/>
      <point x="65" y="474" type="curve"/>
      <point x="65" y="-139" type="line"/>
      <point x="65" y="-175"/>
      <point x="90" y="-200"/>
      <point x="125" y="-200" type="curve"/>
      <point x="160" y="-200"/>
      <point x="185" y="-174"/>
      <point x="185" y="-139" type="curve"/>
      <point x="185" y="124" type="line"/>
      <point x="154" y="111" type="line"/>
      <point x="154" y="73"/>
      <point x="238" y="-10"/>
      <point x="346" y="-10" type="curve"/>
      <point x="481" y="-10"/>
      <point x="588" y="104"/>
      <point x="588" y="268" type="curve"/>
      <point x="588" y="431"/>
      <point x="481" y="545"/>
    </contour>
    <contour>
      <point x="327" y="435" type="curve"/>
      <point x="414" y="435"/>
      <point x="473" y="363"/>
      <point x="473" y="268" type="curve"/>
      <point x="473" y="173"/>
      <point x="414" y="100"/>
      <point x="327" y="100" type="curve"/>
      <point x="239" y="100"/>
      <point x="180" y="173"/>
      <point x="180" y="268" type="curve"/>
      <point x="180" y="363"/>
      <point x="239" y="435"/>
    </contour>
  </outline>
</glyph>
<glyph name="q" format="2">
  <advance width="623"/>
  <unicode hex="0071"/>
  <note>
q
</note>
  <anchor x="312" y="0" name="bottom"/>
  <anchor x="312" y="515" name="top"/>
  <outline>
    <contour>
      <point x="498" y="535" type="curve"/>
      <point x="463" y="535"/>
      <point x="438" y="509"/>
      <point x="438" y="474" type="curve"/>
      <point x="438" y="411" type="line"/>
      <point x="474" y="424" type="line"/>
      <point x="474" y="462"/>
      <point x="391" y="545"/>
      <point x="277" y="545" type="curve"/>
      <point x="142" y="545"/>
      <point x="35" y="431"/>
      <point x="35" y="267" type="curve"/>
      <point x="35" y="104"/>
      <point x="142" y="-10"/>
      <point x="281" y="-10" type="curve"/>
      <point x="381" y="-10"/>
      <point x="460" y="67"/>
      <point x="460" y="101" type="curve"/>
      <point x="438" y="110" type="line"/>
      <point x="438" y="-139" type="line"/>
      <point x="438" y="-174"/>
      <point x="463" y="-200"/>
      <point x="498" y="-200" type="curve"/>
      <point x="533" y="-200"/>
      <point x="558" y="-174"/>
      <point x="558" y="-139" type="curve"/>
      <point x="558" y="474" type="line"/>
      <point x="558" y="510"/>
      <point x="533" y="535"/>
    </contour>
    <contour>
      <point x="296" y="100" type="curve"/>
      <point x="209" y="100"/>
      <point x="150" y="172"/>
      <point x="150" y="267" type="curve"/>
      <point x="150" y="362"/>
      <point x="209" y="435"/>
      <point x="296" y="435" type="curve"/>
      <point x="384" y="435"/>
      <point x="443" y="362"/>
      <point x="443" y="267" type="curve"/>
      <point x="443" y="172"/>
      <point x="384" y="100"/>
    </contour>
  </outline>
</glyph>
<glyph name="r" format="2">
  <advance width="434"/>
  <unicode hex="0072"/>
  <note>
r
</note>
  <anchor x="122" y="0" name="bottom"/>
  <anchor x="217" y="515" name="top"/>
  <outline>
    <contour>
      <point x="125" y="0" type="curve"/>
      <point x="160" y="0"/>
      <point x="185" y="26"/>
      <point x="185" y="61" type="curve"/>
      <point x="185" y="298" type="line"/>
      <point x="185" y="394"/>
      <point x="241" y="440"/>
      <point x="290" y="440" type="curve" smooth="yes"/>
      <point x="317" y="440"/>
      <point x="335" y="426"/>
      <point x="360" y="426" type="curve"/>
      <point x="387" y="426"/>
      <point x="414" y="444"/>
      <point x="414" y="488" type="curve"/>
      <point x="414" y="519"/>
      <point x="383" y="545"/>
      <point x="343" y="545" type="curve"/>
      <point x="275" y="545"/>
      <point x="207" y="512"/>
      <point x="178" y="447" type="curve"/>
      <point x="185" y="380" type="line"/>
      <point x="185" y="474" type="line"/>
      <point x="185" y="509"/>
      <point x="160" y="535"/>
      <point x="125" y="535" type="curve"/>
      <point x="90" y="535"/>
      <point x="65" y="509"/>
      <point x="65" y="474" type="curve"/>
      <point x="65" y="61" type="line"/>
      <point x="65" y="26"/>
      <point x="90" y="0"/>
    </contour>
  </outline>
</glyph>
<glyph name="s" format="2">
  <advance width="482"/>
  <unicode hex="0073"/>
  <note>
s
</note>
  <anchor x="241" y="0" name="bottom"/>
  <anchor x="241" y="515" name="top"/>
  <outline>
    <contour>
      <point x="34" y="83" type="curve"/>
      <point x="86" y="13"/>
      <point x="171" y="-10"/>
      <point x="250" y="-10" type="curve"/>
      <point x="343" y="-10"/>
      <point x="447" y="47"/>
      <point x="447" y="150" type="curve"/>
      <point x="447" y="267"/>
      <point x="352" y="295"/>
      <point x="271" y="317" type="curve"/>
      <point x="212" y="333"/>
      <point x="161" y="346"/>
      <point x="161" y="392" type="curve"/>
      <point x="161" y="442"/>
      <point x="207" y="447"/>
      <point x="237" y="447" type="curve"/>
      <point x="286" y="447"/>
      <point x="325" y="428"/>
      <point x="348" y="399" type="curve"/>
      <point x="365" y="383"/>
      <point x="396" y="380"/>
      <point x="416" y="396" type="curve"/>
      <point x="444" y="419"/>
      <point x="437" y="450"/>
      <point x="422" y="470" type="curve"/>
      <point x="380" y="523"/>
      <point x="301" y="545"/>
      <point x="240" y="545" type="curve"/>
      <point x="142" y="545"/>
      <point x="46" y="486"/>
      <point x="46" y="387" type="curve"/>
      <point x="46" y="269"/>
      <point x="147" y="242"/>
      <point x="230" y="219" type="curve"/>
      <point x="289" y="203"/>
      <point x="339" y="188"/>
      <point x="339" y="145" type="curve"/>
      <point x="339" y="93"/>
      <point x="290" y="87"/>
      <point x="261" y="86" type="curve"/>
      <point x="197" y="86"/>
      <point x="158" y="108"/>
      <point x="120" y="147" type="curve" smooth="yes"/>
      <point x="97" y="170"/>
      <point x="72" y="170"/>
      <point x="51" y="157" type="curve"/>
      <point x="17" y="135"/>
      <point x="21" y="102"/>
    </contour>
  </outline>
</glyph>
<glyph name="t" format="2">
  <advance width="409"/>
  <unicode hex="0074"/>
  <note>
t
</note>
  <anchor x="197" y="0" name="bottom"/>
  <anchor x="197" y="258" name="center"/>
  <anchor x="177" y="645" name="top"/>
  <anchor x="374" y="525" name="topright"/>
  <outline>
    <contour>
      <point x="71" y="525" type="line" smooth="yes"/>
      <point x="39" y="525"/>
      <point x="15" y="502"/>
      <point x="15" y="471" type="curve" smooth="yes"/>
      <point x="15" y="439"/>
      <point x="39" y="415"/>
      <point x="71" y="415" type="curve" smooth="yes"/>
      <point x="308" y="415" type="line" smooth="yes"/>
      <point x="340" y="415"/>
      <point x="364" y="438"/>
      <point x="364" y="469" type="curve" smooth="yes"/>
      <point x="364" y="501"/>
      <point x="340" y="525"/>
      <point x="308" y="525" type="curve" smooth="yes"/>
    </contour>
    <contour>
      <point x="178" y="650" type="curve" smooth="yes"/>
      <point x="143" y="650"/>
      <point x="117" y="624"/>
      <point x="117" y="589" type="curve" smooth="yes"/>
      <point x="117" y="139" type="line" smooth="yes"/>
      <point x="117" y="8"/>
      <point x="208" y="0"/>
      <point x="264" y="0" type="curve" smooth="yes"/>
      <point x="311" y="0"/>
      <point x="360" y="27"/>
      <point x="360" y="64" type="curve" smooth="yes"/>
      <point x="360" y="95"/>
      <point x="341" y="113"/>
      <point x="323" y="113" type="curve" smooth="yes"/>
      <point x="306" y="113"/>
      <point x="294" y="104"/>
      <point x="278" y="104" type="curve" smooth="yes"/>
      <point x="255" y="104"/>
      <point x="237" y="115"/>
      <point x="237" y="144" type="curve" smooth="yes"/>
      <point x="237" y="589" type="line" smooth="yes"/>
      <point x="237" y="624"/>
      <point x="212" y="650"/>
    </contour>
  </outline>
</glyph>
<glyph name="u" format="2">
  <advance width="587"/>
  <unicode hex="0075"/>
  <note>
u
</note>
  <anchor x="294" y="0" name="bottom"/>
  <anchor x="528" y="10" name="ogonek"/>
  <anchor x="294" y="515" name="top"/>
  <anchor x="376" y="547" name="topright"/>
  <outline>
    <contour>
      <point x="462" y="535" type="curve"/>
      <point x="427" y="535"/>
      <point x="402" y="509"/>
      <point x="402" y="474" type="curve"/>
      <point x="402" y="220" type="line"/>
      <point x="402" y="138"/>
      <point x="366" y="100"/>
      <point x="293" y="100" type="curve"/>
      <point x="221" y="100"/>
      <point x="185" y="138"/>
      <point x="185" y="220" type="curve"/>
      <point x="185" y="474" type="line"/>
      <point x="185" y="509"/>
      <point x="160" y="535"/>
      <point x="125" y="535" type="curve"/>
      <point x="90" y="535"/>
      <point x="65" y="509"/>
      <point x="65" y="474" type="curve"/>
      <point x="65" y="220" type="line"/>
      <point x="65" y="78"/>
      <point x="145" y="-10"/>
      <point x="293" y="-10" type="curve"/>
      <point x="441" y="-10"/>
      <point x="522" y="78"/>
      <point x="522" y="220" type="curve"/>
      <point x="522" y="474" type="line"/>
      <point x="522" y="509"/>
      <point x="497" y="535"/>
    </contour>
  </outline>
</glyph>
<glyph name="v" format="2">
  <advance width="562"/>
  <unicode hex="0076"/>
  <note>
v
</note>
  <anchor x="281" y="0" name="bottom"/>
  <anchor x="281" y="515" name="top"/>
  <outline>
    <contour>
      <point x="89" y="535" type="curve"/>
      <point x="53" y="535"/>
      <point x="30" y="506"/>
      <point x="30" y="482" type="curve"/>
      <point x="30" y="467"/>
      <point x="34" y="457"/>
      <point x="37" y="450" type="curve"/>
      <point x="223" y="38" type="line"/>
      <point x="235" y="10"/>
      <point x="260" y="-4"/>
      <point x="286" y="0" type="curve"/>
      <point x="308" y="1"/>
      <point x="327" y="15"/>
      <point x="337" y="38" type="curve"/>
      <point x="524" y="450" type="line"/>
      <point x="528" y="459"/>
      <point x="532" y="471"/>
      <point x="532" y="480" type="curve"/>
      <point x="532" y="510"/>
      <point x="509" y="534"/>
      <point x="476" y="534" type="curve"/>
      <point x="453" y="535"/>
      <point x="434" y="521"/>
      <point x="423" y="496" type="curve"/>
      <point x="273" y="151" type="line"/>
      <point x="295" y="161" type="line"/>
      <point x="148" y="497" type="line"/>
      <point x="137" y="522"/>
      <point x="114" y="535"/>
    </contour>
  </outline>
</glyph>
<glyph name="w" format="2">
  <advance width="768"/>
  <unicode hex="0077"/>
  <note>
w
</note>
  <anchor x="384" y="0" name="bottom"/>
  <anchor x="384" y="515" name="top"/>
  <outline>
    <contour>
      <point x="681" y="535" type="curve"/>
      <point x="652" y="535"/>
      <point x="631" y="522"/>
      <point x="623" y="497" type="curve"/>
      <point x="500" y="167" type="line"/>
      <point x="530" y="171" type="line"/>
      <point x="439" y="418" type="line"/>
      <point x="429" y="442"/>
      <point x="416" y="455"/>
      <point x="387" y="455" type="curve"/>
      <point x="362" y="455"/>
      <point x="343" y="443"/>
      <point x="332" y="418" type="curve"/>
      <point x="241" y="171" type="line"/>
      <point x="266" y="169" type="line"/>
      <point x="145" y="497" type="line"/>
      <point x="137" y="523"/>
      <point x="115" y="535"/>
      <point x="90" y="535" type="curve"/>
      <point x="53" y="535"/>
      <point x="30" y="505"/>
      <point x="30" y="473" type="curve"/>
      <point x="30" y="465"/>
      <point x="31" y="458"/>
      <point x="34" y="450" type="curve"/>
      <point x="187" y="38" type="line"/>
      <point x="196" y="11"/>
      <point x="224" y="-4"/>
      <point x="250" y="0" type="curve"/>
      <point x="272" y="1"/>
      <point x="290" y="15"/>
      <point x="301" y="38" type="curve"/>
      <point x="394" y="322" type="line"/>
      <point x="368" y="323" type="line"/>
      <point x="467" y="38" type="line"/>
      <point x="478" y="15"/>
      <point x="496" y="1"/>
      <point x="518" y="0" type="curve"/>
      <point x="544" y="-4"/>
      <point x="572" y="11"/>
      <point x="581" y="38" type="curve"/>
      <point x="734" y="450" type="line"/>
      <point x="736" y="457"/>
      <point x="738" y="464"/>
      <point x="738" y="473" type="curve"/>
      <point x="738" y="509"/>
      <point x="712" y="535"/>
    </contour>
  </outline>
</glyph>
<glyph name="x" format="2">
  <advance width="487"/>
  <unicode hex="0078"/>
  <note>
x
</note>
  <anchor x="244" y="0" name="bottom"/>
  <anchor x="244" y="515" name="top"/>
  <outline>
    <contour>
      <point x="76" y="535" type="curve" smooth="yes"/>
      <point x="44" y="535"/>
      <point x="15" y="509"/>
      <point x="15" y="475" type="curve" smooth="yes"/>
      <point x="15" y="463"/>
      <point x="19" y="450"/>
      <point x="28" y="439" type="curve" smooth="yes"/>
      <point x="362" y="24" type="line" smooth="yes"/>
      <point x="375" y="7"/>
      <point x="392" y="-2"/>
      <point x="411" y="-2" type="curve" smooth="yes"/>
      <point x="441" y="-2"/>
      <point x="472" y="25"/>
      <point x="472" y="59" type="curve" smooth="yes"/>
      <point x="472" y="71"/>
      <point x="468" y="84"/>
      <point x="459" y="95" type="curve" smooth="yes"/>
      <point x="125" y="510" type="line" smooth="yes"/>
      <point x="112" y="526"/>
      <point x="94" y="535"/>
    </contour>
    <contour>
      <point x="77" y="-1" type="curve" smooth="yes"/>
      <point x="95" y="-1"/>
      <point x="113" y="8"/>
      <point x="125" y="24" type="curve" smooth="yes"/>
      <point x="246" y="177" type="line"/>
      <point x="186" y="277" type="line"/>
      <point x="33" y="90" type="line" smooth="yes"/>
      <point x="23" y="78"/>
      <point x="18" y="65"/>
      <point x="18" y="52" type="curve" smooth="yes"/>
      <point x="18" y="23"/>
      <point x="50" y="-1"/>
    </contour>
    <contour>
      <point x="410" y="535" type="curve" smooth="yes"/>
      <point x="391" y="535"/>
      <point x="375" y="526"/>
      <point x="362" y="508" type="curve" smooth="yes"/>
      <point x="239" y="345" type="line"/>
      <point x="302" y="258" type="line"/>
      <point x="453" y="442" type="line" smooth="yes"/>
      <point x="463" y="454"/>
      <point x="467" y="468"/>
      <point x="467" y="481" type="curve" smooth="yes"/>
      <point x="467" y="509"/>
      <point x="442" y="535"/>
    </contour>
  </outline>
</glyph>
<glyph name="y" format="2">
  <advance width="587"/>
  <unicode hex="0079"/>
  <note>
y
</note>
  <anchor x="582" y="0" name="bottom"/>
  <anchor x="294" y="515" name="top"/>
  <outline>
    <contour>
      <point x="462" y="535" type="curve" smooth="yes"/>
      <point x="427" y="535"/>
      <point x="402" y="509"/>
      <point x="402" y="474" type="curve" smooth="yes"/>
      <point x="402" y="218" type="line" smooth="yes"/>
      <point x="402" y="141"/>
      <point x="362" y="100"/>
      <point x="293" y="100" type="curve" smooth="yes"/>
      <point x="225" y="100"/>
      <point x="185" y="131"/>
      <point x="185" y="218" type="curve" smooth="yes"/>
      <point x="185" y="474" type="line" smooth="yes"/>
      <point x="185" y="509"/>
      <point x="160" y="535"/>
      <point x="125" y="535" type="curve" smooth="yes"/>
      <point x="90" y="535"/>
      <point x="65" y="509"/>
      <point x="65" y="474" type="curve" smooth="yes"/>
      <point x="65" y="182" type="line" smooth="yes"/>
      <point x="65" y="70"/>
      <point x="135" y="-10"/>
      <point x="241" y="-10" type="curve" smooth="yes"/>
      <point x="331" y="-10"/>
      <point x="390" y="22"/>
      <point x="424" y="88" type="curve"/>
      <point x="403" y="112" type="line"/>
      <point x="403" y="45" type="line"/>
      <point x="403" y="-57"/>
      <point x="356" y="-90"/>
      <point x="265" y="-90" type="curve" smooth="yes"/>
      <point x="219" y="-90"/>
      <point x="184" y="-71"/>
      <point x="163" y="-64" type="curve" smooth="yes"/>
      <point x="134" y="-54"/>
      <point x="104" y="-67"/>
      <point x="92" y="-106" type="curve" smooth="yes"/>
      <point x="83" y="-136"/>
      <point x="98" y="-163"/>
      <point x="138" y="-180" type="curve" smooth="yes"/>
      <point x="169" y="-193"/>
      <point x="222" y="-200"/>
      <point x="265" y="-200" type="curve" smooth="yes"/>
      <point x="408" y="-200"/>
      <point x="522" y="-135"/>
      <point x="522" y="49" type="curve" smooth="yes"/>
      <point x="522" y="474" type="line" smooth="yes"/>
      <point x="522" y="509"/>
      <point x="497" y="535"/>
    </contour>
  </outline>
</glyph>
<glyph name="z" format="2">
  <advance width="484"/>
  <unicode hex="007A"/>
  <note>
z
</note>
  <anchor x="242" y="0" name="bottom"/>
  <anchor x="242" y="515" name="top"/>
  <outline>
    <contour>
      <point x="406" y="110" type="curve"/>
      <point x="192" y="110" type="line"/>
      <point x="192" y="104" type="line"/>
      <point x="437" y="421" type="line"/>
      <point x="452" y="439"/>
      <point x="453" y="452"/>
      <point x="454" y="465" type="curve"/>
      <point x="457" y="499"/>
      <point x="432" y="525"/>
      <point x="401" y="525" type="curve"/>
      <point x="93" y="525" type="line"/>
      <point x="61" y="525"/>
      <point x="37" y="502"/>
      <point x="37" y="471" type="curve"/>
      <point x="37" y="439"/>
      <point x="61" y="415"/>
      <point x="93" y="415" type="curve"/>
      <point x="296" y="415" type="line"/>
      <point x="298" y="429" type="line"/>
      <point x="49" y="107" type="line"/>
      <point x="33" y="87"/>
      <point x="31" y="74"/>
      <point x="30" y="54" type="curve"/>
      <point x="29" y="30"/>
      <point x="50" y="0"/>
      <point x="84" y="0" type="curve"/>
      <point x="406" y="0" type="line"/>
      <point x="438" y="0"/>
      <point x="462" y="24"/>
      <point x="462" y="55" type="curve"/>
      <point x="462" y="87"/>
      <point x="438" y="110"/>
    </contour>
  </outline>
</glyph>
<glyph name="braceleft" format="2">
  <advance width="401"/>
  <unicode hex="007B"/>
  <note>
braceleft
</note>
  <outline>
    <contour>
      <point x="345" y="-202" type="curve" smooth="yes"/>
      <point x="368" y="-202"/>
      <point x="386" y="-182"/>
      <point x="386" y="-159" type="curve" smooth="yes"/>
      <point x="386" y="-141"/>
      <point x="373" y="-125"/>
      <point x="352" y="-117" type="curve" smooth="yes"/>
      <point x="272" y="-86"/>
      <point x="259" y="-56"/>
      <point x="259" y="7" type="curve"/>
      <point x="261" y="111" type="line"/>
      <point x="261" y="188"/>
      <point x="219" y="228"/>
      <point x="153" y="250" type="curve"/>
      <point x="153" y="246" type="line"/>
      <point x="219" y="267"/>
      <point x="261" y="307"/>
      <point x="261" y="385" type="curve"/>
      <point x="259" y="489" type="line"/>
      <point x="259" y="552"/>
      <point x="271" y="585"/>
      <point x="352" y="613" type="curve" smooth="yes"/>
      <point x="372" y="620"/>
      <point x="386" y="635"/>
      <point x="386" y="653" type="curve" smooth="yes"/>
      <point x="386" y="680"/>
      <point x="367" y="704"/>
      <point x="330" y="697" type="curve" smooth="yes"/>
      <point x="184" y="668"/>
      <point x="147" y="600"/>
      <point x="147" y="506" type="curve"/>
      <point x="149" y="404" type="line"/>
      <point x="149" y="329"/>
      <point x="112" y="297"/>
      <point x="62" y="294" type="curve"/>
      <point x="56" y="294" type="line"/>
      <point x="31" y="294"/>
      <point x="10" y="275"/>
      <point x="10" y="248" type="curve" smooth="yes"/>
      <point x="10" y="221"/>
      <point x="31" y="202"/>
      <point x="56" y="202" type="curve"/>
      <point x="60" y="202" type="line"/>
      <point x="111" y="200"/>
      <point x="149" y="168"/>
      <point x="149" y="92" type="curve"/>
      <point x="147" y="-10" type="line"/>
      <point x="147" y="-104"/>
      <point x="184" y="-172"/>
      <point x="330" y="-201" type="curve" smooth="yes"/>
      <point x="335" y="-202"/>
      <point x="340" y="-202"/>
    </contour>
  </outline>
</glyph>
<glyph name="braceright" format="2">
  <advance width="401"/>
  <unicode hex="007D"/>
  <note>
braceright
</note>
  <outline>
    <contour>
      <point x="54" y="-201" type="curve" smooth="yes"/>
      <point x="62" y="-201"/>
      <point x="66" y="-200"/>
      <point x="71" y="-199" type="curve" smooth="yes"/>
      <point x="217" y="-170"/>
      <point x="254" y="-102"/>
      <point x="254" y="-8" type="curve"/>
      <point x="252" y="94" type="line"/>
      <point x="252" y="169"/>
      <point x="289" y="201"/>
      <point x="339" y="204" type="curve"/>
      <point x="345" y="204" type="line"/>
      <point x="370" y="204"/>
      <point x="391" y="223"/>
      <point x="391" y="250" type="curve" smooth="yes"/>
      <point x="391" y="277"/>
      <point x="370" y="296"/>
      <point x="345" y="296" type="curve"/>
      <point x="341" y="296" type="line"/>
      <point x="290" y="298"/>
      <point x="252" y="330"/>
      <point x="252" y="406" type="curve"/>
      <point x="254" y="508" type="line"/>
      <point x="254" y="602"/>
      <point x="217" y="670"/>
      <point x="71" y="699" type="curve" smooth="yes"/>
      <point x="66" y="700"/>
      <point x="61" y="700"/>
      <point x="56" y="700" type="curve" smooth="yes"/>
      <point x="33" y="700"/>
      <point x="15" y="680"/>
      <point x="15" y="657" type="curve" smooth="yes"/>
      <point x="15" y="639"/>
      <point x="28" y="623"/>
      <point x="49" y="615" type="curve" smooth="yes"/>
      <point x="129" y="584"/>
      <point x="142" y="554"/>
      <point x="142" y="491" type="curve"/>
      <point x="140" y="387" type="line"/>
      <point x="140" y="310"/>
      <point x="182" y="270"/>
      <point x="248" y="248" type="curve"/>
      <point x="248" y="252" type="line"/>
      <point x="182" y="231"/>
      <point x="140" y="191"/>
      <point x="140" y="113" type="curve"/>
      <point x="142" y="9" type="line"/>
      <point x="142" y="-54"/>
      <point x="130" y="-87"/>
      <point x="49" y="-115" type="curve" smooth="yes"/>
      <point x="29" y="-122"/>
      <point x="15" y="-137"/>
      <point x="15" y="-155" type="curve" smooth="yes"/>
      <point x="15" y="-173"/>
      <point x="29" y="-201"/>
    </contour>
  </outline>
</glyph>
<glyph name="asciitilde" format="2">
  <advance width="540"/>
  <unicode hex="007E"/>
  <note>
asciitilde
</note>
  <outline>
    <contour>
      <point x="376" y="230" type="curve"/>
      <point x="460" y="230"/>
      <point x="490" y="266"/>
      <point x="490" y="320" type="curve" smooth="yes"/>
      <point x="490" y="361"/>
      <point x="465" y="389"/>
      <point x="435" y="389" type="curve" smooth="yes"/>
      <point x="411" y="389"/>
      <point x="391" y="370"/>
      <point x="400" y="340" type="curve" smooth="yes"/>
      <point x="404" y="327"/>
      <point x="394" y="319"/>
      <point x="380" y="319" type="curve"/>
      <point x="344" y="319"/>
      <point x="228" y="381"/>
      <point x="173" y="381" type="curve" smooth="yes"/>
      <point x="89" y="381"/>
      <point x="50" y="355"/>
      <point x="50" y="293" type="curve" smooth="yes"/>
      <point x="50" y="250"/>
      <point x="75" y="222"/>
      <point x="105" y="222" type="curve" smooth="yes"/>
      <point x="129" y="222"/>
      <point x="149" y="241"/>
      <point x="140" y="271" type="curve" smooth="yes"/>
      <point x="136" y="284"/>
      <point x="146" y="292"/>
      <point x="160" y="292" type="curve" smooth="yes"/>
      <point x="196" y="292"/>
      <point x="321" y="230"/>
    </contour>
  </outline>
</glyph>
<glyph name="cent" format="2">
  <advance width="515"/>
  <unicode hex="00A2"/>
  <note>
cent
</note>
  <anchor x="258" y="90" name="bottom"/>
  <anchor x="298" y="605" name="top"/>
  <outline>
    <contour>
      <point x="348" y="61" type="curve"/>
      <point x="348" y="113" type="line"/>
      <point x="338" y="157" type="line"/>
      <point x="338" y="568" type="line"/>
      <point x="348" y="609" type="line"/>
      <point x="348" y="659" type="line"/>
      <point x="348" y="694"/>
      <point x="323" y="720"/>
      <point x="289" y="720" type="curve"/>
      <point x="254" y="720"/>
      <point x="228" y="694"/>
      <point x="228" y="659" type="curve"/>
      <point x="228" y="612" type="line"/>
      <point x="238" y="557" type="line"/>
      <point x="238" y="157" type="line"/>
      <point x="228" y="113" type="line"/>
      <point x="228" y="61" type="line"/>
      <point x="228" y="26"/>
      <point x="253" y="0"/>
      <point x="287" y="0" type="curve"/>
      <point x="322" y="0"/>
      <point x="348" y="26"/>
    </contour>
    <contour>
      <point x="293" y="80" type="curve"/>
      <point x="398" y="80"/>
      <point x="493" y="121"/>
      <point x="493" y="171" type="curve"/>
      <point x="493" y="203"/>
      <point x="474" y="231"/>
      <point x="439" y="231" type="curve"/>
      <point x="409" y="231"/>
      <point x="396" y="217"/>
      <point x="381" y="202" type="curve"/>
      <point x="363" y="183"/>
      <point x="341" y="176"/>
      <point x="299" y="176" type="curve"/>
      <point x="218" y="176"/>
      <point x="155" y="249"/>
      <point x="155" y="357" type="curve"/>
      <point x="155" y="466"/>
      <point x="213" y="536"/>
      <point x="292" y="536" type="curve"/>
      <point x="331" y="536"/>
      <point x="355" y="536"/>
      <point x="376" y="512" type="curve"/>
      <point x="393" y="492"/>
      <point x="407" y="481"/>
      <point x="433" y="481" type="curve"/>
      <point x="470" y="481"/>
      <point x="487" y="511"/>
      <point x="487" y="538" type="curve"/>
      <point x="487" y="597"/>
      <point x="411" y="635"/>
      <point x="298" y="635" type="curve"/>
      <point x="144" y="635"/>
      <point x="35" y="521"/>
      <point x="35" y="357" type="curve"/>
      <point x="35" y="200"/>
      <point x="135" y="80"/>
    </contour>
  </outline>
</glyph>
<glyph name="sterling" format="2">
  <advance width="624"/>
  <unicode hex="00A3"/>
  <note>
sterling
</note>
  <outline>
    <contour>
      <point x="82" y="318" type="curve"/>
      <point x="370" y="318" type="line"/>
      <point x="401" y="318"/>
      <point x="424" y="339"/>
      <point x="424" y="368" type="curve"/>
      <point x="424" y="399"/>
      <point x="401" y="422"/>
      <point x="370" y="422" type="curve"/>
      <point x="82" y="422" type="line"/>
      <point x="51" y="422"/>
      <point x="28" y="401"/>
      <point x="28" y="372" type="curve"/>
      <point x="28" y="341"/>
      <point x="51" y="318"/>
    </contour>
    <contour>
      <point x="204" y="137" type="curve"/>
      <point x="166" y="137"/>
      <point x="103" y="133"/>
      <point x="64" y="117" type="curve"/>
      <point x="31" y="103"/>
      <point x="11" y="80"/>
      <point x="11" y="50" type="curve"/>
      <point x="11" y="19"/>
      <point x="33" y="0"/>
      <point x="57" y="0" type="curve"/>
      <point x="79" y="0"/>
      <point x="88" y="13"/>
      <point x="111" y="20" type="curve" smooth="yes"/>
      <point x="130" y="26"/>
      <point x="162" y="29"/>
      <point x="186" y="29" type="curve"/>
      <point x="235" y="29"/>
      <point x="372" y="-18"/>
      <point x="436" y="-20" type="curve"/>
      <point x="463" y="-21"/>
      <point x="499" y="-18"/>
      <point x="525" y="-9" type="curve"/>
      <point x="580" y="10"/>
      <point x="604" y="33"/>
      <point x="604" y="68" type="curve"/>
      <point x="604" y="97"/>
      <point x="587" y="122"/>
      <point x="555" y="122" type="curve"/>
      <point x="543" y="122"/>
      <point x="526" y="116"/>
      <point x="514" y="110" type="curve"/>
      <point x="495" y="101"/>
      <point x="460" y="87"/>
      <point x="437" y="87" type="curve"/>
      <point x="366" y="87"/>
      <point x="286" y="137"/>
    </contour>
    <contour>
      <point x="203" y="72" type="line"/>
      <point x="235" y="112"/>
      <point x="280" y="169"/>
      <point x="280" y="248" type="curve"/>
      <point x="280" y="322"/>
      <point x="215" y="433"/>
      <point x="215" y="491" type="curve"/>
      <point x="215" y="542"/>
      <point x="252" y="596"/>
      <point x="322" y="596" type="curve"/>
      <point x="361" y="596"/>
      <point x="389" y="584"/>
      <point x="415" y="560" type="curve"/>
      <point x="424" y="551"/>
      <point x="441" y="543"/>
      <point x="459" y="543" type="curve"/>
      <point x="491" y="543"/>
      <point x="519" y="571"/>
      <point x="519" y="604" type="curve"/>
      <point x="519" y="630"/>
      <point x="497" y="655"/>
      <point x="462" y="675" type="curve"/>
      <point x="425" y="696"/>
      <point x="375" y="710"/>
      <point x="321" y="710" type="curve"/>
      <point x="176" y="710"/>
      <point x="91" y="619"/>
      <point x="91" y="494" type="curve"/>
      <point x="91" y="417"/>
      <point x="156" y="323"/>
      <point x="156" y="217" type="curve"/>
      <point x="156" y="155"/>
      <point x="134" y="111"/>
      <point x="109" y="95" type="curve"/>
    </contour>
  </outline>
</glyph>
<glyph name="currency" format="2">
  <advance width="579"/>
  <unicode hex="00A4"/>
  <note>
currency
</note>
  <outline>
    <contour>
      <point x="128" y="529" type="curve" smooth="yes"/>
      <point x="98" y="529"/>
      <point x="63" y="489"/>
      <point x="63" y="462" type="curve" smooth="yes"/>
      <point x="63" y="448"/>
      <point x="69" y="434"/>
      <point x="84" y="419" type="curve"/>
      <point x="152" y="350" type="line"/>
      <point x="181" y="379"/>
      <point x="211" y="409"/>
      <point x="240" y="438" type="curve"/>
      <point x="171" y="508" type="line"/>
      <point x="156" y="523"/>
      <point x="142" y="529"/>
    </contour>
    <contour>
      <point x="445" y="527" type="curve" smooth="yes"/>
      <point x="431" y="527"/>
      <point x="417" y="521"/>
      <point x="403" y="507" type="curve"/>
      <point x="333" y="437" type="line"/>
      <point x="362" y="408"/>
      <point x="391" y="379"/>
      <point x="420" y="350" type="curve"/>
      <point x="491" y="420" type="line"/>
      <point x="506" y="435"/>
      <point x="512" y="449"/>
      <point x="512" y="463" type="curve" smooth="yes"/>
      <point x="512" y="493"/>
      <point x="476" y="527"/>
    </contour>
    <contour>
      <point x="446" y="78" type="curve" smooth="yes"/>
      <point x="476" y="78"/>
      <point x="510" y="116"/>
      <point x="510" y="145" type="curve" smooth="yes"/>
      <point x="510" y="158"/>
      <point x="504" y="173"/>
      <point x="490" y="187" type="curve"/>
      <point x="423" y="255" type="line"/>
      <point x="394" y="226"/>
      <point x="364" y="196"/>
      <point x="335" y="167" type="curve"/>
      <point x="403" y="100" type="line"/>
      <point x="418" y="85"/>
      <point x="433" y="78"/>
    </contour>
    <contour>
      <point x="128" y="80" type="curve" smooth="yes"/>
      <point x="142" y="80"/>
      <point x="156" y="86"/>
      <point x="171" y="101" type="curve"/>
      <point x="242" y="172" type="line"/>
      <point x="213" y="201"/>
      <point x="184" y="230"/>
      <point x="155" y="259" type="curve"/>
      <point x="84" y="188" type="line"/>
      <point x="68" y="172"/>
      <point x="62" y="158"/>
      <point x="62" y="144" type="curve" smooth="yes"/>
      <point x="62" y="114"/>
      <point x="99" y="80"/>
    </contour>
    <contour>
      <point x="289" y="113" type="curve"/>
      <point x="394" y="113"/>
      <point x="479" y="198"/>
      <point x="479" y="303" type="curve"/>
      <point x="479" y="408"/>
      <point x="394" y="493"/>
      <point x="289" y="493" type="curve"/>
      <point x="184" y="493"/>
      <point x="100" y="408"/>
      <point x="100" y="303" type="curve"/>
      <point x="100" y="198"/>
      <point x="184" y="113"/>
    </contour>
    <contour>
      <point x="290" y="224" type="curve"/>
      <point x="245" y="224"/>
      <point x="220" y="259"/>
      <point x="220" y="303" type="curve"/>
      <point x="220" y="348"/>
      <point x="245" y="383"/>
      <point x="290" y="383" type="curve"/>
      <point x="335" y="383"/>
      <point x="359" y="348"/>
      <point x="359" y="303" type="curve"/>
      <point x="359" y="259"/>
      <point x="335" y="224"/>
    </contour>
  </outline>
</glyph>
<glyph name="yen" format="2">
  <advance width="596"/>
  <unicode hex="00A5"/>
  <note>
yen
</note>
  <anchor x="303" y="-1" name="bottom"/>
  <anchor x="298" y="700" name="top"/>
  <anchor x="20" y="700" name="topleft"/>
  <outline>
    <contour>
      <point x="164" y="114" type="curve"/>
      <point x="458" y="114" type="line"/>
      <point x="493" y="114"/>
      <point x="519" y="136"/>
      <point x="519" y="167" type="curve"/>
      <point x="519" y="197"/>
      <point x="493" y="219"/>
      <point x="458" y="219" type="curve"/>
      <point x="164" y="219" type="line"/>
      <point x="129" y="219"/>
      <point x="103" y="197"/>
      <point x="103" y="167" type="curve"/>
      <point x="103" y="136"/>
      <point x="129" y="114"/>
    </contour>
    <contour>
      <point x="162" y="258" type="curve"/>
      <point x="456" y="258" type="line"/>
      <point x="491" y="258"/>
      <point x="517" y="280"/>
      <point x="517" y="311" type="curve"/>
      <point x="517" y="341"/>
      <point x="491" y="363"/>
      <point x="456" y="363" type="curve"/>
      <point x="162" y="363" type="line"/>
      <point x="127" y="363"/>
      <point x="101" y="341"/>
      <point x="101" y="311" type="curve"/>
      <point x="101" y="280"/>
      <point x="127" y="258"/>
    </contour>
    <contour>
      <point x="521" y="703" type="curve" smooth="yes"/>
      <point x="503" y="703"/>
      <point x="483" y="693"/>
      <point x="471" y="673" type="curve" smooth="yes"/>
      <point x="296" y="389" type="line"/>
      <point x="324" y="385" type="line"/>
      <point x="136" y="675" type="line" smooth="yes"/>
      <point x="123" y="694"/>
      <point x="105" y="703"/>
      <point x="87" y="703" type="curve" smooth="yes"/>
      <point x="58" y="703"/>
      <point x="17" y="678"/>
      <point x="17" y="642" type="curve" smooth="yes"/>
      <point x="17" y="628"/>
      <point x="22" y="612"/>
      <point x="35" y="595" type="curve" smooth="yes"/>
      <point x="246" y="308" type="line"/>
      <point x="238" y="340" type="line"/>
      <point x="238" y="61" type="line"/>
      <point x="238" y="26"/>
      <point x="265" y="0"/>
      <point x="303" y="0" type="curve"/>
      <point x="341" y="0"/>
      <point x="368" y="26"/>
      <point x="368" y="61" type="curve"/>
      <point x="368" y="348" type="line"/>
      <point x="350" y="279" type="line"/>
      <point x="570" y="604" type="line" smooth="yes"/>
      <point x="578" y="616"/>
      <point x="581" y="629"/>
      <point x="581" y="641" type="curve" smooth="yes"/>
      <point x="581" y="677"/>
      <point x="552" y="703"/>
    </contour>
  </outline>
</glyph>
<glyph name="brokenbar" format="2">
  <advance width="258"/>
  <unicode hex="00A6"/>
  <note>
brokenbar
</note>
  <outline>
    <contour>
      <point x="189" y="467" type="curve" smooth="yes"/>
      <point x="189" y="740" type="line" smooth="yes"/>
      <point x="189" y="775"/>
      <point x="164" y="801"/>
      <point x="130" y="801" type="curve" smooth="yes"/>
      <point x="95" y="801"/>
      <point x="69" y="775"/>
      <point x="69" y="740" type="curve" smooth="yes"/>
      <point x="69" y="467" type="line" smooth="yes"/>
      <point x="69" y="432"/>
      <point x="94" y="406"/>
      <point x="128" y="406" type="curve" smooth="yes"/>
      <point x="163" y="406"/>
      <point x="189" y="432"/>
    </contour>
    <contour>
      <point x="189" y="-64" type="curve" smooth="yes"/>
      <point x="189" y="209" type="line" smooth="yes"/>
      <point x="189" y="244"/>
      <point x="164" y="270"/>
      <point x="130" y="270" type="curve" smooth="yes"/>
      <point x="95" y="270"/>
      <point x="69" y="244"/>
      <point x="69" y="209" type="curve" smooth="yes"/>
      <point x="69" y="-64" type="line" smooth="yes"/>
      <point x="69" y="-99"/>
      <point x="94" y="-125"/>
      <point x="128" y="-125" type="curve" smooth="yes"/>
      <point x="163" y="-125"/>
      <point x="189" y="-99"/>
    </contour>
  </outline>
</glyph>
<glyph name="section" format="2">
  <advance width="559"/>
  <unicode hex="00A7"/>
  <note>
section
</note>
  <outline>
    <contour>
      <point x="529" y="278" type="curve" smooth="yes"/>
      <point x="535" y="363"/>
      <point x="473" y="423"/>
      <point x="343" y="448" type="curve" smooth="yes"/>
      <point x="288" y="459"/>
      <point x="210" y="482"/>
      <point x="210" y="532" type="curve" smooth="yes"/>
      <point x="210" y="570"/>
      <point x="245" y="597"/>
      <point x="299" y="597" type="curve" smooth="yes"/>
      <point x="346" y="597"/>
      <point x="391" y="577"/>
      <point x="426" y="539" type="curve"/>
      <point x="430" y="535"/>
      <point x="436" y="532"/>
      <point x="440" y="532" type="curve"/>
      <point x="483" y="529"/>
      <point x="503" y="558"/>
      <point x="503" y="587" type="curve" smooth="yes"/>
      <point x="503" y="600"/>
      <point x="499" y="615"/>
      <point x="496" y="619" type="curve" smooth="yes"/>
      <point x="453" y="677"/>
      <point x="394" y="708"/>
      <point x="315" y="714" type="curve" smooth="yes"/>
      <point x="219" y="720"/>
      <point x="88" y="656"/>
      <point x="88" y="511" type="curve" smooth="yes"/>
      <point x="88" y="458"/>
      <point x="109" y="409"/>
      <point x="182" y="377" type="curve"/>
      <point x="197" y="435" type="line"/>
      <point x="54" y="425"/>
      <point x="40" y="310"/>
      <point x="40" y="276" type="curve" smooth="yes"/>
      <point x="40" y="190"/>
      <point x="91" y="133"/>
      <point x="198" y="109" type="curve" smooth="yes"/>
      <point x="294" y="87"/>
      <point x="373" y="68"/>
      <point x="373" y="23" type="curve" smooth="yes"/>
      <point x="373" y="-13"/>
      <point x="331" y="-29"/>
      <point x="282" y="-29" type="curve" smooth="yes"/>
      <point x="196" y="-29"/>
      <point x="164" y="0"/>
      <point x="137" y="32" type="curve" smooth="yes"/>
      <point x="117" y="55"/>
      <point x="99" y="56"/>
      <point x="88" y="56" type="curve" smooth="yes"/>
      <point x="57" y="56"/>
      <point x="32" y="34"/>
      <point x="30" y="5" type="curve" smooth="yes"/>
      <point x="28" y="-23"/>
      <point x="38" y="-45"/>
      <point x="55" y="-64" type="curve" smooth="yes"/>
      <point x="97" y="-112"/>
      <point x="202" y="-140"/>
      <point x="282" y="-140" type="curve" smooth="yes"/>
      <point x="462" y="-140"/>
      <point x="495" y="4"/>
      <point x="495" y="49" type="curve" smooth="yes"/>
      <point x="495" y="122"/>
      <point x="460" y="155"/>
      <point x="393" y="196" type="curve"/>
      <point x="301" y="123" type="line"/>
      <point x="443" y="129"/>
      <point x="521" y="168"/>
    </contour>
    <contour>
      <point x="232" y="232" type="line"/>
      <point x="179" y="250"/>
      <point x="173" y="275"/>
      <point x="173" y="289" type="curve" smooth="yes"/>
      <point x="173" y="335"/>
      <point x="214" y="351"/>
      <point x="247" y="339" type="curve"/>
      <point x="371" y="307" type="line"/>
      <point x="393" y="299"/>
      <point x="407" y="283"/>
      <point x="407" y="261" type="curve" smooth="yes"/>
      <point x="407" y="225"/>
      <point x="377" y="202"/>
      <point x="340" y="205" type="curve"/>
    </contour>
  </outline>
</glyph>
<glyph name="dieresis" format="2">
  <advance width="422"/>
  <unicode hex="00A8"/>
  <anchor x="216" y="515" name="_top"/>
  <outline>
    <contour>
      <point x="308" y="600" type="curve"/>
      <point x="353" y="600"/>
      <point x="372" y="610"/>
      <point x="372" y="650" type="curve" smooth="yes"/>
      <point x="372" y="668" type="line" smooth="yes"/>
      <point x="372" y="705"/>
      <point x="354" y="718"/>
      <point x="310" y="718" type="curve"/>
      <point x="270" y="718"/>
      <point x="249" y="706"/>
      <point x="249" y="668" type="curve" smooth="yes"/>
      <point x="249" y="650" type="line" smooth="yes"/>
      <point x="249" y="614"/>
      <point x="267" y="600"/>
    </contour>
    <contour>
      <point x="109" y="600" type="curve"/>
      <point x="154" y="600"/>
      <point x="173" y="610"/>
      <point x="173" y="650" type="curve" smooth="yes"/>
      <point x="173" y="668" type="line" smooth="yes"/>
      <point x="173" y="706"/>
      <point x="156" y="718"/>
      <point x="109" y="718" type="curve"/>
      <point x="70" y="718"/>
      <point x="50" y="705"/>
      <point x="50" y="668" type="curve" smooth="yes"/>
      <point x="50" y="650" type="line" smooth="yes"/>
      <point x="50" y="614"/>
      <point x="68" y="600"/>
    </contour>
  </outline>
</glyph>
<glyph name="copyright" format="2">
  <advance width="780"/>
  <unicode hex="00A9"/>
  <note>
copyright
</note>
  <outline>
    <contour>
      <point x="390" y="-10" type="curve" smooth="yes"/>
      <point x="588" y="-10"/>
      <point x="750" y="152"/>
      <point x="750" y="350" type="curve" smooth="yes"/>
      <point x="750" y="549"/>
      <point x="588" y="710"/>
      <point x="390" y="710" type="curve" smooth="yes"/>
      <point x="192" y="710"/>
      <point x="30" y="549"/>
      <point x="30" y="350" type="curve" smooth="yes"/>
      <point x="30" y="152"/>
      <point x="192" y="-10"/>
    </contour>
    <contour>
      <point x="390" y="64" type="curve" smooth="yes"/>
      <point x="232" y="64"/>
      <point x="104" y="192"/>
      <point x="104" y="350" type="curve" smooth="yes"/>
      <point x="104" y="509"/>
      <point x="233" y="636"/>
      <point x="390" y="636" type="curve" smooth="yes"/>
      <point x="548" y="636"/>
      <point x="676" y="509"/>
      <point x="676" y="350" type="curve" smooth="yes"/>
      <point x="676" y="192"/>
      <point x="548" y="64"/>
    </contour>
    <contour>
      <point x="407" y="136" type="curve" smooth="yes"/>
      <point x="441" y="136"/>
      <point x="476" y="143"/>
      <point x="508" y="159" type="curve" smooth="yes"/>
      <point x="532" y="171"/>
      <point x="539" y="203"/>
      <point x="521" y="227" type="curve"/>
      <point x="507" y="244"/>
      <point x="483" y="247"/>
      <point x="465" y="238" type="curve"/>
      <point x="446" y="230"/>
      <point x="427" y="226"/>
      <point x="407" y="226" type="curve" smooth="yes"/>
      <point x="341" y="226"/>
      <point x="276" y="271"/>
      <point x="276" y="350" type="curve" smooth="yes"/>
      <point x="276" y="417"/>
      <point x="335" y="474"/>
      <point x="407" y="474" type="curve" smooth="yes"/>
      <point x="428" y="474"/>
      <point x="447" y="470"/>
      <point x="465" y="462" type="curve"/>
      <point x="483" y="452"/>
      <point x="507" y="455"/>
      <point x="521" y="472" type="curve"/>
      <point x="537" y="493"/>
      <point x="533" y="528"/>
      <point x="507" y="540" type="curve"/>
      <point x="479" y="555"/>
      <point x="442" y="564"/>
      <point x="407" y="564" type="curve" smooth="yes"/>
      <point x="286" y="564"/>
      <point x="186" y="466"/>
      <point x="186" y="350" type="curve" smooth="yes"/>
      <point x="186" y="215"/>
      <point x="298" y="136"/>
    </contour>
  </outline>
</glyph>
<glyph name="ordfeminine" format="2">
  <advance width="354"/>
  <unicode hex="00AA"/>
  <note>
ordfeminine
</note>
  <outline>
    <contour>
      <point x="139" y="391" type="curve"/>
      <point x="209" y="391"/>
      <point x="248" y="466"/>
      <point x="248" y="516" type="curve"/>
      <point x="234" y="474" type="line"/>
      <point x="234" y="441" type="line"/>
      <point x="234" y="418"/>
      <point x="254" y="401"/>
      <point x="284" y="401" type="curve"/>
      <point x="310" y="401"/>
      <point x="334" y="417"/>
      <point x="334" y="441" type="curve"/>
      <point x="334" y="684" type="line"/>
      <point x="334" y="705"/>
      <point x="314" y="724"/>
      <point x="284" y="724" type="curve"/>
      <point x="254" y="724"/>
      <point x="234" y="704"/>
      <point x="234" y="684" type="curve"/>
      <point x="234" y="657" type="line"/>
      <point x="248" y="596" type="line"/>
      <point x="248" y="684"/>
      <point x="214" y="725"/>
      <point x="153" y="725" type="curve"/>
      <point x="62" y="725"/>
      <point x="10" y="653"/>
      <point x="10" y="565" type="curve"/>
      <point x="10" y="470"/>
      <point x="52" y="391"/>
    </contour>
    <contour>
      <point x="177" y="469" type="curve"/>
      <point x="130" y="469"/>
      <point x="110" y="513"/>
      <point x="110" y="565" type="curve"/>
      <point x="110" y="609"/>
      <point x="138" y="647"/>
      <point x="173" y="647" type="curve"/>
      <point x="215" y="647"/>
      <point x="238" y="611"/>
      <point x="238" y="555" type="curve"/>
      <point x="238" y="500"/>
      <point x="209" y="469"/>
    </contour>
  </outline>
</glyph>
<glyph name="logicalnot" format="2">
  <advance width="682"/>
  <unicode hex="00AC"/>
  <note>
logicalnot
</note>
  <outline>
    <contour>
      <point x="566" y="110" type="curve"/>
      <point x="605" y="110"/>
      <point x="632" y="135"/>
      <point x="632" y="171" type="curve"/>
      <point x="632" y="355" type="line"/>
      <point x="632" y="385"/>
      <point x="611" y="406"/>
      <point x="581" y="406" type="curve"/>
      <point x="101" y="406" type="line"/>
      <point x="71" y="406"/>
      <point x="50" y="381"/>
      <point x="50" y="347" type="curve"/>
      <point x="50" y="311"/>
      <point x="71" y="286"/>
      <point x="101" y="286" type="curve"/>
      <point x="522" y="286" type="line"/>
      <point x="502" y="300" type="line"/>
      <point x="502" y="171" type="line"/>
      <point x="502" y="135"/>
      <point x="530" y="110"/>
    </contour>
  </outline>
</glyph>
<glyph name="registered" format="2">
  <advance width="490"/>
  <unicode hex="00AE"/>
  <note>
registered
</note>
  <outline>
    <contour>
      <point x="181" y="363" type="curve" smooth="yes"/>
      <point x="195" y="363"/>
      <point x="206" y="373"/>
      <point x="206" y="391" type="curve" smooth="yes"/>
      <point x="206" y="465" type="line"/>
      <point x="198" y="456" type="line"/>
      <point x="237" y="456" type="line" smooth="yes"/>
      <point x="265" y="456"/>
      <point x="272" y="445"/>
      <point x="272" y="426" type="curve" smooth="yes"/>
      <point x="272" y="389"/>
      <point x="286" y="374"/>
      <point x="297" y="367" type="curve" smooth="yes"/>
      <point x="306" y="361"/>
      <point x="320" y="358"/>
      <point x="332" y="368" type="curve" smooth="yes"/>
      <point x="340" y="375"/>
      <point x="340" y="391"/>
      <point x="330" y="399" type="curve" smooth="yes"/>
      <point x="322" y="405"/>
      <point x="321" y="416"/>
      <point x="320" y="432" type="curve" smooth="yes"/>
      <point x="319" y="447"/>
      <point x="309" y="463"/>
      <point x="292" y="475" type="curve"/>
      <point x="292" y="471" type="line"/>
      <point x="310" y="482"/>
      <point x="331" y="505"/>
      <point x="331" y="528" type="curve" smooth="yes"/>
      <point x="331" y="570"/>
      <point x="298" y="602"/>
      <point x="261" y="602" type="curve" smooth="yes"/>
      <point x="176" y="602" type="line" smooth="yes"/>
      <point x="164" y="602"/>
      <point x="155" y="592"/>
      <point x="155" y="581" type="curve" smooth="yes"/>
      <point x="155" y="391" type="line" smooth="yes"/>
      <point x="155" y="373"/>
      <point x="166" y="363"/>
    </contour>
    <contour>
      <point x="250" y="499" type="curve" smooth="yes"/>
      <point x="202" y="499" type="line"/>
      <point x="206" y="493" type="line"/>
      <point x="206" y="559" type="line"/>
      <point x="200" y="553" type="line"/>
      <point x="250" y="553" type="line" smooth="yes"/>
      <point x="269" y="553"/>
      <point x="283" y="543"/>
      <point x="283" y="527" type="curve" smooth="yes"/>
      <point x="283" y="511"/>
      <point x="269" y="499"/>
    </contour>
    <contour>
      <point x="245" y="260" type="curve" smooth="yes"/>
      <point x="368" y="260"/>
      <point x="470" y="360"/>
      <point x="470" y="485" type="curve" smooth="yes"/>
      <point x="470" y="608"/>
      <point x="368" y="710"/>
      <point x="245" y="710" type="curve" smooth="yes"/>
      <point x="120" y="710"/>
      <point x="20" y="608"/>
      <point x="20" y="485" type="curve" smooth="yes"/>
      <point x="20" y="360"/>
      <point x="120" y="260"/>
    </contour>
    <contour>
      <point x="245" y="318" type="curve" smooth="yes"/>
      <point x="153" y="318"/>
      <point x="78" y="393"/>
      <point x="78" y="485" type="curve" smooth="yes"/>
      <point x="78" y="576"/>
      <point x="153" y="652"/>
      <point x="245" y="652" type="curve" smooth="yes"/>
      <point x="336" y="652"/>
      <point x="412" y="576"/>
      <point x="412" y="485" type="curve" smooth="yes"/>
      <point x="412" y="393"/>
      <point x="336" y="318"/>
    </contour>
  </outline>
</glyph>
<glyph name="macron" format="2">
  <advance width="442"/>
  <unicode hex="00AF"/>
  <anchor x="210" y="515" name="_top"/>
  <outline>
    <contour>
      <point x="100" y="600" type="curve" smooth="yes"/>
      <point x="342" y="600" type="line" smooth="yes"/>
      <point x="375" y="600"/>
      <point x="392" y="616"/>
      <point x="392" y="645" type="curve" smooth="yes"/>
      <point x="392" y="673"/>
      <point x="374" y="689"/>
      <point x="342" y="689" type="curve" smooth="yes"/>
      <point x="100" y="689" type="line" smooth="yes"/>
      <point x="68" y="689"/>
      <point x="50" y="673"/>
      <point x="50" y="645" type="curve" smooth="yes"/>
      <point x="50" y="616"/>
      <point x="68" y="600"/>
    </contour>
  </outline>
</glyph>
<glyph name="degree" format="2">
  <advance width="393"/>
  <unicode hex="00B0"/>
  <note>
degree
</note>
  <outline>
    <contour>
      <point x="196" y="385" type="curve"/>
      <point x="294" y="385"/>
      <point x="363" y="460"/>
      <point x="363" y="547" type="curve"/>
      <point x="363" y="637"/>
      <point x="294" y="710"/>
      <point x="196" y="710" type="curve"/>
      <point x="99" y="710"/>
      <point x="30" y="637"/>
      <point x="30" y="547" type="curve"/>
      <point x="30" y="460"/>
      <point x="99" y="385"/>
    </contour>
    <contour>
      <point x="196" y="465" type="curve"/>
      <point x="151" y="465"/>
      <point x="120" y="505"/>
      <point x="120" y="547" type="curve"/>
      <point x="120" y="593"/>
      <point x="151" y="630"/>
      <point x="196" y="630" type="curve"/>
      <point x="242" y="630"/>
      <point x="273" y="591"/>
      <point x="273" y="547" type="curve"/>
      <point x="273" y="505"/>
      <point x="242" y="465"/>
    </contour>
  </outline>
</glyph>
<glyph name="plusminus" format="2">
  <advance width="578"/>
  <unicode hex="00B1"/>
  <note>
plusminus
</note>
  <outline>
    <contour>
      <point x="96" y="293" type="curve"/>
      <point x="503" y="293" type="line"/>
      <point x="535" y="293"/>
      <point x="559" y="316"/>
      <point x="559" y="348" type="curve"/>
      <point x="559" y="380"/>
      <point x="535" y="403"/>
      <point x="503" y="403" type="curve"/>
      <point x="96" y="403" type="line"/>
      <point x="64" y="403"/>
      <point x="40" y="381"/>
      <point x="40" y="349" type="curve"/>
      <point x="40" y="317"/>
      <point x="64" y="293"/>
    </contour>
    <contour>
      <point x="298" y="155" type="curve"/>
      <point x="336" y="155"/>
      <point x="363" y="182"/>
      <point x="363" y="219" type="curve"/>
      <point x="363" y="499" type="line"/>
      <point x="363" y="536"/>
      <point x="337" y="563"/>
      <point x="299" y="563" type="curve"/>
      <point x="261" y="563"/>
      <point x="233" y="536"/>
      <point x="233" y="499" type="curve"/>
      <point x="233" y="219" type="line"/>
      <point x="233" y="182"/>
      <point x="260" y="155"/>
    </contour>
    <contour>
      <point x="96" y="-1" type="curve" smooth="yes"/>
      <point x="482" y="-1" type="line" smooth="yes"/>
      <point x="514" y="-1"/>
      <point x="538" y="23"/>
      <point x="538" y="55" type="curve" smooth="yes"/>
      <point x="538" y="87"/>
      <point x="514" y="111"/>
      <point x="482" y="111" type="curve" smooth="yes"/>
      <point x="96" y="111" type="line" smooth="yes"/>
      <point x="64" y="111"/>
      <point x="40" y="87"/>
      <point x="40" y="55" type="curve" smooth="yes"/>
      <point x="40" y="23"/>
      <point x="64" y="-1"/>
    </contour>
  </outline>
</glyph>
<glyph name="acute" format="2">
  <advance width="261"/>
  <unicode hex="00B4"/>
  <anchor x="96" y="569" name="_top"/>
  <outline>
    <contour>
      <point x="85" y="593" type="curve" smooth="yes"/>
      <point x="100" y="593"/>
      <point x="116" y="595"/>
      <point x="130" y="610" type="curve" smooth="yes"/>
      <point x="206" y="694" type="line" smooth="yes"/>
      <point x="218" y="708"/>
      <point x="224" y="723"/>
      <point x="225" y="737" type="curve" smooth="yes"/>
      <point x="226" y="765"/>
      <point x="209" y="787"/>
      <point x="172" y="787" type="curve" smooth="yes"/>
      <point x="148" y="787"/>
      <point x="129" y="768"/>
      <point x="117" y="747" type="curve" smooth="yes"/>
      <point x="59" y="645" type="line" smooth="yes"/>
      <point x="55" y="638"/>
      <point x="53" y="632"/>
      <point x="53" y="626" type="curve" smooth="yes"/>
      <point x="52" y="604"/>
      <point x="74" y="593"/>
    </contour>
  </outline>
</glyph>
<glyph name="micro" format="2">
  <advance width="606"/>
  <unicode hex="00B5"/>
  <note>
uni00B5
</note>
  <outline>
    <contour>
      <point x="141" y="-160" type="curve" smooth="yes"/>
      <point x="179" y="-160"/>
      <point x="200" y="-139"/>
      <point x="200" y="-100" type="curve" smooth="yes"/>
      <point x="200" y="51" type="line"/>
      <point x="196" y="25" type="line"/>
      <point x="213" y="-1"/>
      <point x="256" y="-10"/>
      <point x="275" y="-10" type="curve" smooth="yes"/>
      <point x="363" y="-10"/>
      <point x="410" y="63"/>
      <point x="418" y="83" type="curve"/>
      <point x="416" y="90" type="line"/>
      <point x="416" y="61" type="line" smooth="yes"/>
      <point x="416" y="26"/>
      <point x="441" y="0"/>
      <point x="476" y="0" type="curve" smooth="yes"/>
      <point x="511" y="0"/>
      <point x="536" y="26"/>
      <point x="536" y="61" type="curve" smooth="yes"/>
      <point x="536" y="454" type="line" smooth="yes"/>
      <point x="536" y="489"/>
      <point x="511" y="515"/>
      <point x="476" y="515" type="curve" smooth="yes"/>
      <point x="441" y="515"/>
      <point x="416" y="489"/>
      <point x="416" y="454" type="curve" smooth="yes"/>
      <point x="416" y="238" type="line" smooth="yes"/>
      <point x="416" y="161"/>
      <point x="374" y="100"/>
      <point x="297" y="100" type="curve" smooth="yes"/>
      <point x="220" y="100"/>
      <point x="200" y="161"/>
      <point x="200" y="238" type="curve" smooth="yes"/>
      <point x="200" y="454" type="line" smooth="yes"/>
      <point x="200" y="489"/>
      <point x="175" y="515"/>
      <point x="140" y="515" type="curve" smooth="yes"/>
      <point x="105" y="515"/>
      <point x="80" y="489"/>
      <point x="80" y="454" type="curve" smooth="yes"/>
      <point x="81" y="-100" type="line" smooth="yes"/>
      <point x="81" y="-139"/>
      <point x="102" y="-160"/>
    </contour>
  </outline>
</glyph>
<glyph name="paragraph" format="2">
  <advance width="632"/>
  <unicode hex="00B6"/>
  <note>
paragraph
</note>
  <outline>
    <contour>
      <point x="508" y="0" type="curve" smooth="yes"/>
      <point x="526" y="0"/>
      <point x="552" y="12"/>
      <point x="552" y="46" type="curve" smooth="yes"/>
      <point x="552" y="659" type="line" smooth="yes"/>
      <point x="552" y="683"/>
      <point x="535" y="700"/>
      <point x="511" y="700" type="curve" smooth="yes"/>
      <point x="292" y="700" type="line" smooth="yes"/>
      <point x="119" y="700"/>
      <point x="35" y="635"/>
      <point x="35" y="486" type="curve" smooth="yes"/>
      <point x="35" y="349"/>
      <point x="103" y="285"/>
      <point x="249" y="285" type="curve" smooth="yes"/>
      <point x="335" y="285" type="line"/>
      <point x="309" y="323" type="line"/>
      <point x="309" y="91" type="line" smooth="yes"/>
      <point x="309" y="46"/>
      <point x="290" y="27"/>
      <point x="259" y="27" type="curve" smooth="yes"/>
      <point x="246" y="27"/>
      <point x="230" y="31"/>
      <point x="214" y="35" type="curve" smooth="yes"/>
      <point x="199" y="39"/>
      <point x="178" y="35"/>
      <point x="167" y="14" type="curve" smooth="yes"/>
      <point x="154" y="-11"/>
      <point x="168" y="-37"/>
      <point x="188" y="-48" type="curve" smooth="yes"/>
      <point x="208" y="-59"/>
      <point x="239" y="-63"/>
      <point x="264" y="-63" type="curve" smooth="yes"/>
      <point x="335" y="-63"/>
      <point x="399" y="-27"/>
      <point x="399" y="71" type="curve" smooth="yes"/>
      <point x="399" y="644" type="line"/>
      <point x="389" y="625" type="line"/>
      <point x="476" y="625" type="line"/>
      <point x="462" y="655" type="line"/>
      <point x="462" y="46" type="line" smooth="yes"/>
      <point x="462" y="12"/>
      <point x="490" y="0"/>
    </contour>
  </outline>
</glyph>
<glyph name="periodcentered" format="2">
  <advance width="222"/>
  <unicode hex="00B7"/>
  <note>
periodcentered
</note>
  <outline>
    <contour>
      <point x="104" y="238" type="curve" smooth="yes"/>
      <point x="117" y="238" type="line" smooth="yes"/>
      <point x="156" y="238"/>
      <point x="177" y="259"/>
      <point x="177" y="298" type="curve" smooth="yes"/>
      <point x="177" y="315" type="line" smooth="yes"/>
      <point x="177" y="354"/>
      <point x="156" y="375"/>
      <point x="117" y="375" type="curve" smooth="yes"/>
      <point x="104" y="375" type="line" smooth="yes"/>
      <point x="65" y="375"/>
      <point x="44" y="354"/>
      <point x="44" y="315" type="curve" smooth="yes"/>
      <point x="44" y="298" type="line" smooth="yes"/>
      <point x="44" y="259"/>
      <point x="65" y="238"/>
    </contour>
  </outline>
</glyph>
<glyph name="cedilla" format="2">
  <advance width="261"/>
  <unicode hex="00B8"/>
  <anchor x="141" y="0" name="_bottom"/>
  <outline>
    <contour>
      <point x="115" y="-151" type="curve" smooth="yes"/>
      <point x="134" y="-151"/>
      <point x="148" y="-140"/>
      <point x="156" y="-119" type="curve" smooth="yes"/>
      <point x="211" y="30" type="line"/>
      <point x="140" y="30" type="line"/>
      <point x="62" y="-75" type="line" smooth="yes"/>
      <point x="54" y="-85"/>
      <point x="50" y="-96"/>
      <point x="50" y="-105" type="curve" smooth="yes"/>
      <point x="50" y="-134"/>
      <point x="94" y="-151"/>
    </contour>
  </outline>
</glyph>
<glyph name="ordmasculine" format="2">
  <advance width="350"/>
  <unicode hex="00BA"/>
  <note>
ordmasculine
</note>
  <outline>
    <contour>
      <point x="335" y="549" type="curve"/>
      <point x="335" y="640"/>
      <point x="266" y="710"/>
      <point x="174" y="710" type="curve"/>
      <point x="83" y="710"/>
      <point x="15" y="640"/>
      <point x="15" y="549" type="curve"/>
      <point x="15" y="459"/>
      <point x="83" y="392"/>
      <point x="174" y="392" type="curve"/>
      <point x="266" y="392"/>
      <point x="335" y="459"/>
    </contour>
    <contour>
      <point x="240" y="549" type="curve"/>
      <point x="240" y="507"/>
      <point x="215" y="477"/>
      <point x="174" y="477" type="curve"/>
      <point x="134" y="477"/>
      <point x="110" y="507"/>
      <point x="110" y="549" type="curve"/>
      <point x="110" y="593"/>
      <point x="134" y="625"/>
      <point x="174" y="625" type="curve"/>
      <point x="215" y="625"/>
      <point x="240" y="593"/>
    </contour>
  </outline>
</glyph>
<glyph name="Aring" format="2">
  <advance width="643"/>
  <unicode hex="00C5"/>
  <anchor x="322" y="700" name="_top"/>
  <anchor x="322" y="850" name="top"/>
  <anchor x="322" y="0" name="bottom"/>
  <anchor x="579" y="10" name="ogonek"/>
  <outline>
    <contour>
      <point x="322" y="635" type="curve"/>
      <point x="382" y="635"/>
      <point x="436" y="685"/>
      <point x="436" y="744" type="curve"/>
      <point x="436" y="806"/>
      <point x="382" y="855"/>
      <point x="322" y="855" type="curve"/>
      <point x="262" y="855"/>
      <point x="208" y="806"/>
      <point x="208" y="744" type="curve"/>
      <point x="208" y="685"/>
      <point x="262" y="635"/>
    </contour>
    <contour>
      <point x="322" y="705" type="curve"/>
      <point x="297" y="705"/>
      <point x="278" y="721"/>
      <point x="278" y="744" type="curve"/>
      <point x="278" y="770"/>
      <point x="297" y="785"/>
      <point x="322" y="785" type="curve"/>
      <point x="344" y="785"/>
      <point x="366" y="772"/>
      <point x="366" y="744" type="curve"/>
      <point x="366" y="721"/>
      <point x="347" y="705"/>
    </contour>
    <component base="A"/>
  </outline>
</glyph>
<glyph name="AE" format="2">
  <advance width="884"/>
  <unicode hex="00C6"/>
  <note>
AE
</note>
  <anchor x="455" y="0" name="bottom"/>
  <anchor x="596" y="700" name="top"/>
  <outline>
    <contour>
      <point x="197" y="256" type="line"/>
      <point x="138" y="143" type="line"/>
      <point x="432" y="143" type="line"/>
      <point x="407" y="156" type="line"/>
      <point x="407" y="61" type="line" smooth="yes"/>
      <point x="407" y="26"/>
      <point x="433" y="0"/>
      <point x="468" y="0" type="curve" smooth="yes"/>
      <point x="783" y="0" type="line" smooth="yes"/>
      <point x="818" y="0"/>
      <point x="844" y="23"/>
      <point x="844" y="57" type="curve" smooth="yes"/>
      <point x="844" y="87"/>
      <point x="818" y="115"/>
      <point x="783" y="115" type="curve" smooth="yes"/>
      <point x="522" y="115" type="line"/>
      <point x="532" y="89" type="line"/>
      <point x="532" y="310" type="line"/>
      <point x="522" y="295" type="line"/>
      <point x="738" y="295" type="line" smooth="yes"/>
      <point x="773" y="295"/>
      <point x="799" y="317"/>
      <point x="799" y="351" type="curve" smooth="yes"/>
      <point x="799" y="386"/>
      <point x="773" y="410"/>
      <point x="738" y="410" type="curve" smooth="yes"/>
      <point x="523" y="410" type="line"/>
      <point x="532" y="391" type="line"/>
      <point x="532" y="594" type="line"/>
      <point x="522" y="585" type="line"/>
      <point x="783" y="585" type="line" smooth="yes"/>
      <point x="818" y="585"/>
      <point x="844" y="607"/>
      <point x="844" y="641" type="curve" smooth="yes"/>
      <point x="844" y="676"/>
      <point x="818" y="700"/>
      <point x="783" y="700" type="curve" smooth="yes"/>
      <point x="481" y="700" type="line" smooth="yes"/>
      <point x="460" y="700"/>
      <point x="439" y="694"/>
      <point x="425" y="674" type="curve" smooth="yes"/>
      <point x="17" y="89" type="line" smooth="yes"/>
      <point x="8" y="76"/>
      <point x="3" y="62"/>
      <point x="4" y="48" type="curve" smooth="yes"/>
      <point x="6" y="15"/>
      <point x="34" y="-5"/>
      <point x="60" y="-5" type="curve" smooth="yes"/>
      <point x="76" y="-5"/>
      <point x="91" y="3"/>
      <point x="103" y="19" type="curve"/>
      <point x="428" y="501" type="line"/>
      <point x="407" y="507" type="line"/>
      <point x="407" y="218" type="line"/>
      <point x="425" y="256" type="line"/>
    </contour>
  </outline>
</glyph>
<glyph name="multiply" format="2">
  <advance width="501"/>
  <unicode hex="00D7"/>
  <note>
multiply
</note>
  <outline>
    <contour>
      <point x="105" y="95" type="curve" smooth="yes"/>
      <point x="119" y="95"/>
      <point x="133" y="101"/>
      <point x="145" y="113" type="curve"/>
      <point x="433" y="400" type="line"/>
      <point x="445" y="412"/>
      <point x="451" y="426"/>
      <point x="451" y="440" type="curve" smooth="yes"/>
      <point x="451" y="465"/>
      <point x="428" y="495"/>
      <point x="395" y="495" type="curve" smooth="yes"/>
      <point x="381" y="495"/>
      <point x="367" y="490"/>
      <point x="355" y="478" type="curve"/>
      <point x="67" y="190" type="line"/>
      <point x="56" y="179"/>
      <point x="50" y="165"/>
      <point x="50" y="151" type="curve" smooth="yes"/>
      <point x="50" y="122"/>
      <point x="77" y="95"/>
    </contour>
    <contour>
      <point x="355" y="112" type="line"/>
      <point x="367" y="101"/>
      <point x="381" y="95"/>
      <point x="395" y="95" type="curve" smooth="yes"/>
      <point x="421" y="95"/>
      <point x="450" y="117"/>
      <point x="450" y="150" type="curve" smooth="yes"/>
      <point x="450" y="164"/>
      <point x="444" y="179"/>
      <point x="433" y="190" type="curve"/>
      <point x="145" y="478" type="line"/>
      <point x="133" y="490"/>
      <point x="119" y="496"/>
      <point x="105" y="496" type="curve" smooth="yes"/>
      <point x="79" y="496"/>
      <point x="51" y="473"/>
      <point x="51" y="440" type="curve" smooth="yes"/>
      <point x="51" y="426"/>
      <point x="56" y="412"/>
      <point x="67" y="400" type="curve"/>
    </contour>
  </outline>
</glyph>
<glyph name="Oslash" format="2">
  <advance width="739"/>
  <unicode hex="00D8"/>
  <note>
Oslash
</note>
  <anchor x="370" y="0" name="bottom"/>
  <anchor x="370" y="700" name="top"/>
  <anchor x="380" y="350" name="center"/>
  <anchor x="683" y="10" name="ogonek"/>
  <anchor x="20" y="700" name="topleft"/>
  <anchor x="379" y="710" name="topright"/>
  <outline>
    <contour>
      <point x="95" y="-31" type="curve" smooth="yes"/>
      <point x="110" y="-31"/>
      <point x="124" y="-24"/>
      <point x="134" y="-11" type="curve" smooth="yes"/>
      <point x="684" y="667" type="line" smooth="yes"/>
      <point x="692" y="677"/>
      <point x="696" y="689"/>
      <point x="696" y="700" type="curve" smooth="yes"/>
      <point x="696" y="728"/>
      <point x="671" y="749"/>
      <point x="645" y="749" type="curve" smooth="yes"/>
      <point x="631" y="749"/>
      <point x="617" y="743"/>
      <point x="606" y="730" type="curve" smooth="yes"/>
      <point x="56" y="52" type="line" smooth="yes"/>
      <point x="48" y="42"/>
      <point x="44" y="30"/>
      <point x="44" y="19" type="curve" smooth="yes"/>
      <point x="44" y="-9"/>
      <point x="70" y="-31"/>
    </contour>
    <component base="O"/>
  </outline>
</glyph>
<glyph name="Thorn" format="2">
  <advance width="603"/>
  <unicode hex="00DE"/>
  <note>
Thorn
</note>
  <anchor x="272" y="0" name="bottom"/>
  <anchor x="272" y="700" name="top"/>
  <outline>
    <contour>
      <point x="195" y="61" type="curve" smooth="yes"/>
      <point x="195" y="679" type="line" smooth="yes"/>
      <point x="195" y="714"/>
      <point x="171" y="740"/>
      <point x="136" y="740" type="curve" smooth="yes"/>
      <point x="101" y="740"/>
      <point x="75" y="714"/>
      <point x="75" y="679" type="curve" smooth="yes"/>
      <point x="75" y="61" type="line" smooth="yes"/>
      <point x="75" y="26"/>
      <point x="99" y="0"/>
      <point x="134" y="0" type="curve" smooth="yes"/>
      <point x="169" y="0"/>
      <point x="195" y="26"/>
    </contour>
    <contour>
      <point x="184" y="280" type="line"/>
      <point x="124" y="160" type="line"/>
      <point x="364" y="160" type="line" smooth="yes"/>
      <point x="466" y="160"/>
      <point x="563" y="261"/>
      <point x="563" y="385" type="curve" smooth="yes"/>
      <point x="563" y="510"/>
      <point x="468" y="610"/>
      <point x="364" y="610" type="curve" smooth="yes"/>
      <point x="136" y="610" type="line"/>
      <point x="183" y="490" type="line"/>
      <point x="364" y="490" type="line" smooth="yes"/>
      <point x="402" y="490"/>
      <point x="443" y="443"/>
      <point x="443" y="385" type="curve" smooth="yes"/>
      <point x="443" y="328"/>
      <point x="402" y="280"/>
      <point x="364" y="280" type="curve" smooth="yes"/>
    </contour>
  </outline>
</glyph>
<glyph name="germandbls" format="2">
  <advance width="667"/>
  <unicode hex="00DF"/>
  <note>
germandbls
</note>
  <outline>
    <contour>
      <point x="177" y="0" type="curve"/>
      <point x="212" y="0"/>
      <point x="237" y="26"/>
      <point x="237" y="61" type="curve"/>
      <point x="237" y="506" type="line"/>
      <point x="237" y="584"/>
      <point x="283" y="627"/>
      <point x="349" y="627" type="curve"/>
      <point x="410" y="627"/>
      <point x="451" y="604"/>
      <point x="451" y="556" type="curve"/>
      <point x="451" y="508"/>
      <point x="415" y="477"/>
      <point x="365" y="452" type="curve"/>
      <point x="348" y="442"/>
      <point x="337" y="425"/>
      <point x="337" y="398" type="curve"/>
      <point x="337" y="372"/>
      <point x="350" y="356"/>
      <point x="384" y="346" type="curve"/>
      <point x="458" y="328"/>
      <point x="512" y="287"/>
      <point x="512" y="195" type="curve"/>
      <point x="512" y="137"/>
      <point x="490" y="86"/>
      <point x="428" y="86" type="curve"/>
      <point x="405" y="86"/>
      <point x="382" y="96"/>
      <point x="369" y="109" type="curve"/>
      <point x="346" y="132"/>
      <point x="321" y="132"/>
      <point x="300" y="119" type="curve"/>
      <point x="266" y="97"/>
      <point x="270" y="64"/>
      <point x="283" y="45" type="curve"/>
      <point x="304" y="16"/>
      <point x="348" y="-10"/>
      <point x="423" y="-10" type="curve"/>
      <point x="544" y="-10"/>
      <point x="632" y="81"/>
      <point x="632" y="211" type="curve"/>
      <point x="632" y="335"/>
      <point x="540" y="402"/>
      <point x="455" y="430" type="curve"/>
      <point x="458" y="426" type="line"/>
      <point x="513" y="452"/>
      <point x="570" y="496"/>
      <point x="570" y="567" type="curve"/>
      <point x="570" y="663"/>
      <point x="491" y="737"/>
      <point x="355" y="737" type="curve"/>
      <point x="209" y="737"/>
      <point x="117" y="647"/>
      <point x="117" y="502" type="curve"/>
      <point x="117" y="61" type="line"/>
      <point x="117" y="26"/>
      <point x="142" y="0"/>
    </contour>
    <contour>
      <point x="91" y="380" type="curve"/>
      <point x="185" y="380" type="line"/>
      <point x="220" y="380"/>
      <point x="226" y="404"/>
      <point x="226" y="438" type="curve"/>
      <point x="226" y="471"/>
      <point x="220" y="495"/>
      <point x="185" y="495" type="curve"/>
      <point x="91" y="495" type="line"/>
      <point x="56" y="495"/>
      <point x="30" y="471"/>
      <point x="30" y="438" type="curve"/>
      <point x="30" y="404"/>
      <point x="56" y="380"/>
    </contour>
  </outline>
</glyph>
<glyph name="ae" format="2">
  <advance width="916"/>
  <unicode hex="00E6"/>
  <note>
ae
</note>
  <anchor x="416" y="0" name="bottom"/>
  <anchor x="858" y="10" name="ogonek"/>
  <anchor x="416" y="515" name="top"/>
  <outline>
    <contour>
      <point x="267" y="545" type="curve"/>
      <point x="156" y="545"/>
      <point x="90" y="487"/>
      <point x="49" y="436" type="curve" smooth="yes"/>
      <point x="38" y="422"/>
      <point x="35" y="408"/>
      <point x="35" y="395" type="curve" smooth="yes"/>
      <point x="35" y="366"/>
      <point x="60" y="347"/>
      <point x="86" y="347" type="curve" smooth="yes"/>
      <point x="103" y="347"/>
      <point x="119" y="355"/>
      <point x="131" y="368" type="curve"/>
      <point x="163" y="406"/>
      <point x="193" y="435"/>
      <point x="264" y="435" type="curve"/>
      <point x="305" y="435"/>
      <point x="371" y="426"/>
      <point x="371" y="351" type="curve"/>
      <point x="371" y="260" type="line"/>
      <point x="486" y="267" type="line"/>
      <point x="486" y="388" type="line"/>
      <point x="486" y="509"/>
      <point x="366" y="545"/>
    </contour>
    <contour>
      <point x="228" y="-10" type="curve"/>
      <point x="330" y="-10"/>
      <point x="407" y="57"/>
      <point x="436" y="100" type="curve"/>
      <point x="383" y="181" type="line"/>
      <point x="365" y="146"/>
      <point x="321" y="98"/>
      <point x="232" y="98" type="curve"/>
      <point x="195" y="98"/>
      <point x="158" y="115"/>
      <point x="158" y="156" type="curve"/>
      <point x="158" y="188"/>
      <point x="169" y="226"/>
      <point x="241" y="226" type="curve"/>
      <point x="820" y="226" type="line"/>
      <point x="852" y="226"/>
      <point x="879" y="248"/>
      <point x="881" y="280" type="curve"/>
      <point x="881" y="424"/>
      <point x="763" y="545"/>
      <point x="628" y="545" type="curve"/>
      <point x="496" y="545"/>
      <point x="371" y="439"/>
      <point x="371" y="260" type="curve"/>
      <point x="371" y="106"/>
      <point x="477" y="-10"/>
      <point x="648" y="-10" type="curve"/>
      <point x="714" y="-10"/>
      <point x="783" y="16"/>
      <point x="818" y="45" type="curve"/>
      <point x="837" y="60"/>
      <point x="846" y="77"/>
      <point x="846" y="94" type="curve" smooth="yes"/>
      <point x="846" y="120"/>
      <point x="824" y="144"/>
      <point x="795" y="144" type="curve" smooth="yes"/>
      <point x="784" y="144"/>
      <point x="773" y="141"/>
      <point x="761" y="135" type="curve"/>
      <point x="739" y="123"/>
      <point x="715" y="100"/>
      <point x="642" y="100" type="curve"/>
      <point x="562" y="100"/>
      <point x="486" y="159"/>
      <point x="486" y="268" type="curve"/>
      <point x="486" y="398"/>
      <point x="548" y="435"/>
      <point x="628" y="435" type="curve"/>
      <point x="690" y="435"/>
      <point x="748" y="390"/>
      <point x="753" y="333" type="curve"/>
      <point x="753" y="308" type="line"/>
      <point x="771" y="326" type="line"/>
      <point x="253" y="326" type="line"/>
      <point x="98" y="326"/>
      <point x="38" y="258"/>
      <point x="38" y="154" type="curve"/>
      <point x="38" y="39"/>
      <point x="138" y="-10"/>
    </contour>
  </outline>
</glyph>
<glyph name="eth" format="2">
  <advance width="576"/>
  <unicode hex="00F0"/>
  <note>
eth
</note>
  <outline>
    <contour>
      <point x="288" y="-10" type="curve"/>
      <point x="429" y="-10"/>
      <point x="541" y="96"/>
      <point x="541" y="280" type="curve"/>
      <point x="541" y="494"/>
      <point x="446" y="678"/>
      <point x="251" y="736" type="curve"/>
      <point x="239" y="739"/>
      <point x="229" y="740"/>
      <point x="220" y="740" type="curve"/>
      <point x="184" y="740"/>
      <point x="168" y="708"/>
      <point x="168" y="682" type="curve"/>
      <point x="168" y="653"/>
      <point x="190" y="629"/>
      <point x="221" y="621" type="curve"/>
      <point x="342" y="585"/>
      <point x="399" y="537"/>
      <point x="399" y="383" type="curve"/>
      <point x="463" y="342" type="line"/>
      <point x="447" y="452"/>
      <point x="382" y="534"/>
      <point x="272" y="534" type="curve"/>
      <point x="157" y="534"/>
      <point x="35" y="415"/>
      <point x="35" y="262" type="curve"/>
      <point x="35" y="109"/>
      <point x="147" y="-10"/>
    </contour>
    <contour>
      <point x="288" y="110" type="curve"/>
      <point x="213" y="110"/>
      <point x="155" y="175"/>
      <point x="155" y="262" type="curve"/>
      <point x="155" y="349"/>
      <point x="213" y="414"/>
      <point x="288" y="414" type="curve"/>
      <point x="364" y="414"/>
      <point x="421" y="349"/>
      <point x="421" y="262" type="curve"/>
      <point x="421" y="175"/>
      <point x="364" y="110"/>
    </contour>
    <contour>
      <point x="176" y="528" type="curve"/>
      <point x="351" y="563" type="line"/>
      <point x="396" y="582" type="line"/>
      <point x="468" y="593" type="line"/>
      <point x="496" y="597"/>
      <point x="513" y="613"/>
      <point x="508" y="642" type="curve"/>
      <point x="502" y="669"/>
      <point x="477" y="675"/>
      <point x="448" y="671" type="curve"/>
      <point x="336" y="653" type="line"/>
      <point x="273" y="630" type="line"/>
      <point x="156" y="606" type="line"/>
      <point x="127" y="600"/>
      <point x="111" y="585"/>
      <point x="116" y="557" type="curve"/>
      <point x="121" y="529"/>
      <point x="146" y="522"/>
    </contour>
  </outline>
</glyph>
<glyph name="divide" format="2">
  <advance width="619"/>
  <unicode hex="00F7"/>
  <note>
divide
</note>
  <outline>
    <contour>
      <point x="225" y="465" type="curve" smooth="yes"/>
      <point x="225" y="423"/>
      <point x="260" y="388"/>
      <point x="303" y="388" type="curve" smooth="yes"/>
      <point x="345" y="388"/>
      <point x="380" y="423"/>
      <point x="380" y="465" type="curve" smooth="yes"/>
      <point x="380" y="508"/>
      <point x="345" y="543"/>
      <point x="303" y="543" type="curve" smooth="yes"/>
      <point x="260" y="543"/>
      <point x="225" y="508"/>
    </contour>
    <contour>
      <point x="225" y="102" type="curve" smooth="yes"/>
      <point x="225" y="60"/>
      <point x="260" y="25"/>
      <point x="303" y="25" type="curve" smooth="yes"/>
      <point x="345" y="25"/>
      <point x="380" y="60"/>
      <point x="380" y="102" type="curve" smooth="yes"/>
      <point x="380" y="145"/>
      <point x="345" y="180"/>
      <point x="303" y="180" type="curve" smooth="yes"/>
      <point x="260" y="180"/>
      <point x="225" y="145"/>
    </contour>
    <contour>
      <point x="109" y="230" type="curve"/>
      <point x="510" y="230" type="line"/>
      <point x="544" y="230"/>
      <point x="569" y="255"/>
      <point x="569" y="286" type="curve"/>
      <point x="569" y="316"/>
      <point x="544" y="340"/>
      <point x="510" y="340" type="curve"/>
      <point x="109" y="340" type="line"/>
      <point x="75" y="340"/>
      <point x="50" y="317"/>
      <point x="50" y="286" type="curve"/>
      <point x="50" y="255"/>
      <point x="75" y="230"/>
    </contour>
  </outline>
</glyph>
<glyph name="oslash" format="2">
  <advance width="614"/>
  <unicode hex="00F8"/>
  <note>
oslash
</note>
  <anchor x="307" y="515" name="top"/>
  <anchor x="307" y="0" name="bottom"/>
  <anchor x="307" y="258" name="center"/>
  <anchor x="553" y="10" name="ogonek"/>
  <anchor x="321" y="545" name="topright"/>
  <outline>
    <contour>
      <point x="103" y="-33" type="curve" smooth="yes"/>
      <point x="117" y="-33"/>
      <point x="131" y="-27"/>
      <point x="141" y="-15" type="curve" smooth="yes"/>
      <point x="549" y="464" type="line" smooth="yes"/>
      <point x="557" y="473"/>
      <point x="562" y="485"/>
      <point x="562" y="497" type="curve" smooth="yes"/>
      <point x="562" y="525"/>
      <point x="538" y="547"/>
      <point x="511" y="547" type="curve" smooth="yes"/>
      <point x="497" y="547"/>
      <point x="483" y="541"/>
      <point x="473" y="529" type="curve" smooth="yes"/>
      <point x="65" y="50" type="line" smooth="yes"/>
      <point x="56" y="40"/>
      <point x="52" y="28"/>
      <point x="52" y="16" type="curve" smooth="yes"/>
      <point x="52" y="-8"/>
      <point x="74" y="-33"/>
    </contour>
    <component base="o"/>
  </outline>
</glyph>
<glyph name="thorn" format="2">
  <advance width="623"/>
  <unicode hex="00FE"/>
  <note>
thorn
</note>
  <anchor x="282" y="0" name="bottom"/>
  <anchor x="282" y="499" name="top"/>
  <outline>
    <contour>
      <point x="342" y="545" type="curve"/>
      <point x="248" y="545"/>
      <point x="168" y="468"/>
      <point x="168" y="434" type="curve"/>
      <point x="185" y="425" type="line"/>
      <point x="185" y="679" type="line"/>
      <point x="185" y="714"/>
      <point x="160" y="740"/>
      <point x="125" y="740" type="curve"/>
      <point x="90" y="740"/>
      <point x="65" y="714"/>
      <point x="65" y="679" type="curve"/>
      <point x="65" y="-139" type="line"/>
      <point x="65" y="-175"/>
      <point x="90" y="-200"/>
      <point x="125" y="-200" type="curve"/>
      <point x="160" y="-200"/>
      <point x="185" y="-174"/>
      <point x="185" y="-139" type="curve"/>
      <point x="185" y="124" type="line"/>
      <point x="154" y="111" type="line"/>
      <point x="154" y="73"/>
      <point x="238" y="-10"/>
      <point x="346" y="-10" type="curve"/>
      <point x="481" y="-10"/>
      <point x="588" y="104"/>
      <point x="588" y="268" type="curve"/>
      <point x="588" y="431"/>
      <point x="481" y="545"/>
    </contour>
    <contour>
      <point x="327" y="435" type="curve"/>
      <point x="414" y="435"/>
      <point x="473" y="363"/>
      <point x="473" y="268" type="curve"/>
      <point x="473" y="173"/>
      <point x="414" y="100"/>
      <point x="327" y="100" type="curve"/>
      <point x="239" y="100"/>
      <point x="180" y="173"/>
      <point x="180" y="268" type="curve"/>
      <point x="180" y="363"/>
      <point x="239" y="435"/>
    </contour>
  </outline>
</glyph>
<glyph name="Aogonek" format="2">
  <advance width="643"/>
  <unicode hex="0104"/>
  <anchor x="578.866" y="10" name="_ogonek"/>
  <anchor x="322" y="0" name="bottom"/>
  <anchor x="579" y="10" name="ogonek"/>
  <anchor x="322" y="700" name="top"/>
  <outline>
    <contour>
      <point x="526" y="-207" type="curve" smooth="yes"/>
      <point x="586" y="-207"/>
      <point x="642" y="-165"/>
      <point x="642" y="-132" type="curve" smooth="yes"/>
      <point x="642" y="-102"/>
      <point x="622" y="-84"/>
      <point x="598" y="-84" type="curve" smooth="yes"/>
      <point x="588" y="-84"/>
      <point x="569" y="-86"/>
      <point x="557" y="-102" type="curve" smooth="yes"/>
      <point x="551" y="-110"/>
      <point x="544" y="-114"/>
      <point x="536" y="-114" type="curve" smooth="yes"/>
      <point x="522" y="-114"/>
      <point x="507" y="-105"/>
      <point x="507" y="-79" type="curve" smooth="yes"/>
      <point x="507" y="-46"/>
      <point x="551" y="-19"/>
      <point x="611" y="-2" type="curve" smooth="yes"/>
      <point x="632" y="4"/>
      <point x="639" y="21"/>
      <point x="639" y="35" type="curve" smooth="yes"/>
      <point x="639" y="41"/>
      <point x="638" y="46"/>
      <point x="635" y="52" type="curve" smooth="yes"/>
      <point x="378" y="664" type="line" smooth="yes"/>
      <point x="368" y="689"/>
      <point x="346" y="704"/>
      <point x="322" y="704" type="curve"/>
      <point x="296" y="706"/>
      <point x="273" y="691"/>
      <point x="262" y="664" type="curve" smooth="yes"/>
      <point x="15" y="69" type="line"/>
      <point x="12" y="61"/>
      <point x="11" y="53"/>
      <point x="11" y="45" type="curve" smooth="yes"/>
      <point x="11" y="12"/>
      <point x="23" y="-5"/>
      <point x="63" y="-5" type="curve" smooth="yes"/>
      <point x="86" y="-5"/>
      <point x="107" y="10"/>
      <point x="116" y="35" type="curve"/>
      <point x="332" y="543" type="line"/>
      <point x="303" y="537" type="line"/>
      <point x="530" y="9" type="line"/>
      <point x="584" y="21" type="line"/>
      <point x="589" y="63" type="line"/>
      <point x="516" y="42"/>
      <point x="406" y="8"/>
      <point x="406" y="-100" type="curve" smooth="yes"/>
      <point x="406" y="-174"/>
      <point x="460" y="-207"/>
    </contour>
    <contour>
      <point x="166" y="157" type="line"/>
      <point x="491" y="157" type="line"/>
      <point x="472" y="272" type="line"/>
      <point x="202" y="272" type="line"/>
    </contour>
  </outline>
</glyph>
